<?xml version="1.0" encoding="UTF-8" standalone="no"?>
<svg
   xmlns:dc="http://purl.org/dc/elements/1.1/"
   xmlns:cc="http://creativecommons.org/ns#"
   xmlns:rdf="http://www.w3.org/1999/02/22-rdf-syntax-ns#"
   xmlns:svg="http://www.w3.org/2000/svg"
   xmlns="http://www.w3.org/2000/svg"
   xmlns:sodipodi="http://sodipodi.sourceforge.net/DTD/sodipodi-0.dtd"
   xmlns:inkscape="http://www.inkscape.org/namespaces/inkscape"
   version="1.0"
   width="1595px"
   height="738px"
   viewBox="0 0 15950 7380"
   preserveAspectRatio="xMidYMid meet"
   id="svg2"
   inkscape:version="0.91 r13725"
   sodipodi:docname="gentle gian.svg">
  <metadata
     id="metadata620">
    <rdf:RDF>
      <cc:Work
         rdf:about="">
        <dc:format>image/svg+xml</dc:format>
        <dc:type
           rdf:resource="http://purl.org/dc/dcmitype/StillImage" />
        <dc:title></dc:title>
      </cc:Work>
    </rdf:RDF>
  </metadata>
  <defs
     id="defs618" />
  <sodipodi:namedview
     pagecolor="#ffffff"
     bordercolor="#666666"
     borderopacity="1"
     objecttolerance="10"
     gridtolerance="10"
     guidetolerance="10"
     inkscape:pageopacity="0"
     inkscape:pageshadow="2"
     inkscape:window-width="1276"
     inkscape:window-height="755"
     id="namedview616"
     showgrid="false"
     inkscape:zoom="0.5"
     inkscape:cx="1255.6128"
     inkscape:cy="476.1015"
     inkscape:window-x="4"
     inkscape:window-y="1"
     inkscape:window-maximized="1"
     inkscape:current-layer="g236" />
  <g
     fill="#2c2c2f"
     stroke="none"
     id="g4">
    <path
       d="M13420 7219 c-146 -4 -278 -9 -295 -13 -16 -3 -73 -8 -125 -10 -52 -2 -107 -9 -121 -14 -18 -7 -30 -7 -37 0 -6 6 -12 6 -16 -1 -4 -6 -24 -11 -44 -11 -20 -1 -55 -7 -76 -15 -22 -8 -44 -12 -48 -9 -5 3 -16 0 -24 -7 -8 -6 -17 -9 -21 -5 -8 8 -53 -33 -53 -49 0 -6 -10 -11 -22 -10 -13 2 -31 -7 -41 -19 -12 -14 -17 -16 -15 -6 2 9 -1 16 -7 17 -5 0 -9 -3 -7 -9 1 -5 -2 -7 -7 -4 -5 4 -12 2 -16 -3 -3 -6 7 -17 23 -25 25 -13 31 -13 45 0 9 8 15 11 12 7 -3 -3 4 -17 16 -29 l21 -22 -24 -7 c-12 -4 -30 -13 -38 -20 -8 -7 -49 -31 -90 -52 -41 -21 -110 -66 -154 -99 -43 -32 -88 -66 -101 -74 -35 -24 -225 -193 -225 -200 0 -4 -29 -36 -64 -71 -35 -35 -70 -78 -79 -95 -9 -17 -23 -34 -32 -38 -9 -3 -24 -23 -33 -43 -9 -21 -29 -54 -44 -74 -16 -20 -28 -39 -28 -44 0 -4 -11 -20 -25 -37 -14 -16 -28 -42 -31 -56 -4 -15 -12 -34 -19 -42 -6 -8 -18 -31 -25 -50 -7 -19 -19 -42 -27 -51 -7 -8 -16 -31 -19 -50 -4 -19 -12 -41 -18 -49 -16 -21 -33 -60 -40 -90 -3 -14 -12 -47 -20 -75 -35 -113 -58 -202 -61 -230 -2 -16 -9 -52 -15 -80 -11 -50 -23 -209 -23 -315 0 -142 23 -382 40 -430 3 -8 5 -25 4 -37 -1 -11 3 -24 8 -28 6 -3 11 -19 11 -35 0 -16 5 -32 10 -35 6 -3 10 -21 10 -40 0 -19 5 -37 10 -40 6 -3 10 -17 10 -31 0 -24 2 -30 33 -92 9 -19 17 -44 17 -57 0 -12 7 -28 15 -35 8 -7 15 -19 15 -26 0 -8 14 -40 30 -71 17 -31 30 -62 30 -69 0 -8 8 -22 18 -32 9 -10 28 -40 42 -66 14 -26 33 -54 43 -63 9 -9 17 -22 17 -30 0 -7 8 -21 18 -31 9 -9 34 -41 55 -70 21 -28 43 -52 48 -52 5 0 9 -6 9 -13 0 -8 34 -49 75 -93 42 -43 82 -89 90 -101 9 -13 20 -23 26 -23 5 0 31 -20 57 -45 26 -25 52 -45 58 -45 6 0 14 -8 17 -19 2 -10 18 -24 36 -32 17 -8 31 -17 31 -21 0 -4 20 -21 45 -38 25 -17 45 -28 45 -24 0 4 13 -5 29 -20 28 -27 46 -39 99 -67 12 -7 22 -19 22 -27 0 -9 7 -23 15 -32 13 -15 12 -27 -14 -111 -16 -52 -53 -175 -82 -274 -31 -106 -62 -191 -75 -207 -12 -15 -28 -44 -35 -65 -6 -21 -22 -51 -35 -66 -13 -15 -28 -46 -35 -69 -12 -47 -38 -87 -56 -88 -6 0 -50 44 -97 98 -47 54 -99 108 -116 120 -16 12 -85 88 -152 168 -68 81 -152 181 -188 223 -127 150 -415 494 -450 536 -19 24 -114 137 -210 251 -96 114 -202 240 -235 280 -145 175 -394 474 -563 673 -155 183 -182 220 -177 241 17 78 -2 217 -35 255 -49 57 -35 79 151 256 79 74 182 180 231 237 95 111 127 141 200 190 53 36 88 87 88 126 0 42 -49 86 -96 86 -39 0 -62 -19 -162 -138 -23 -28 -86 -86 -140 -128 -53 -43 -172 -153 -263 -246 -92 -92 -173 -168 -181 -168 -9 0 -21 -6 -27 -13 -13 -16 -87 -21 -96 -7 -7 12 -93 11 -117 -1 -10 -6 -19 -5 -23 1 -9 14 -108 13 -123 -2 -8 -8 -15 -8 -24 -1 -20 16 -113 16 -127 -1 -20 -23 10 -36 97 -39 79 -3 118 -16 92 -32 -6 -4 -17 -2 -25 5 -16 13 -31 -5 -27 -32 2 -13 -4 -18 -22 -18 -14 0 -27 -4 -30 -8 -2 -4 -848 -9 -1879 -9 l-1875 -1 -4 28 -4 29 120 1 c67 1 191 3 276 6 411 10 1211 19 2407 27 210 2 385 6 389 10 4 3 14 2 23 -2 9 -5 43 -7 76 -5 33 2 67 4 75 4 8 -1 35 0 60 1 45 2 65 2 153 -3 50 -3 87 18 72 42 -7 12 -102 11 -127 -1 -10 -6 -19 -5 -23 1 -7 12 -406 10 -422 -2 -7 -6 -19 -6 -30 0 -24 13 -265 12 -280 0 -9 -7 -17 -7 -25 -1 -16 13 -106 14 -113 2 -3 -4 -16 -4 -28 0 -12 5 -114 7 -227 4 -113 -2 -216 -4 -230 -3 -85 4 -261 3 -695 -3 -269 -3 -492 -6 -495 -7 -3 0 -209 -2 -459 -5 -250 -2 -455 -6 -457 -8 -2 -2 -20 -1 -39 1 -24 3 -41 12 -52 28 -15 23 -13 26 36 81 28 32 92 105 141 163 59 70 116 125 169 164 66 47 81 63 87 91 11 63 -24 120 -82 131 -41 8 -80 -20 -123 -86 -29 -45 -95 -107 -206 -195 -27 -21 -82 -70 -122 -108 l-72 -69 -63 25 c-35 14 -85 28 -113 32 -27 3 -59 10 -70 14 -53 21 -246 81 -261 81 -10 0 -25 6 -33 13 -14 12 -108 43 -121 40 -3 -1 -16 5 -30 12 -31 16 -92 39 -105 40 -5 0 -27 7 -48 15 -40 15 -42 18 -127 210 -18 41 -43 89 -55 105 -12 17 -24 37 -27 46 -4 9 -28 49 -55 89 -26 40 -54 85 -62 99 -36 66 -359 401 -387 401 -8 0 -14 4 -14 9 0 5 -23 26 -50 46 -28 21 -64 50 -80 66 -15 16 -35 29 -43 29 -8 0 -17 8 -19 18 -3 10 -11 19 -19 19 -26 0 -91 46 -100 70 -5 13 -14 21 -19 18 -6 -4 -9 -3 -8 2 2 4 -1 9 -7 11 -5 2 -19 11 -30 21 -11 10 -27 17 -37 16 -9 -2 -19 6 -22 19 -6 20 -7 20 -20 3 -10 -13 -16 -15 -23 -5 -23 30 -3 79 23 57 8 -7 14 -6 19 1 3 5 4 11 1 11 -3 1 -9 2 -13 3 -5 1 -14 5 -20 9 -7 5 -17 6 -22 3 -4 -3 -16 3 -26 14 -10 11 -22 17 -27 14 -5 -3 -15 0 -23 6 -8 6 -24 13 -37 15 -13 2 -52 11 -88 19 -187 42 -436 62 -765 59 -308 -1 -595 -14 -665 -28 -56 -11 -81 -19 -86 -26 -3 -5 -9 -7 -14 -4 -5 3 -20 -1 -34 -10 -18 -12 -26 -13 -32 -4 -5 9 -10 9 -18 -2 -16 -21 -57 -37 -88 -33 -15 1 -31 -3 -35 -9 -5 -7 -21 -18 -38 -26 -16 -7 -37 -17 -45 -21 -9 -4 -41 -5 -72 -3 -43 3 -64 0 -85 -14 -15 -10 -28 -17 -30 -15 -2 1 -6 2 -10 1 -5 -1 -18 0 -30 1 -12 0 -33 -6 -48 -16 -14 -9 -28 -14 -32 -11 -3 4 -15 0 -27 -8 -22 -16 -37 -19 -34 -7 2 4 -1 8 -7 9 -5 2 -10 -5 -10 -15 0 -20 25 -65 33 -58 2 3 14 0 26 -6 11 -7 30 -12 41 -13 11 0 25 -3 31 -7 6 -4 22 -1 35 6 14 7 31 13 39 13 8 1 34 2 58 4 31 2 48 -3 60 -16 16 -16 16 -17 -3 -7 -26 13 -55 -2 -55 -29 0 -11 -4 -17 -10 -14 -5 3 -21 -5 -34 -18 -14 -14 -27 -23 -29 -21 -2 2 -21 -7 -41 -21 -20 -14 -45 -25 -56 -25 -20 0 -80 -66 -80 -87 0 -7 -7 -13 -15 -13 -8 0 -22 -11 -31 -25 -9 -14 -22 -25 -30 -25 -7 0 -20 -11 -29 -23 -8 -13 -27 -29 -41 -36 -14 -6 -23 -15 -20 -19 3 -5 -8 -19 -24 -31 -17 -12 -30 -28 -30 -36 0 -8 -7 -15 -15 -15 -8 0 -19 -10 -26 -22 -6 -13 -25 -38 -42 -55 -17 -18 -27 -33 -21 -33 5 0 -2 -6 -16 -13 -13 -7 -30 -23 -36 -35 -6 -13 -22 -34 -34 -47 -13 -14 -21 -25 -17 -25 3 0 -5 -12 -18 -26 -14 -15 -22 -31 -19 -36 3 -4 -3 -16 -14 -26 -11 -9 -30 -37 -42 -62 -34 -67 -40 -79 -62 -119 -22 -37 -78 -184 -82 -211 -1 -9 -5 -20 -8 -26 -13 -20 -38 -99 -38 -120 0 -12 -7 -27 -15 -34 -8 -7 -15 -20 -15 -29 0 -9 -6 -45 -14 -81 -31 -137 -36 -168 -46 -280 -12 -136 -7 -378 10 -470 35 -201 52 -288 60 -315 31 -110 73 -236 81 -241 5 -3 9 -15 9 -27 0 -12 7 -33 14 -47 8 -14 24 -45 36 -70 11 -24 27 -51 34 -60 8 -8 17 -26 21 -39 4 -13 28 -55 54 -93 25 -39 57 -87 71 -108 14 -21 34 -50 45 -66 18 -27 73 -93 128 -156 14 -15 27 -33 30 -42 3 -8 26 -29 51 -48 25 -18 45 -37 46 -43 0 -9 67 -69 185 -165 28 -23 61 -50 74 -61 13 -11 42 -29 64 -41 22 -11 65 -37 96 -58 90 -60 297 -161 335 -162 12 -1 28 -8 37 -15 15 -13 52 -25 159 -54 25 -6 54 -15 65 -20 120 -49 696 -86 765 -49 9 5 26 7 37 4 20 -5 80 4 178 26 177 40 232 54 241 62 7 5 22 11 35 13 50 10 149 47 173 66 13 10 30 19 36 19 14 0 151 67 230 113 55 32 99 61 178 117 23 16 46 30 51 30 4 0 20 12 34 27 15 16 52 51 84 78 32 28 84 76 116 108 l58 57 67 -47 c101 -71 268 -165 350 -197 41 -16 76 -34 78 -41 3 -7 -13 -73 -34 -146 l-40 -134 -33 -1 c-23 0 -38 -8 -53 -27 -19 -25 -19 -27 -2 -46 10 -11 28 -21 40 -23 17 -2 21 -9 20 -35 -1 -17 -46 -182 -100 -367 l-98 -335 -32 4 c-44 5 -58 -14 -50 -65 6 -37 4 -41 -19 -50 -14 -5 -25 -14 -25 -20 0 -5 -12 -10 -28 -10 -15 0 -37 -7 -50 -15 -12 -9 -65 -22 -117 -30 -176 -27 -273 -65 -336 -132 -36 -37 -41 -54 -54 -158 -5 -37 14 -64 57 -86 62 -31 294 -37 580 -14 170 13 237 15 333 7 133 -12 322 -1 417 23 102 26 191 100 204 171 6 31 3 40 -23 65 l-29 29 -159 -10 c-198 -12 -261 -21 -257 -38 3 -17 -79 -7 -166 19 -70 21 -113 42 -77 37 28 -4 45 10 45 36 0 28 -18 46 -46 46 -13 0 -26 5 -29 10 -4 6 8 10 29 10 27 0 40 6 52 25 15 23 15 29 3 52 -8 14 -22 28 -31 31 -10 2 -18 7 -18 11 0 3 29 107 65 231 37 124 73 250 82 280 9 30 21 73 28 95 7 22 18 59 24 83 7 24 18 42 26 42 22 0 36 36 29 77 -5 31 -2 42 14 56 18 17 45 19 289 20 243 1 671 -8 769 -18 69 -6 636 -29 739 -30 94 0 100 1 99 20 -1 11 -5 28 -9 38 -7 16 -3 18 35 15 37 -3 44 -6 45 -25 2 -34 35 -66 52 -51 10 8 11 14 3 22 -16 16 -12 56 6 56 13 0 14 -3 4 -15 -16 -19 -3 -40 15 -25 8 6 12 17 9 23 -3 8 12 12 51 11 34 -1 59 4 66 12 9 11 15 10 36 -3 19 -13 56 -17 164 -19 77 -2 148 -8 158 -13 10 -6 28 -7 40 -4 19 5 22 2 19 -13 -2 -12 -13 -19 -32 -21 -16 -1 -33 -6 -38 -11 -18 -18 20 -31 97 -34 87 -3 107 10 56 37 -17 8 -31 22 -31 31 0 12 9 14 48 10 26 -2 48 -5 50 -5 8 -3 -1 -26 -15 -36 -15 -11 -14 -14 4 -32 18 -18 35 -21 139 -22 64 -1 121 -4 126 -7 4 -3 11 2 14 11 15 38 -60 62 -110 36 -20 -11 -28 -11 -40 -2 -11 9 -16 9 -22 0 -4 -8 -11 -4 -20 12 -28 51 -31 51 210 47 124 -1 228 1 232 5 4 4 12 3 18 -2 6 -5 36 -10 66 -12 30 -1 61 -7 68 -12 7 -5 15 -7 19 -4 3 4 12 -1 18 -10 11 -14 16 -15 28 -5 9 8 18 9 21 4 7 -12 -37 -24 -57 -16 -9 3 -25 -4 -36 -15 -20 -20 -23 -20 -45 -6 -26 17 -36 10 -32 -20 2 -13 12 -20 32 -21 68 -4 315 -16 384 -19 254 -9 418 -18 437 -26 28 -11 30 -41 6 -116 -16 -52 -19 -54 -45 -49 -22 4 -31 0 -44 -19 -24 -36 -15 -69 21 -75 24 -4 29 -10 27 -28 -2 -12 -37 -130 -78 -262 -41 -132 -74 -242 -74 -245 0 -3 -8 -5 -17 -5 -9 0 -24 -6 -32 -14 -9 -7 -86 -36 -171 -65 -85 -28 -170 -56 -188 -63 -28 -11 -37 -10 -63 5 -41 23 -61 22 -89 -8 -19 -20 -29 -23 -57 -19 -27 4 -40 1 -59 -17 -13 -12 -24 -30 -24 -38 -1 -37 -38 -59 -175 -105 -151 -50 -181 -54 -211 -31 -26 20 -60 19 -83 -4 -18 -18 -19 -18 -42 0 -13 10 -46 23 -73 29 -27 6 -73 24 -101 40 -58 33 -83 37 -123 16 -47 -25 -74 -62 -79 -110 -5 -43 -3 -48 35 -86 24 -24 49 -40 63 -40 40 0 69 -12 69 -27 0 -30 33 -84 59 -97 15 -7 37 -10 51 -6 30 8 87 2 118 -13 17 -8 25 -8 34 1 17 17 33 15 18 -3 -10 -12 -9 -16 4 -21 20 -8 47 13 44 34 -2 8 3 17 10 20 9 2 12 -3 10 -14 -2 -13 3 -19 17 -20 33 -1 55 15 55 41 0 13 11 32 25 43 32 25 285 112 322 110 15 -1 136 35 267 81 196 68 243 81 262 72 l22 -10 -32 -108 c-27 -89 -36 -108 -52 -108 -10 0 -24 6 -30 14 -10 12 -14 9 -28 -18 -10 -19 -14 -40 -10 -49 15 -34 -7 -66 -46 -67 -8 -1 -14 -6 -12 -13 1 -8 -11 -12 -33 -12 -23 0 -34 4 -33 13 4 15 -48 13 -68 -4 -24 -20 -4 -30 27 -14 16 9 29 11 29 5 0 -5 -8 -10 -17 -10 -9 0 -44 -28 -77 -63 -58 -60 -53 -47 7 19 20 22 25 34 17 39 -7 4 -31 -14 -60 -48 l-49 -54 -84 -5 c-97 -5 -142 -27 -172 -82 -18 -33 -18 -35 0 -82 10 -26 32 -63 49 -82 43 -46 124 -57 235 -31 46 11 80 14 87 9 10 -9 95 -6 179 6 90 13 241 23 540 34 256 10 342 23 422 64 80 40 136 117 119 162 -7 18 -30 17 -176 -6 -147 -22 -339 -4 -353 34 -4 9 -14 12 -25 9 -11 -2 -34 3 -51 11 -28 15 -35 14 -32 -7 1 -9 0 -9 -37 4 -17 6 -30 15 -29 21 1 6 -11 15 -28 20 -16 5 -36 12 -44 14 -11 4 -9 8 7 20 12 8 22 21 22 28 0 23 -31 76 -41 71 -16 -10 -10 30 16 109 14 42 25 86 25 97 0 11 4 18 9 15 4 -3 17 1 27 9 10 8 27 15 36 15 30 0 57 46 51 88 -4 31 0 41 21 61 32 30 32 35 4 74 -13 18 -23 34 -24 37 0 3 -4 12 -8 21 -4 10 17 97 53 215 92 303 98 319 110 319 20 0 43 45 37 71 -4 15 6 63 25 125 24 78 36 103 54 111 16 7 99 5 281 -6 143 -9 302 -18 354 -21 52 -3 190 -10 305 -16 116 -6 221 -11 235 -11 60 1 133 -34 304 -145 100 -64 226 -146 281 -181 55 -36 129 -84 165 -107 36 -23 92 -59 125 -80 33 -21 71 -46 85 -56 14 -11 41 -28 60 -39 38 -22 90 -54 136 -84 147 -97 524 -336 557 -353 24 -13 27 -20 27 -68 0 -34 5 -57 15 -65 20 -17 19 -27 -4 -33 -28 -7 -57 -55 -42 -70 21 -21 12 -61 -19 -89 -19 -16 -30 -36 -30 -52 0 -24 -3 -26 -43 -26 -49 0 -87 -30 -87 -69 0 -17 -4 -22 -16 -17 -9 3 -18 6 -20 6 -3 0 -2 4 1 10 11 17 -4 30 -23 20 -9 -5 -29 -11 -44 -15 -33 -6 -78 -68 -78 -107 0 -16 13 -42 31 -63 28 -32 36 -35 83 -35 65 0 212 -18 248 -30 15 -5 30 -5 33 0 3 5 19 2 36 -7 29 -14 32 -14 53 6 22 21 30 22 124 15 82 -5 104 -4 122 9 12 8 29 13 37 10 8 -3 32 3 54 12 39 18 40 18 67 -6 42 -38 58 -49 78 -53 87 -16 100 -16 132 4 17 11 32 25 32 31 0 8 6 7 18 -3 34 -29 69 -38 83 -22 10 13 14 12 30 -2 10 -9 16 -20 14 -25 -8 -11 53 -77 86 -95 16 -8 54 -16 86 -18 32 -2 79 -10 105 -16 58 -15 102 -2 144 41 40 42 41 114 3 156 -21 24 -49 73 -49 88 0 2 9 13 21 24 11 10 19 27 17 38 -4 20 31 53 57 53 9 0 26 5 38 11 37 19 186 148 198 171 10 19 8 25 -22 50 -18 15 -38 28 -44 28 -6 0 -35 -25 -64 -54 -63 -64 -156 -130 -170 -122 -5 4 -12 2 -16 -4 -6 -10 -82 -50 -94 -50 -3 0 -6 14 -7 31 -1 17 -11 43 -23 60 -21 28 -21 30 -4 61 24 48 23 160 -4 218 -70 155 -286 312 -538 391 l-103 33 30 84 c16 46 28 97 26 112 -2 18 6 41 20 60 21 27 27 30 63 26 51 -6 139 10 158 29 8 7 14 28 13 46 0 18 6 58 14 88 8 30 14 79 14 109 0 29 7 82 16 117 15 61 19 66 60 86 66 31 157 132 180 197 0 1 40 -5 87 -13 175 -30 427 -41 572 -24 44 5 100 11 125 13 62 6 145 22 205 39 28 9 77 23 110 32 33 9 65 20 70 25 6 4 24 10 40 14 34 8 49 14 200 86 61 30 129 66 153 82 24 16 61 37 82 48 21 11 40 23 42 28 1 5 40 34 86 66 45 32 82 61 82 64 0 4 39 39 85 77 47 39 85 75 85 80 0 6 34 44 75 85 41 41 75 80 75 87 0 7 10 21 21 32 12 11 27 28 33 39 6 10 24 36 39 58 50 70 77 115 77 128 0 8 7 19 15 26 18 15 97 171 90 178 -3 3 2 14 12 24 19 21 55 117 48 128 -3 4 2 11 11 14 9 4 14 15 12 30 -1 13 3 30 10 38 6 8 14 28 16 44 2 16 8 41 14 55 6 15 8 30 5 33 -3 3 0 12 7 21 7 8 9 22 6 31 -4 9 -1 23 6 31 7 9 14 32 16 52 5 62 9 85 17 105 5 11 3 26 -3 37 -6 10 -8 20 -3 23 12 8 20 56 10 62 -5 3 -5 13 0 22 11 23 11 184 -1 199 -6 7 -5 19 4 32 10 17 10 25 1 41 -7 10 -9 22 -4 25 12 7 8 29 -8 49 -9 10 -10 20 -4 29 13 17 11 36 -6 46 -9 6 -10 13 -3 27 7 14 7 26 -1 39 -6 11 -10 32 -8 48 2 17 -3 29 -13 33 -12 5 -14 10 -6 19 12 15 -3 65 -20 65 -6 0 -6 7 2 19 9 15 9 23 -2 37 -8 9 -13 27 -12 40 2 15 -4 28 -17 36 -14 9 -17 16 -10 24 14 17 -6 54 -28 54 -13 0 -14 3 -5 12 18 18 14 49 -6 55 -14 3 -17 12 -14 34 4 24 0 31 -17 36 -16 4 -19 9 -11 18 7 9 4 19 -13 36 -12 14 -21 32 -19 41 2 9 -6 26 -17 37 -10 10 -17 22 -14 24 8 9 -17 47 -31 47 -9 0 -12 7 -9 19 3 11 -3 27 -14 38 -10 10 -24 31 -30 46 -7 15 -20 27 -28 27 -9 0 -13 4 -10 10 9 14 -13 50 -30 50 -8 0 -12 6 -9 13 2 7 -7 26 -20 40 -14 15 -30 36 -36 47 -6 11 -18 20 -26 20 -8 0 -12 4 -9 10 3 5 -17 33 -44 62 -28 29 -51 59 -51 66 0 7 -15 19 -32 27 -18 8 -29 14 -24 15 14 0 -26 40 -41 40 -7 0 -13 6 -13 14 0 16 -74 86 -91 86 -7 0 -22 10 -34 23 -36 35 -76 67 -86 67 -5 0 -18 9 -29 20 -11 11 -29 20 -40 20 -11 0 -20 4 -20 10 0 14 -117 91 -159 105 -23 7 -33 14 -81 57 -14 13 -32 21 -42 20 -9 -2 -24 8 -34 22 -11 18 -25 26 -44 26 -31 0 -75 20 -77 35 0 6 -27 19 -59 29 -33 10 -70 23 -84 29 -14 6 -28 11 -32 13 -5 1 -9 2 -10 3 -2 2 -21 4 -43 7 -22 2 -53 6 -70 9 -16 3 -81 7 -144 10 -62 3 -116 6 -120 8 -3 1 -125 -1 -271 -4z m5 -488 c7 -12 -31 -25 -45 -16 -6 4 -8 11 -5 16 8 12 42 12 50 0z m1038 -33 c15 -7 27 -17 27 -21 0 -4 -9 -3 -20 3 -16 9 -22 8 -26 -5 -7 -17 -13 -18 -33 -6 -12 8 -12 12 -2 25 16 19 20 19 54 4z m-693 -8 c0 -5 -12 -10 -26 -10 -14 0 -23 4 -19 10 3 6 15 10 26 10 10 0 19 -4 19 -10z m800 -55 c26 -17 37 -30 34 -40 -4 -8 1 -17 10 -21 9 -3 14 -10 11 -14 -6 -10 -99 36 -116 56 -9 11 -8 18 1 29 16 19 13 19 60 -10z m-1261 -78 c12 -12 18 0 23 43 3 22 9 25 46 28 38 3 43 1 53 -25 6 -16 9 -55 5 -91 -6 -72 6 -115 31 -110 25 5 31 41 25 141 l-5 87 47 0 c41 0 48 -3 57 -27 l10 -28 17 23 c16 20 23 22 75 17 32 -3 81 -12 110 -19 46 -12 52 -17 58 -44 3 -17 3 -34 -2 -39 -4 -4 -20 -78 -34 -163 -14 -85 -28 -166 -30 -180 -22 -122 -26 -152 -21 -165 3 -8 1 -17 -4 -20 -5 -3 -12 -24 -15 -48 -3 -23 -7 -49 -9 -57 -1 -8 -8 -55 -16 -105 -8 -51 -19 -93 -27 -98 -7 -4 -13 -18 -13 -31 0 -24 -35 -96 -73 -153 -22 -33 -46 -38 -69 -15 -13 13 -11 14 22 16 11 0 20 5 20 11 0 10 -34 16 -97 16 -25 0 -43 5 -46 13 -4 9 -18 12 -40 10 -26 -3 -42 2 -61 18 l-26 23 -1 291 c-1 160 0 295 3 300 2 5 6 57 7 116 2 99 -7 136 -25 106 -10 -15 -12 -165 -3 -200 4 -15 4 -30 0 -33 -9 -5 -9 -36 -10 -333 -1 -107 -4 -161 -11 -157 -6 3 -13 -1 -16 -10 -5 -13 -14 -5 -35 32 -29 50 -54 63 -54 28 -1 -29 63 -95 84 -87 13 5 14 3 4 -10 -11 -12 -9 -23 10 -56 21 -39 21 -42 4 -59 -14 -15 -21 -15 -37 -5 -25 15 -58 2 -121 -51 -26 -21 -53 -37 -60 -35 -8 2 -13 -3 -12 -9 2 -7 0 -12 -5 -10 -4 1 -8 -2 -9 -8 -1 -6 6 -8 15 -7 13 3 14 1 4 -11 -14 -17 -6 -28 16 -20 14 5 15 3 5 -7 -10 -10 -15 -11 -27 -1 -10 8 -16 9 -21 1 -12 -19 -26 -11 -16 9 14 26 1 34 -21 14 -18 -16 -20 -15 -49 20 -31 38 -58 42 -39 6 8 -15 8 -19 -2 -17 -7 2 -12 -2 -11 -9 2 -9 -12 -11 -34 -4 -9 3 -13 0 -10 -6 1 -5 5 -7 8 -6 8 3 37 -28 38 -39 1 -5 4 -8 9 -7 4 1 6 5 5 9 -4 14 35 -1 41 -16 3 -8 15 -14 26 -14 12 0 20 -6 18 -12 -2 -7 0 -13 4 -13 3 0 15 -8 25 -17 13 -12 23 -14 29 -8 6 6 23 1 46 -15 41 -27 62 -18 25 12 -12 10 -20 17 -18 16 2 -2 11 3 19 10 13 10 14 9 8 -1 -7 -12 6 -21 38 -26 8 -1 18 -5 22 -9 14 -13 25 5 12 21 -11 14 -10 15 5 9 10 -4 32 -7 48 -7 16 0 29 -5 29 -11 0 -6 -14 -9 -32 -7 -22 2 -32 -1 -31 -9 2 -9 -10 -13 -36 -13 -22 0 -43 -4 -46 -10 -11 -18 -43 -10 -59 15 -9 14 -21 23 -26 20 -6 -4 -3 -16 6 -30 11 -16 12 -25 4 -30 -18 -11 -100 -17 -100 -8 0 4 -9 19 -20 33 l-19 25 -10 -25 c-5 -14 -10 -19 -10 -12 -1 7 4 23 10 34 7 13 8 23 1 30 -7 7 -16 -2 -27 -25 -13 -28 -22 -35 -42 -34 -21 2 -32 -7 -56 -48 -25 -41 -30 -62 -31 -113 l-1 -63 -35 7 c-19 4 -46 8 -60 10 -14 1 -33 5 -43 9 -10 4 -21 5 -24 1 -3 -3 -12 -1 -19 5 -8 6 -20 9 -29 6 -8 -4 -17 -1 -21 4 -3 6 -15 9 -25 6 -10 -3 -22 -1 -25 5 -3 5 -16 8 -27 6 -12 -1 -28 1 -34 5 -7 5 -18 5 -23 2 -15 -9 -1 -27 16 -21 7 3 16 1 20 -5 3 -6 16 -9 27 -8 12 1 30 -2 40 -6 10 -4 21 -5 24 -1 3 3 12 1 19 -5 8 -6 20 -9 29 -6 8 4 17 1 21 -4 3 -6 15 -9 25 -6 10 3 21 1 24 -3 3 -5 25 -12 50 -15 55 -9 78 -25 69 -48 -5 -13 -19 -17 -58 -18 -114 -1 -146 -4 -146 -14 0 -5 23 -10 50 -11 28 -1 53 -3 55 -6 3 -3 -45 -24 -107 -48 -107 -40 -211 -80 -443 -170 -55 -21 -113 -40 -130 -42 -30 -3 -30 -2 -52 82 -12 47 -22 97 -22 112 -1 29 8 34 79 42 19 3 37 5 40 5 6 1 255 9 395 13 60 2 99 7 98 13 -3 9 -67 10 -385 7 -56 -1 -99 -6 -103 -12 -3 -6 -11 -8 -16 -4 -6 3 -33 7 -60 9 -27 1 -52 4 -54 7 -3 3 -8 55 -12 116 -4 81 -3 112 5 113 32 3 50 2 80 -5 21 -5 38 -4 45 3 12 12 0 18 -48 25 -80 11 -78 10 -71 105 3 47 11 103 16 123 l11 37 62 3 c76 4 81 21 9 29 -29 4 -56 9 -59 12 -6 6 19 95 49 174 16 45 23 53 39 48 32 -11 43 5 19 30 l-21 22 46 89 c57 109 68 122 90 104 12 -10 18 -11 28 -1 9 10 8 15 -5 25 -10 7 -18 18 -18 24 0 9 61 94 113 157 25 30 25 30 46 11 16 -15 24 -17 33 -8 9 9 7 16 -5 30 -9 10 -17 21 -17 25 0 12 175 157 190 157 9 0 51 -36 95 -79 43 -44 82 -78 87 -75 5 3 6 10 2 15 -3 5 -10 6 -16 3 -7 -4 -8 -2 -4 5 5 7 -17 36 -58 76 -36 35 -66 70 -66 78 0 15 70 62 156 105 l41 21 22 -30 c28 -38 45 -29 27 15 l-14 34 61 26 c71 29 147 56 162 56 6 0 15 -10 20 -21 13 -29 31 -21 28 13 -3 26 -1 26 95 43 53 9 104 17 112 18 9 2 18 -9 21 -26 4 -16 12 -34 18 -40z m761 63 c0 -13 -30 -13 -50 0 -11 7 -7 10 18 10 17 0 32 -4 32 -10z m67 -33 c4 -7 0 -8 -11 -4 -10 4 -22 7 -27 7 -5 0 -9 4 -9 9 0 12 38 2 47 -12z m-11846 -39 l19 -23 6 23 c5 18 13 22 50 22 l44 0 0 -45 c0 -25 -5 -65 -12 -89 -19 -71 16 -124 53 -80 8 10 14 48 15 101 3 102 13 119 65 106 31 -9 33 -12 34 -54 0 -26 4 -42 10 -39 6 3 10 10 10 17 0 7 6 18 13 25 6 6 12 18 12 25 0 7 7 13 16 13 21 0 185 -40 205 -51 18 -9 14 -62 -7 -93 -7 -10 -10 -25 -7 -32 3 -8 2 -22 -2 -31 -4 -10 -9 -37 -11 -61 -2 -24 -6 -47 -9 -52 -7 -11 -48 1 -102 29 -23 11 -59 21 -80 21 -36 0 -38 2 -37 30 0 17 4 33 7 37 11 10 8 71 -2 78 -13 7 -34 -32 -27 -50 3 -8 1 -17 -4 -20 -5 -3 -8 -23 -7 -45 1 -29 -4 -44 -18 -55 -23 -17 -51 -19 -60 -5 -9 14 -48 13 -63 -2 -20 -20 -14 -35 26 -64 l37 -27 -2 -180 c-2 -204 -8 -227 -76 -274 -35 -24 -41 -25 -83 -16 -43 10 -46 9 -56 -13 -13 -27 -46 -39 -82 -30 -14 3 -28 2 -31 -4 -8 -13 -62 -13 -71 1 -4 8 -9 8 -17 0 -18 -18 -49 -13 -75 12 l-24 22 -21 -27 c-16 -20 -26 -25 -37 -18 -8 5 -27 10 -41 10 -30 0 -134 -43 -144 -60 -5 -8 -15 -4 -31 11 -44 41 -46 8 -3 -56 21 -33 39 -65 39 -72 0 -6 9 -19 21 -27 16 -11 22 -26 23 -59 1 -25 -1 -45 -4 -43 -126 53 -148 68 -284 200 -77 74 -143 133 -148 130 -5 -3 -6 -10 -2 -15 3 -5 10 -7 15 -4 5 3 6 0 4 -8 -7 -17 30 -51 46 -41 8 5 10 3 4 -5 -5 -9 14 -35 55 -76 38 -38 58 -65 51 -69 -6 -4 -11 -2 -11 4 0 22 -106 46 -112 26 -2 -5 7 -10 19 -11 13 -1 31 -8 40 -16 10 -9 49 -29 86 -45 83 -35 195 -137 177 -159 -9 -11 -2 -19 37 -37 52 -25 70 -63 38 -81 -12 -6 -15 -16 -10 -34 4 -17 0 -32 -10 -43 -14 -15 -14 -21 -4 -38 11 -18 10 -24 -4 -40 -15 -16 -15 -21 -2 -38 8 -10 15 -23 15 -28 0 -8 -48 -4 -100 9 -40 10 -55 11 -60 1 -3 -5 2 -10 10 -12 24 -5 44 -11 60 -17 8 -3 24 -8 35 -12 l20 -6 -20 -12 c-12 -7 -69 -12 -150 -12 -80 0 -130 -4 -130 -10 0 -6 28 -10 63 -10 37 0 61 -4 59 -10 -2 -5 -9 -11 -15 -11 -22 -3 -23 -4 -17 -14 4 -6 12 -7 18 -3 14 9 31 11 129 17 67 3 80 1 105 -18 19 -14 27 -28 25 -43 -2 -14 4 -26 17 -33 12 -6 21 -19 21 -29 0 -9 11 -27 25 -39 14 -12 25 -27 25 -34 0 -6 10 -22 21 -34 38 -40 20 -68 -69 -111 -71 -35 -97 -62 -52 -55 10 2 21 -2 25 -7 4 -7 14 -5 30 5 l24 16 -16 -34 c-9 -18 -24 -38 -32 -45 -12 -9 -13 -15 -5 -23 9 -9 17 -4 34 17 12 15 27 28 33 28 6 0 23 24 38 53 15 30 30 57 33 60 4 3 22 -13 42 -36 36 -43 61 -53 70 -28 3 8 13 12 25 9 30 -8 34 -24 5 -19 -32 6 -43 -9 -18 -25 23 -15 18 -45 -9 -52 -48 -13 0 -80 79 -110 23 -9 42 -14 42 -12 0 3 9 1 20 -5 11 -6 19 -16 17 -22 -1 -8 9 -11 30 -9 48 4 69 -13 77 -59 5 -31 12 -43 31 -50 14 -5 25 -18 25 -28 0 -28 10 -33 36 -16 13 9 20 22 17 30 -4 11 7 14 56 15 84 2 101 2 104 -1 1 -1 32 -2 69 -3 58 -2 70 -5 83 -25 16 -22 38 -22 29 1 -3 8 12 13 49 14 l53 3 28 -56 c19 -40 30 -54 38 -46 7 7 2 24 -17 57 l-28 47 60 -3 c33 -1 64 0 69 4 14 8 125 0 156 -12 20 -8 25 -15 21 -34 -7 -34 28 -54 64 -38 28 13 32 10 148 -88 33 -28 72 -59 87 -69 15 -9 30 -23 33 -30 3 -7 -18 -36 -46 -63 -50 -48 -52 -49 -75 -34 -14 9 -30 13 -36 9 -6 -4 -8 -3 -5 3 4 6 -4 20 -17 32 -13 13 -27 18 -30 13 -3 -5 4 -18 15 -28 12 -11 30 -32 42 -48 l20 -29 -24 -19 c-60 -47 -163 -118 -173 -118 -10 0 -64 69 -63 80 1 14 -25 50 -34 45 -5 -4 -4 -15 3 -28 7 -12 12 -24 13 -27 0 -3 8 -27 19 -53 10 -27 17 -50 15 -52 -10 -9 -194 -95 -205 -95 -14 0 -28 33 -49 120 -9 36 -20 69 -23 75 -4 5 -7 18 -8 28 -1 9 -2 18 -3 20 -1 1 -4 18 -7 37 -2 19 -9 39 -14 44 -16 16 -22 -18 -9 -50 7 -16 13 -37 14 -46 2 -10 3 -19 4 -20 2 -2 4 -15 6 -30 2 -15 11 -54 19 -88 9 -34 16 -74 16 -90 0 -31 -11 -36 -168 -79 l-73 -20 -27 57 c-15 31 -27 60 -28 65 -1 4 -2 10 -3 13 0 3 -6 2 -11 -1 -6 -4 -7 -12 -3 -18 4 -6 8 -18 9 -27 1 -8 5 -34 9 -56 7 -40 6 -42 -21 -47 -16 -4 -71 -10 -121 -13 -89 -7 -93 -6 -93 13 0 22 -23 47 -33 36 -4 -3 -7 -17 -7 -29 0 -26 -34 -41 -69 -31 -11 3 -35 2 -53 -2 -18 -4 -42 -4 -53 0 -11 4 -33 10 -48 14 -25 5 -28 9 -22 34 9 41 -12 48 -33 12 -11 -20 -25 -31 -39 -31 -22 0 -192 38 -205 46 -4 3 -3 16 2 29 13 33 -9 46 -28 17 -23 -34 -40 -30 -205 48 -46 22 -48 24 -43 56 8 40 -10 55 -24 20 -5 -14 -13 -26 -16 -26 -16 0 -132 71 -168 102 -35 31 -38 36 -27 57 16 28 0 49 -19 26 -23 -27 -44 -16 -124 64 -60 61 -77 83 -74 102 2 19 -2 24 -19 25 -13 1 -32 12 -43 25 -29 34 -110 157 -110 166 0 5 9 14 21 21 26 17 17 27 -24 27 -29 0 -34 6 -73 85 -24 47 -46 101 -50 120 -4 19 -15 51 -24 70 -20 41 -45 126 -55 188 -6 36 -4 46 12 58 17 13 17 14 -4 20 -27 7 -32 27 -40 142 -5 83 -4 94 13 107 19 15 19 15 0 30 -17 13 -20 26 -18 93 2 103 11 152 27 152 7 0 17 6 23 13 9 10 7 17 -7 29 -18 15 -18 20 -5 80 23 105 43 160 64 175 16 11 18 18 10 28 -23 27 69 229 105 231 36 2 38 4 21 23 -17 18 -16 22 9 68 45 80 102 151 122 149 13 -1 17 5 15 22 -4 30 154 196 178 187 30 -12 35 -10 32 16 -3 22 9 35 72 83 97 72 119 82 150 68 29 -13 39 -6 25 19 -7 14 -5 21 13 33 36 24 175 86 192 86 8 0 24 -16 36 -35 27 -43 41 -37 29 12 -5 21 -9 41 -9 44 0 11 93 47 157 60 59 12 64 12 77 -7 14 -18 15 -18 24 6 8 21 20 27 68 36 32 7 88 12 122 13 55 1 67 -2 83 -21z m11695 1 c38 -12 74 -25 80 -30 6 -5 13 -7 15 -5 2 3 14 -3 26 -12 l22 -17 -25 -50 c-43 -87 -53 -114 -44 -120 5 -3 24 24 41 59 18 36 40 73 51 82 21 20 31 17 144 -48 63 -35 71 -43 70 -68 -1 -15 -4 -26 -8 -24 -4 2 -9 0 -12 -5 -12 -19 12 -20 29 -1 10 11 26 20 35 20 17 0 152 -101 179 -133 11 -14 10 -22 -7 -52 -25 -41 -14 -54 18 -20 12 13 29 21 36 18 22 -8 144 -154 144 -172 0 -8 -9 -25 -21 -37 -27 -29 -9 -40 24 -14 23 18 25 18 40 2 25 -28 96 -150 102 -175 5 -18 1 -26 -20 -35 -14 -7 -30 -12 -35 -12 -4 0 -30 -10 -57 -22 -26 -12 -51 -22 -55 -23 -5 -2 -9 -3 -10 -4 -2 -2 -13 -4 -26 -7 -12 -2 -39 -11 -60 -20 -20 -8 -37 -15 -37 -14 0 1 -70 -23 -157 -53 -108 -38 -159 -52 -166 -45 -8 8 -20 3 -41 -15 -16 -13 -64 -36 -105 -50 l-75 -25 49 66 c234 314 340 466 332 474 -5 5 -16 -2 -27 -19 -10 -15 -69 -95 -130 -178 -61 -82 -146 -198 -189 -256 l-78 -105 -99 -33 c-92 -30 -139 -35 -125 -12 10 15 -23 36 -36 23 -16 -16 -42 6 -28 23 7 9 6 16 -5 25 -10 8 -15 30 -15 61 0 45 4 53 78 141 151 182 162 197 153 202 -5 4 -54 -47 -108 -111 -54 -64 -104 -124 -111 -132 -11 -13 -12 -8 -7 34 5 32 30 95 70 175 102 201 105 209 95 215 -5 3 -39 -52 -74 -122 l-65 -128 3 51 c2 29 6 56 10 62 3 5 7 32 10 60 2 27 6 54 9 58 4 8 16 87 22 149 2 11 5 27 8 35 6 15 48 264 52 310 3 35 23 80 34 80 5 0 40 -9 77 -21z m-11007 -105 c105 -42 120 -56 97 -92 -4 -7 -5 -16 -2 -19 3 -3 -4 -18 -14 -34 -34 -47 -4 -42 43 7 42 44 47 46 75 36 35 -12 182 -109 182 -120 0 -4 -14 -25 -30 -46 -16 -21 -27 -43 -23 -49 4 -6 11 -3 19 8 7 10 11 22 7 28 -4 6 -1 7 6 3 7 -5 20 -1 31 9 27 24 48 14 129 -67 51 -50 71 -77 69 -92 -2 -15 3 -22 19 -24 12 -2 27 -10 34 -19 11 -13 9 -15 -16 -12 -17 2 -38 9 -47 17 -9 8 -20 12 -25 9 -4 -2 -19 0 -33 6 -28 11 -36 14 -65 21 -11 2 -33 10 -50 16 -39 16 -103 22 -109 11 -6 -10 16 -32 36 -35 7 -1 28 -9 47 -19 23 -11 38 -14 44 -8 7 7 20 3 37 -9 15 -11 30 -16 34 -13 3 4 12 -1 19 -11 8 -11 28 -19 53 -20 21 -2 48 -6 59 -10 11 -5 38 -15 61 -24 32 -12 44 -24 58 -58 16 -39 16 -44 1 -67 -19 -29 -6 -44 24 -27 11 5 21 10 24 10 6 0 53 -97 76 -157 l21 -53 -31 -16 c-36 -18 -29 -31 20 -36 33 -3 35 -6 58 -78 13 -41 26 -91 29 -110 5 -33 4 -36 -28 -47 -18 -6 -89 -19 -158 -28 -69 -9 -132 -19 -140 -22 -8 -3 -22 -5 -30 -4 -9 1 -78 -8 -155 -20 -77 -11 -202 -23 -279 -26 -119 -5 -140 -4 -147 10 -6 9 -17 13 -29 10 -15 -4 -30 5 -55 33 -19 22 -34 42 -35 46 0 6 39 17 80 24 8 1 52 12 98 24 59 15 87 19 96 11 8 -7 22 -4 45 10 30 18 138 51 214 65 49 9 100 35 90 45 -8 8 -38 3 -93 -18 -8 -4 -18 -5 -23 -5 -4 1 -26 -2 -49 -7 l-42 -10 59 53 c32 29 54 55 49 58 -5 4 -50 -24 -99 -60 -95 -71 -110 -78 -245 -112 -47 -12 -92 -24 -100 -27 -8 -3 -22 -7 -30 -9 -8 -1 -33 -6 -55 -10 l-40 -7 24 27 c22 24 23 30 4 24 -5 -2 -7 -5 -6 -8 5 -15 -58 -2 -107 22 -30 15 -63 29 -74 32 -14 5 -16 9 -6 20 9 12 7 17 -9 25 -14 8 -22 8 -26 0 -4 -6 -22 -8 -44 -4 -20 3 -53 6 -74 7 l-38 1 35 36 c27 28 39 54 55 114 11 43 23 82 26 87 3 5 0 18 -7 29 -10 16 -6 41 23 146 21 81 39 129 49 133 56 20 93 80 91 149 -1 33 13 51 24 33 5 -8 11 -8 20 0 8 7 20 8 27 4 7 -5 20 -9 28 -9 17 0 55 -25 61 -40 4 -11 19 -9 32 5 9 8 55 -4 100 -27 15 -8 35 -13 46 -11 10 2 24 -2 32 -9 8 -6 25 -13 39 -15 17 -2 25 -9 25 -23 1 -22 17 -22 52 1 15 9 22 22 20 36 -4 21 -5 22 -98 31 -19 2 -46 11 -60 20 -13 9 -33 17 -46 17 -12 0 -24 4 -28 9 -3 6 -14 8 -25 6 -11 -2 -20 -1 -20 3 0 10 31 55 44 64 5 3 11 13 12 22 4 31 -15 26 -45 -13 -32 -40 -76 -58 -98 -39 -7 6 -24 7 -37 4 -14 -3 -27 -2 -30 2 -10 17 27 168 50 201 17 25 20 38 13 47 -10 12 -5 34 8 34 4 0 36 -12 72 -26z m7521 -603 c11 -22 0 -34 -24 -25 -20 8 -21 44 -1 44 8 0 19 -9 25 -19z m-4667 -87 c-7 -18 -43 -18 -43 0 0 8 6 16 13 19 19 7 36 -3 30 -19z m9134 -81 c12 -28 35 -84 38 -93 1 -3 7 -18 14 -35 7 -16 13 -41 14 -55 2 -23 -3 -26 -70 -40 -77 -16 -96 -38 -28 -31 22 3 58 5 79 5 l40 1 18 -60 c9 -33 20 -86 24 -117 l6 -57 -43 -11 c-24 -6 -51 -14 -59 -17 -8 -3 -19 -5 -24 -4 -11 2 -407 -68 -426 -76 -8 -3 -21 -5 -28 -4 -10 2 -173 -25 -267 -44 -16 -4 -53 -8 -82 -10 -28 -2 -59 -8 -70 -13 -10 -6 -40 -13 -68 -17 -27 -3 -74 -11 -104 -17 -67 -12 -96 0 -112 50 -11 33 -10 37 15 59 21 18 30 20 44 12 10 -6 18 -21 18 -33 -1 -21 18 -35 20 -16 1 6 2 14 3 19 1 10 41 8 59 -3 6 -3 13 -2 17 4 3 6 0 13 -8 16 -8 3 -14 16 -14 30 0 14 -8 33 -18 44 -16 18 -16 20 11 44 16 14 44 28 62 32 18 3 35 10 37 15 3 4 12 6 20 2 8 -3 23 -2 33 2 9 5 24 7 34 6 9 -1 19 3 23 9 3 6 11 8 16 4 6 -3 18 -3 27 1 9 4 32 9 50 11 39 4 54 12 46 25 -6 11 -62 2 -80 -12 -6 -5 -14 -6 -17 -3 -3 4 -14 3 -24 -1 -10 -5 -25 -7 -35 -6 -9 1 -19 -2 -22 -8 -3 -5 -15 -7 -26 -4 -11 3 -26 0 -34 -6 -9 -8 -16 -8 -20 -2 -3 5 10 23 30 39 21 17 33 35 29 41 -4 8 -27 -6 -63 -37 -58 -49 -100 -73 -86 -49 4 6 25 35 46 64 31 41 51 57 94 73 71 26 73 25 41 -8 -48 -50 -16 -43 43 8 32 28 77 57 101 66 24 9 95 33 157 55 62 21 129 46 150 55 20 9 45 19 55 20 10 2 34 11 55 21 20 9 40 17 45 18 4 2 8 3 10 5 1 1 11 3 22 5 11 1 52 14 90 29 39 14 72 25 75 26 3 0 10 -12 17 -27z m-10387 -78 c25 -8 54 -20 65 -25 29 -13 147 -52 167 -54 9 -1 22 -7 30 -12 14 -11 51 -28 83 -39 19 -7 19 -8 -5 -17 -148 -57 -255 -149 -305 -261 -24 -53 -34 -67 -50 -65 -18 3 -21 15 -32 108 -6 58 -18 132 -26 165 -27 106 -47 177 -56 193 -5 8 -6 23 -4 32 5 19 12 18 133 -25z m9114 -42 c-7 -29 -24 -56 -31 -49 -4 4 28 76 34 76 2 0 0 -12 -3 -27z m-184 -72 c0 -15 -49 -19 -54 -5 -3 7 4 14 17 16 25 5 37 1 37 -11z m-314 -16 c-11 -8 -25 -15 -30 -15 -6 0 -2 7 8 15 11 8 25 15 30 15 6 0 2 -7 -8 -15z m47 -29 c4 -9 14 -12 28 -9 18 5 21 3 16 -11 -4 -10 -7 -38 -7 -63 0 -45 0 -45 -27 -37 -16 4 -47 8 -70 9 -45 1 -67 13 -55 30 4 6 22 22 40 37 18 15 32 30 31 34 -1 7 21 24 32 24 4 0 9 -6 12 -14z m205 3 c7 4 35 3 63 -3 50 -10 50 -10 47 -46 -2 -27 -7 -35 -23 -35 -11 -1 -19 -7 -17 -14 1 -7 -3 -20 -9 -28 -10 -12 -19 -7 -56 29 -25 24 -51 55 -59 70 -12 24 -12 27 4 31 9 2 22 0 27 -4 6 -4 16 -4 23 0z m-308 -19 c0 -20 -25 -38 -37 -26 -5 5 24 46 34 46 1 0 3 -9 3 -20z m530 4 c0 -8 -4 -13 -9 -10 -5 3 -14 -1 -20 -8 -10 -11 -9 -16 4 -24 14 -7 15 -18 9 -58 l-7 -49 -13 31 c-26 63 -26 78 1 107 30 31 35 33 35 11z m-330 -41 c8 -16 14 -31 16 -35 1 -5 2 -9 4 -10 1 -2 3 -15 4 -29 1 -23 -1 -25 -24 -19 -22 6 -25 12 -28 63 -3 62 7 73 28 30z m81 -65 c16 -23 29 -47 29 -54 0 -25 -48 7 -61 40 -29 77 -18 82 32 14z m289 1 c0 -19 -5 -29 -15 -29 -16 0 -18 12 -9 47 8 31 24 19 24 -18z m56 19 c10 -13 15 -20 10 -16 -5 4 -14 4 -20 -1 -7 -6 -11 -1 -12 15 -2 29 -2 29 22 2z m238 6 c3 -8 2 -13 -3 -9 -5 3 -25 -13 -43 -36 l-35 -41 -27 27 c-15 15 -25 29 -23 31 4 4 108 42 118 43 4 1 10 -6 13 -15z m-11324 -14 c-19 -13 -30 -13 -30 0 0 6 10 10 23 10 18 0 19 -2 7 -10z m10910 -16 c0 -8 -4 -12 -10 -9 -5 3 -10 13 -10 21 0 8 5 12 10 9 6 -3 10 -13 10 -21z m-11807 -30 c28 -12 37 -22 37 -41 0 -21 -3 -23 -22 -18 -13 4 -35 19 -50 32 -18 17 -33 23 -45 19 -9 -4 -14 -4 -11 -1 4 4 3 18 -2 30 -9 23 -9 23 23 9 18 -8 49 -21 70 -30z m925 -17 c8 -6 18 -5 30 4 15 13 16 12 3 -3 -7 -10 -10 -18 -5 -18 5 0 1 -5 -9 -11 -15 -9 -16 -13 -5 -26 7 -9 12 -18 11 -20 -2 -1 0 -3 5 -2 4 1 6 5 5 9 -1 4 7 6 17 3 11 -3 20 -14 20 -24 0 -30 -68 -27 -79 4 -5 12 -6 26 -4 30 3 5 -4 11 -15 14 -11 2 -23 12 -26 21 -3 10 -9 23 -12 30 -4 10 1 11 23 6 15 -4 34 -11 41 -17z m11055 -11 c6 -16 -2 -28 -14 -20 -12 7 -11 34 0 34 5 0 11 -6 14 -14z m-8791 -28 c-6 -6 -16 -7 -22 -3 -9 6 -9 9 1 16 17 10 34 0 21 -13z m-2127 2 c3 -5 -1 -10 -9 -10 -8 0 -18 5 -21 10 -3 6 1 10 9 10 8 0 18 -4 21 -10z m1120 -60 c0 -29 -3 -35 -20 -33 -11 1 -118 3 -237 3 -258 1 -282 11 -88 36 19 2 49 6 65 9 17 3 52 7 80 10 27 4 51 8 53 10 2 1 35 2 75 1 l72 -1 0 -35z m9874 -15 c-32 -45 -50 -55 -30 -16 7 13 8 22 1 26 -18 11 -10 24 18 28 15 2 31 5 35 6 5 0 -6 -19 -24 -44z m-559 16 c0 -14 -6 -17 -25 -13 -27 5 -33 17 -12 25 25 11 37 7 37 -12z m53 -17 c-8 -21 -23 -17 -23 6 0 13 5 18 14 14 8 -3 12 -12 9 -20z m-8483 -9 c0 -8 -7 -15 -15 -15 -9 0 -12 6 -9 15 4 8 10 15 15 15 5 0 9 -7 9 -15z m8330 8 c0 -9 -103 -103 -114 -103 -4 0 -6 11 -3 25 3 19 -1 29 -15 36 -20 11 -18 21 5 25 7 1 20 5 29 9 11 4 20 0 28 -15 13 -25 30 -18 23 10 -4 16 0 20 21 20 14 0 26 -3 26 -7z m1932 -20 c2 -10 6 -64 7 -119 l3 -102 -44 -7 c-24 -4 -64 -8 -91 -9 -26 0 -47 -5 -47 -11 0 -9 33 -12 139 -14 l34 -1 -8 -92 c-9 -119 -18 -142 -50 -135 -37 7 -40 -10 -6 -28 27 -13 29 -18 21 -42 -4 -16 -21 -67 -36 -115 -20 -65 -32 -88 -47 -92 -17 -4 -18 -7 -7 -21 11 -13 5 -32 -41 -121 -51 -99 -55 -105 -80 -100 -35 7 -43 -3 -22 -26 20 -23 15 -34 -64 -135 -54 -70 -66 -78 -95 -62 -26 14 -45 -3 -23 -21 25 -21 18 -36 -52 -100 -95 -87 -95 -87 -128 -40 -27 40 -55 47 -35 9 6 -11 14 -18 18 -15 4 2 8 -12 9 -31 2 -32 -3 -37 -65 -77 -72 -47 -126 -76 -139 -76 -5 0 -13 10 -18 21 -14 31 -31 20 -27 -17 3 -35 -5 -39 -151 -90 l-68 -23 -10 27 c-6 15 -20 52 -31 82 -12 30 -25 66 -31 80 -6 14 -11 28 -12 33 -2 4 -4 10 -5 15 -1 4 -2 11 -1 15 1 4 -4 18 -11 30 -7 12 -13 25 -14 30 -1 4 -2 8 -3 10 -2 1 -4 12 -6 23 -9 47 -26 77 -36 67 -7 -7 -5 -23 7 -49 9 -22 18 -42 19 -46 2 -5 4 -11 5 -15 1 -5 2 -12 1 -16 -1 -4 4 -18 11 -30 7 -12 13 -25 14 -29 1 -5 2 -9 4 -10 1 -2 3 -12 4 -23 2 -11 15 -55 30 -97 34 -100 34 -105 -11 -117 -53 -14 -153 -31 -178 -31 -29 0 -37 20 -85 208 -45 174 -69 259 -77 282 -3 8 -7 26 -9 40 -2 14 -6 36 -9 50 -7 26 64 420 75 420 4 0 17 -33 30 -72 12 -40 29 -80 37 -89 7 -9 11 -18 8 -21 -3 -3 -1 -18 5 -33 7 -19 14 -25 21 -18 6 6 6 19 -2 39 -7 16 -13 34 -15 39 -1 6 -13 44 -27 87 l-26 76 39 41 c22 22 42 36 45 31 4 -6 14 -5 28 5 12 8 25 15 29 15 7 0 49 -73 54 -92 1 -5 2 -11 3 -14 0 -3 6 -2 11 1 6 4 7 12 3 18 -10 16 -10 39 0 53 5 8 -2 20 -18 32 -30 24 -30 27 -5 76 25 50 14 68 -17 30 l-24 -29 6 30 c4 17 8 35 10 42 7 22 -14 24 -25 3 -15 -29 -23 -25 -42 22 -21 48 -11 68 32 68 27 0 58 24 43 33 -18 11 -69 10 -90 -1 -24 -13 -43 2 -25 20 6 6 8 16 5 23 -3 10 14 14 66 17 40 1 76 1 81 0 13 -5 44 -63 33 -61 -4 1 -11 0 -15 -1 -5 -1 -12 -3 -18 -4 -5 0 -10 -3 -9 -6 0 -3 -6 -18 -15 -34 -18 -35 -9 -57 11 -30 14 19 15 19 13 -1 -1 -11 -1 -23 0 -27 2 -8 6 -22 9 -34 0 -3 6 -2 11 1 8 5 8 11 0 20 -15 18 6 31 25 15 14 -11 19 -7 17 12 -1 3 5 12 13 18 21 17 19 43 -5 73 -26 33 -26 36 15 53 33 14 136 18 132 5 -1 -3 1 -7 6 -8 4 -2 6 0 5 5 -2 4 17 9 42 12 72 8 48 25 -44 30 -88 5 -98 9 -102 38 -1 9 -4 26 -7 38 -5 19 1 22 66 34 40 8 81 14 92 15 11 1 27 4 35 8 8 3 85 17 170 32 85 14 162 28 170 31 8 4 34 8 58 10 24 2 100 14 170 28 70 13 148 28 175 31 26 4 49 10 51 14 2 3 31 7 64 9 50 2 60 0 64 -15z m-1845 -36 c-5 -16 -61 -37 -75 -28 -16 10 -5 39 16 43 27 6 63 -4 59 -15z m-10664 -27 c18 0 27 -5 27 -15 0 -11 -11 -15 -37 -15 -67 0 -113 12 -113 28 0 12 9 13 48 8 26 -4 59 -7 75 -6z m110 -27 c6 -9 12 -11 20 -4 7 5 17 10 22 11 6 1 9 6 8 11 -2 5 6 9 17 9 11 0 20 -6 20 -14 0 -8 3 -22 6 -31 6 -14 -3 -16 -64 -14 -67 2 -71 3 -80 29 -9 25 -8 27 17 22 14 -3 30 -11 34 -19z m369 19 c38 -2 46 -5 42 -17 -5 -11 -22 -15 -64 -15 -33 0 -62 -5 -65 -10 -5 -8 -12 -7 -22 1 -17 14 -93 13 -107 -2 -17 -16 -49 -11 -42 7 3 9 6 19 6 24 0 16 53 18 252 12z m208 -6 c0 -2 3 -11 6 -19 8 -23 -125 -16 -138 7 -8 14 -1 16 62 16 38 0 70 -2 70 -4z m-1160 -15 c0 -10 -24 -21 -43 -21 -7 0 -3 7 7 15 22 17 36 19 36 6z m1535 -11 c-4 -6 -1 -17 5 -25 9 -11 17 -12 32 -4 15 8 17 14 8 24 -9 11 -7 12 12 8 13 -4 32 -12 43 -19 11 -6 34 -15 51 -19 36 -7 79 -45 52 -45 -9 0 -21 7 -28 15 -11 14 -15 14 -29 1 -17 -15 -70 -10 -71 7 0 4 -3 7 -7 6 -5 -1 -7 -5 -5 -10 3 -13 -6 -11 -39 8 -15 9 -31 23 -34 31 -5 14 1 32 11 32 3 0 2 -5 -1 -10z m5957 -130 c6 0 9 -2 6 -5 -9 -10 -53 15 -67 38 -11 17 -8 16 18 -6 18 -15 37 -27 43 -27z m-6743 23 c-21 -27 -32 -33 -63 -33 -22 0 -27 4 -22 16 3 9 6 20 6 25 0 5 21 9 46 9 43 0 45 -1 33 -17z m371 6 c115 -2 115 -2 40 -9 -134 -13 -250 -11 -250 3 0 9 14 12 48 10 26 -1 99 -3 162 -4z m4750 2 c0 -5 -7 -11 -15 -15 -9 -3 -15 0 -15 9 0 8 7 15 15 15 8 0 15 -4 15 -9z m1527 -10 c0 -11 -5 -17 -9 -15 -11 7 -10 34 1 34 6 0 9 -9 8 -19z m4328 -31 c22 -43 20 -45 -35 -42 -57 4 -64 19 -24 51 35 27 41 27 59 -9z m-4085 -14 c-8 -8 -13 -7 -20 4 -12 20 -1 33 16 19 11 -9 12 -15 4 -23z m4136 13 c0 -8 -2 -18 -4 -23 -5 -10 -22 14 -22 32 0 18 25 9 26 -9z m-6391 -18 c-3 -5 0 -13 6 -16 5 -4 8 -13 5 -21 -6 -17 10 -28 31 -20 12 5 13 9 4 20 -9 10 -9 16 -1 21 11 7 40 -11 38 -23 -2 -17 3 -23 12 -17 8 5 8 11 0 20 -8 10 -8 15 0 20 13 8 35 -10 35 -28 0 -8 24 -13 68 -15 59 -3 67 -5 57 -17 -7 -8 -17 -12 -24 -8 -17 11 -70 12 -83 2 -7 -7 -14 -6 -18 1 -3 5 -17 10 -30 10 -13 0 -27 -5 -30 -10 -5 -8 -11 -7 -20 0 -9 8 -20 8 -32 2 -10 -5 -32 -7 -49 -5 -18 3 -35 0 -39 -7 -5 -8 -11 -6 -20 7 -12 15 -17 16 -35 5 -13 -8 -27 -9 -36 -4 -14 8 -14 10 2 17 11 4 25 9 31 9 25 2 12 21 -14 22 -31 1 -56 -13 -47 -27 3 -5 0 -9 -7 -9 -7 0 -21 -7 -31 -17 -17 -15 -18 -15 -18 1 0 9 4 15 9 12 5 -3 14 1 21 9 10 12 9 16 -2 20 -8 3 -21 5 -29 3 -8 -2 -14 4 -14 12 0 11 9 14 38 12 21 -2 44 1 51 7 10 9 15 8 19 -2 6 -17 104 -12 132 8 24 17 28 18 20 6z m5469 -68 c-10 -32 -20 -50 -22 -40 -4 19 28 110 36 103 2 -3 -4 -31 -14 -63z m-5766 26 c-16 -10 -33 5 -23 21 5 8 11 8 21 -1 12 -10 12 -14 2 -20z m547 16 c6 -2 -14 -4 -43 -4 -29 -1 -51 3 -48 7 4 7 67 5 91 -3z m233 -14 c-28 -35 -56 -54 -68 -46 -16 10 -11 28 6 21 10 -4 25 5 42 24 34 38 51 39 20 1z m-1028 -33 c0 -6 -9 1 -20 15 -11 14 -20 29 -20 34 1 11 40 -37 40 -49z m205 43 c3 -6 -14 -11 -37 -13 -28 -2 -42 -7 -40 -15 1 -7 -4 -13 -12 -13 -8 0 -13 8 -12 18 1 12 13 19 41 23 22 3 43 7 47 7 4 1 9 -2 13 -7z m5530 -40 c-3 -12 -9 -20 -13 -17 -4 2 -17 0 -30 -5 l-24 -9 22 -27 c20 -26 20 -27 3 -43 -10 -9 -112 -75 -226 -146 -114 -71 -235 -146 -267 -166 -33 -21 -75 -44 -93 -52 l-34 -14 -36 93 c-57 143 -62 131 78 187 373 147 611 235 618 228 5 -4 6 -18 2 -29z m-4883 -7 c-7 -12 -11 -13 -17 -4 -4 7 -2 16 6 21 18 11 23 4 11 -17z m59 3 c-13 -13 -26 -3 -16 12 3 6 11 8 17 5 6 -4 6 -10 -1 -17z m159 5 c0 -10 -7 -19 -15 -19 -18 0 -19 9 -3 25 16 16 18 15 18 -6z m5625 1 c0 -6 3 -15 8 -19 9 -10 9 -52 -1 -58 -11 -6 -27 6 -35 26 -3 9 -18 18 -34 20 -16 2 -29 10 -31 20 -2 13 6 18 35 21 48 5 58 3 58 -10z m-9065 -17 c0 -2 3 -11 6 -19 8 -21 -23 -29 -41 -11 -22 22 -19 34 10 34 14 0 25 -2 25 -4z m-624 -53 c-3 -25 -8 -48 -10 -51 -7 -7 -241 -2 -407 8 -85 5 -197 10 -249 10 -70 1 -106 6 -135 20 l-40 19 95 1 c52 0 120 3 150 6 69 7 477 31 549 33 l54 1 -7 -47z m8883 15 c12 -31 6 -34 -25 -13 -21 13 -24 19 -13 26 22 13 29 11 38 -13z m-3299 -18 c10 -19 10 -20 -9 -8 -11 6 -17 16 -15 20 8 12 12 10 24 -12z m4030 5 c0 -8 -4 -15 -9 -15 -13 0 -22 16 -14 24 11 11 23 6 23 -9z m-6078 -15 c17 0 27 -5 26 -12 -3 -14 15 -14 1159 -20 417 -2 535 -6 545 -16 10 -10 0 -25 -57 -77 -69 -63 -71 -64 -127 -65 -31 0 -60 -5 -63 -10 -4 -6 -13 -7 -23 -1 -9 5 -42 8 -72 7 -47 -1 -55 -4 -55 -20 0 -16 8 -20 48 -22 26 -2 58 1 71 6 15 5 36 4 59 -4 l36 -12 -80 -97 c-46 -55 -112 -120 -155 -152 -106 -80 -124 -125 -72 -182 44 -47 110 -31 160 40 29 41 141 162 152 163 14 2 187 147 227 191 22 24 48 43 59 43 18 0 18 -1 0 -57 -17 -55 -50 -164 -170 -568 -28 -93 -55 -174 -60 -179 -16 -16 -55 -8 -270 56 -118 36 -339 103 -490 148 -151 46 -302 91 -335 101 -172 50 -257 79 -271 90 -9 7 -33 14 -53 15 -45 2 -294 79 -336 104 -16 10 -36 15 -42 13 -7 -3 -39 3 -70 12 -69 19 -278 83 -313 95 -14 5 -65 20 -115 35 -49 14 -142 42 -205 62 -63 19 -126 38 -140 42 -14 5 60 9 165 10 560 5 716 8 721 14 4 3 15 2 26 -4 10 -5 23 -7 29 -3 10 6 429 13 788 14 95 0 169 5 176 10 8 6 22 7 36 2 33 -12 228 -7 241 6 23 23 -7 29 -129 26 -70 -1 -130 -4 -133 -5 -3 -1 -9 0 -15 1 -14 3 -250 3 -457 -1 -98 -1 -180 0 -183 2 -3 3 -32 2 -65 -2 -33 -4 -88 -3 -122 1 -35 4 -67 5 -72 2 -5 -3 -111 -6 -236 -7 -125 -1 -232 -5 -238 -9 -6 -3 -13 -3 -16 2 -3 5 -58 7 -123 5 -65 -1 -219 -4 -343 -7 l-225 -4 -115 35 c-194 58 -365 114 -374 123 -6 6 -4 11 5 14 8 3 219 7 469 10 250 3 473 6 495 7 22 1 56 0 75 0 19 -1 163 0 320 1 l285 3 -1 23 c-1 17 2 20 9 13 6 -6 24 -11 39 -11z m-4417 0 c16 -7 13 -9 -17 -9 -21 -1 -38 4 -38 9 0 12 27 12 55 0z m9637 -43 c-8 -9 -4 -19 13 -35 14 -14 26 -19 30 -12 9 14 25 3 25 -17 0 -13 -3 -13 -15 -3 -8 7 -16 9 -17 4 0 -5 -2 -13 -3 -19 -1 -5 -5 -25 -9 -43 -5 -21 -4 -38 4 -47 7 -8 10 -21 7 -30 -9 -21 10 -29 21 -8 13 24 13 82 1 105 -14 26 4 22 31 -7 12 -13 25 -24 29 -23 69 8 58 -63 -17 -101 -26 -14 -56 -32 -67 -41 -11 -9 -51 -34 -90 -55 -38 -21 -81 -46 -95 -56 -41 -27 -291 -175 -339 -199 -43 -22 -45 -22 -59 -4 -24 33 -112 184 -112 194 0 13 49 48 190 135 69 43 150 94 180 113 45 29 215 133 280 171 18 10 26 -5 12 -22z m1013 -27 c22 -43 23 -51 10 -56 -8 -4 -22 -1 -30 6 -8 6 -18 9 -23 6 -10 -6 -13 17 -6 62 3 17 9 32 14 32 5 0 21 -23 35 -50z m-9031 -27 c32 -29 56 -53 54 -53 -2 0 -22 9 -44 19 -56 28 -109 75 -100 89 9 16 21 9 90 -55z m8946 46 c0 -18 -2 -19 -15 -9 -8 7 -15 16 -15 21 0 5 7 9 15 9 9 0 15 -9 15 -21z m-9070 -42 l44 -47 -47 0 -47 0 0 52 c0 28 1 49 3 47 1 -2 22 -26 47 -52z m9030 21 c35 -25 38 -38 11 -38 -23 0 -51 25 -51 46 0 19 6 18 40 -8z m-9673 -18 c16 -10 16 -11 -2 -6 -11 3 -74 7 -139 10 -66 3 -122 9 -125 12 -10 11 248 -4 266 -16z m-1041 -14 c-3 -17 -55 -96 -64 -96 -11 0 -82 60 -82 69 0 4 15 14 33 23 37 18 116 21 113 4z m229 2 c29 -1 57 2 63 6 6 3 14 2 17 -4 4 -6 30 -10 58 -10 92 1 100 0 111 -13 6 -8 27 -20 46 -27 19 -7 87 -38 150 -67 63 -30 142 -66 175 -80 33 -14 75 -34 93 -45 41 -25 40 -37 -17 -161 l-40 -88 -30 16 c-37 19 -47 5 -21 -28 11 -14 20 -28 20 -32 0 -10 -87 -142 -98 -149 -15 -9 -292 186 -292 206 0 5 -16 16 -37 24 -20 9 -52 28 -72 43 -38 30 -271 200 -307 225 -20 14 -21 18 -9 54 8 21 29 55 48 75 l34 38 109 -74 c60 -40 127 -86 148 -101 22 -14 46 -24 53 -21 8 2 12 1 9 -4 -3 -5 1 -14 8 -20 24 -20 27 5 3 26 -23 20 -175 124 -231 158 -18 11 -46 30 -62 43 -27 21 -27 23 -5 16 13 -3 47 -6 76 -6z m490 -23 c39 -1 84 -5 101 -10 20 -4 34 -3 38 4 4 6 12 9 17 5 6 -3 27 -8 47 -10 20 -2 48 -5 62 -7 14 -3 30 0 37 5 20 16 23 -6 8 -68 -24 -104 -31 -115 -62 -108 -16 4 -59 22 -98 39 -85 39 -246 111 -297 134 -53 23 -47 32 20 25 31 -4 89 -8 127 -9z m9850 -17 c-8 -39 -20 -54 -30 -39 -11 18 5 71 22 71 11 0 13 -7 8 -32z m91 4 c9 -6 44 -83 44 -97 0 -11 -74 -16 -97 -6 -25 11 -26 25 -7 94 5 17 40 23 60 9z m74 -31 c0 -11 -4 -23 -10 -26 -5 -3 -10 -2 -10 4 0 5 -3 16 -6 25 -4 11 -1 16 10 16 9 0 16 -8 16 -19z m50 -10 c0 -10 -7 -22 -16 -25 -12 -5 -15 -2 -10 10 3 8 6 20 6 25 0 5 5 9 10 9 6 0 10 -9 10 -19z m-9082 -11 c6 0 18 0 25 0 46 2 117 -37 117 -63 0 -8 -28 -47 -63 -87 -8 -8 -39 -47 -71 -87 -31 -39 -90 -96 -130 -127 -79 -59 -96 -89 -77 -139 12 -31 58 -57 99 -57 22 0 39 10 61 35 17 20 31 39 31 43 1 4 25 33 54 66 52 56 55 58 91 52 29 -6 35 -11 30 -24 -6 -16 -49 -157 -97 -322 -24 -84 -86 -220 -100 -220 -4 0 -13 -11 -18 -24 -16 -43 -162 -146 -206 -146 -20 0 -72 35 -101 68 -12 14 -30 26 -41 27 -25 2 -95 62 -82 70 6 3 10 14 10 24 0 10 11 28 25 41 14 13 24 29 21 35 -2 6 4 17 15 23 10 6 30 36 44 66 14 30 32 59 40 66 8 7 15 23 15 35 0 13 6 25 13 28 8 3 21 27 31 54 16 45 42 105 72 164 7 14 16 46 20 70 4 24 13 53 20 64 8 11 14 32 14 47 0 15 4 29 9 33 6 3 13 27 16 53 5 41 23 115 32 133 1 4 17 5 35 2 18 -2 39 -4 46 -3z m819 -8 c0 -10 -7 -19 -14 -19 -16 0 -17 9 -1 25 16 16 17 15 15 -6z m4394 -123 c52 -60 104 -124 117 -142 12 -18 28 -36 35 -42 14 -12 147 -170 197 -235 19 -25 84 -101 143 -170 155 -180 219 -254 295 -346 167 -202 188 -224 201 -219 9 4 11 0 7 -11 -8 -20 22 -56 38 -47 6 3 8 3 4 -2 -4 -4 5 -22 20 -40 15 -18 40 -49 55 -69 16 -20 33 -33 39 -30 6 4 8 3 4 -4 -3 -5 15 -34 42 -64 26 -29 76 -89 112 -133 36 -44 103 -125 150 -180 47 -55 97 -114 110 -131 14 -17 75 -90 135 -161 156 -184 219 -263 224 -275 9 -26 -91 21 -153 72 -46 38 -50 40 -67 24 -18 -16 -23 -14 -97 35 -43 28 -85 51 -93 51 -22 0 -116 63 -101 68 7 2 19 -1 26 -8 11 -8 16 -8 22 1 7 12 -31 49 -86 87 -14 9 -43 31 -65 48 -68 54 -266 158 -297 156 -10 0 -43 15 -75 34 -31 19 -61 34 -66 34 -4 0 -5 9 -2 21 8 23 -19 59 -44 59 -9 1 -38 14 -66 31 -84 49 -167 91 -233 115 -51 20 -405 238 -929 573 -86 55 -99 80 -77 144 8 23 28 85 44 137 16 52 57 185 90 295 34 110 75 245 92 301 l30 101 62 15 c33 9 62 16 62 17 1 0 44 -49 95 -110z m3899 97 c0 -16 -28 -42 -36 -33 -7 6 18 47 28 47 5 0 8 -6 8 -14z m-11306 -69 c14 -18 32 -50 41 -70 l15 -37 -44 0 c-49 0 -88 25 -91 58 0 11 -7 27 -14 36 -17 20 -5 41 15 25 11 -9 15 -8 20 5 10 25 31 19 58 -17z m3317 1 c16 -18 37 -42 47 -53 12 -14 86 -40 237 -83 121 -35 234 -69 250 -77 17 -8 44 -17 60 -21 76 -15 312 -88 326 -100 8 -8 28 -14 44 -14 24 0 275 -69 330 -90 11 -5 115 -36 230 -70 116 -34 257 -77 315 -95 58 -18 161 -50 230 -70 69 -21 184 -55 255 -77 131 -40 264 -80 410 -123 44 -13 109 -33 145 -43 36 -11 137 -41 225 -67 88 -26 166 -52 173 -58 20 -16 15 -44 -35 -209 l-47 -156 -306 4 c-168 3 -334 9 -370 15 -82 14 -104 10 -108 -19 l-3 -22 -162 5 c-89 3 -205 7 -257 10 -52 3 -160 7 -240 10 -80 3 -181 7 -225 10 -44 2 -143 7 -220 11 -77 3 -143 8 -147 11 -4 2 -65 6 -135 9 -71 3 -139 7 -153 9 -14 2 -31 4 -38 4 -7 1 -11 5 -8 10 8 13 -21 34 -39 27 -8 -3 -15 -12 -15 -21 0 -21 -85 -21 -94 0 -6 18 -37 20 -53 4 -8 -8 -85 -8 -290 0 -572 23 -543 21 -543 42 0 30 -21 33 -158 19 -199 -20 -313 -24 -323 -11 -5 6 -6 9 -3 6 13 -9 34 17 34 42 0 35 28 83 49 83 10 0 26 9 36 20 10 11 15 20 10 20 -4 0 -2 7 5 15 7 9 10 18 7 22 -4 3 -1 13 5 21 20 24 18 43 -8 54 -13 6 -24 16 -24 22 0 13 44 178 68 256 13 43 22 56 39 58 12 2 34 17 47 33 26 31 71 157 82 232 4 23 10 47 14 52 9 13 30 98 30 124 0 11 -14 36 -30 55 -30 34 -31 36 -18 80 9 31 24 53 46 69 32 24 41 25 129 12 30 -4 44 -2 50 8 10 17 30 25 66 26 20 1 37 -9 58 -31z m-497 -32 c-7 -36 -29 -56 -60 -56 -22 0 -53 -34 -68 -75 -17 -44 -79 -263 -91 -315 -11 -51 -10 -58 12 -92 13 -21 23 -42 23 -47 0 -34 -82 -288 -97 -298 -27 -20 -32 -16 -31 27 0 22 -7 52 -17 66 -13 21 -15 36 -9 73 5 25 7 54 6 63 -1 10 20 89 47 175 27 87 52 172 55 188 4 23 63 206 100 311 2 6 32 11 70 11 l67 0 -7 -31z m7601 -83 c-19 -61 -42 -116 -50 -123 -12 -10 -15 -10 -15 3 0 9 4 19 10 22 5 3 9 20 9 38 0 18 2 41 4 52 2 11 -2 30 -10 41 -13 20 -11 24 33 53 26 17 49 30 50 28 2 -2 -12 -53 -31 -114z m711 102 c-11 -8 -27 -15 -35 -15 -13 1 -12 4 3 15 11 8 27 15 35 15 13 -1 12 -4 -3 -15z m-10907 -24 c11 -20 5 -31 -16 -31 -7 0 -13 11 -13 25 0 29 15 33 29 6z m10943 -15 c16 -12 15 -21 -10 -154 -15 -78 -30 -142 -33 -142 -6 0 -73 260 -68 264 7 6 84 45 89 45 3 0 13 -5 22 -13z m-831 -48 c1 -13 0 -27 -1 -33 -1 -5 -3 -14 -4 -20 -2 -5 -6 -32 -11 -60 -4 -27 -11 -59 -16 -71 -7 -19 -167 -161 -289 -256 l-48 -38 -59 64 c-33 35 -69 77 -81 93 -26 37 -29 35 113 119 55 32 109 64 120 71 11 7 29 17 40 22 11 5 63 37 115 69 52 33 101 61 108 61 6 1 13 -9 13 -21z m659 15 c0 -3 -22 -76 -49 -162 -27 -86 -86 -274 -131 -419 -45 -144 -88 -278 -96 -297 -14 -34 -26 -47 -21 -22 1 9 -23 12 -97 11 -117 -2 -109 14 12 23 90 7 106 17 122 81 6 26 45 157 85 292 62 208 111 386 132 478 5 19 43 34 43 15z m-10770 -33 c0 -9 -32 -30 -46 -30 -4 0 1 9 11 20 19 21 35 26 35 10z m198 -5 c18 -13 20 -19 10 -35 -19 -29 5 -50 30 -27 18 16 24 13 125 -59 59 -42 107 -78 107 -80 0 -3 -38 -4 -85 -3 -46 1 -83 4 -82 8 1 3 -2 6 -8 6 -5 0 -9 -6 -7 -12 2 -8 -8 -13 -26 -13 -23 0 -32 6 -41 28 -16 38 -47 76 -54 66 -3 -5 3 -27 14 -48 10 -22 18 -41 16 -42 -9 -10 -78 -6 -90 5 -10 8 -17 9 -22 1 -3 -5 -26 -10 -50 -10 -24 0 -54 -4 -67 -9 -32 -12 -58 7 -47 34 4 11 8 40 8 65 1 43 3 46 46 69 28 15 49 21 55 15 5 -5 15 -33 22 -62 7 -29 18 -52 23 -50 11 3 11 10 0 79 -7 42 -5 47 14 52 11 3 21 1 21 -3 0 -5 10 -25 21 -45 15 -26 25 -33 33 -26 9 8 25 -2 56 -34 24 -24 47 -42 53 -38 5 3 -8 23 -29 44 -20 21 -41 36 -46 33 -5 -3 -7 0 -6 8 2 7 -4 12 -12 10 -8 -2 -12 0 -8 4 4 4 -4 20 -17 36 -14 16 -23 34 -19 39 8 14 37 11 62 -6z m10651 -160 c34 -135 39 -166 31 -200 -5 -22 -26 -125 -46 -230 -19 -104 -42 -221 -51 -259 l-15 -69 -77 7 c-42 3 -97 12 -123 18 l-46 13 23 85 c51 188 249 810 256 803 4 -5 25 -80 48 -168z m-716 -42 c-15 -42 -17 -45 -26 -26 -7 16 -5 28 9 47 29 39 35 31 17 -21z m-5763 -4 c129 -31 284 -89 288 -107 1 -9 -4 -12 -15 -9 -10 3 -27 8 -38 11 -11 3 -34 8 -50 10 -54 7 -167 41 -305 91 -52 19 -54 21 -46 33 4 6 30 4 68 -5 35 -8 79 -19 98 -24z m1828 3 c3 -18 -1 -22 -22 -22 -19 0 -26 5 -26 18 0 39 43 43 48 4z m-3478 -24 c0 -5 0 -13 0 -20 0 -6 -8 -4 -19 6 -11 10 -25 15 -30 11 -6 -3 -11 0 -11 8 0 11 8 13 30 8 17 -3 31 -9 30 -13z m7334 -45 c-7 -32 -16 -92 -20 -133 -10 -128 -51 -232 -86 -217 -7 3 -51 36 -97 73 l-84 68 84 78 c46 43 83 83 81 89 -1 6 2 7 9 4 12 -8 71 44 63 56 -3 5 1 6 9 4 7 -3 22 3 32 15 10 11 19 20 20 20 1 0 -4 -26 -11 -57z m-8176 30 c-5 -26 -38 -29 -38 -4 0 15 6 21 21 21 14 0 19 -5 17 -17z m2846 -89 c4 -11 -1 -13 -22 -8 -33 8 -36 10 -28 22 8 14 43 3 50 -14z m6198 -96 c-1 -4 22 -101 52 -215 29 -114 56 -224 59 -245 5 -36 5 -36 -33 -40 -22 -2 -73 -2 -115 0 -73 4 -75 5 -75 31 0 14 20 129 45 256 25 126 45 238 46 250 0 18 2 17 11 -5 6 -14 10 -28 10 -32z m-8392 -137 c0 -11 -4 -23 -10 -26 -6 -4 -10 5 -10 19 0 14 5 26 10 26 6 0 10 -9 10 -19z m-660 -326 c0 -26 -25 -45 -59 -45 -31 0 -25 25 12 49 41 27 47 26 47 -4z m378 -132 c-2 -14 -15 -19 -52 -21 -74 -5 -78 -1 -62 53 8 25 12 45 9 45 -2 0 4 13 13 29 l17 29 39 -59 c22 -32 38 -67 36 -76z m-649 14 c4 -12 -112 78 -131 101 -7 8 19 -9 57 -38 39 -29 72 -57 74 -63z m4970 78 c22 -32 25 -34 41 -20 15 14 19 13 36 -6 19 -22 19 -22 -4 -10 -18 9 -23 9 -26 -1 -17 -54 -16 -54 -43 -3 -13 28 -29 56 -35 63 -6 6 -7 12 -2 12 5 0 20 -16 33 -35z m182 -92 l24 -26 -32 19 c-18 10 -33 22 -33 26 0 15 17 8 41 -19z m-74 -45 c63 -38 127 -78 275 -174 l141 -92 -95 -7 c-80 -6 -99 -5 -121 10 -21 13 -29 14 -45 4 -17 -10 -50 -10 -169 0 -81 7 -149 14 -151 15 -1 2 17 62 40 134 47 148 52 153 125 110z m-3909 -304 c42 -5 59 -10 56 -19 -4 -9 -40 -12 -135 -11 -71 0 -129 4 -129 8 0 26 84 35 208 22z m-223 -14 c3 -5 3 -10 -2 -10 -4 0 -46 -7 -93 -16 -67 -12 -118 -14 -240 -8 -133 7 -147 9 -100 16 30 4 127 11 215 16 88 5 172 10 187 11 15 0 30 -3 33 -9z m354 -6 c2 -2 -7 -4 -22 -4 -14 0 -29 5 -32 10 -6 10 42 4 54 -6z m-939 -21 c-1 -15 -30 -46 -37 -40 -3 4 2 16 12 27 19 21 25 24 25 13z m6638 -2 c10 -6 10 -10 -3 -21 -8 -7 -15 -10 -15 -7 0 3 -3 12 -6 21 -7 17 3 20 24 7z m59 -65 c-2 -6 -12 -13 -23 -15 -15 -3 -16 -1 -6 11 6 8 9 18 5 22 -4 4 1 4 10 0 10 -3 16 -12 14 -18z m1325 -104 c-11 -37 -26 -88 -33 -114 -7 -27 -17 -48 -22 -48 -9 0 -11 -5 34 144 18 60 35 104 37 97 2 -6 -5 -42 -16 -79z m-1264 37 c39 -38 52 -61 35 -58 -20 3 -24 -2 -13 -15 6 -8 18 -12 25 -10 15 6 50 -40 41 -55 -6 -10 -100 79 -110 104 -3 8 -1 17 5 21 14 8 -9 34 -25 28 -7 -3 -13 2 -13 11 0 23 8 19 55 -26z m-1038 -50 c0 -26 -81 -36 -150 -18 -19 4 -50 9 -67 11 -18 1 -33 6 -33 11 0 5 56 7 125 5 69 -1 125 -5 125 -9z m562 -117 c15 -9 62 -40 105 -69 43 -28 108 -71 145 -95 62 -40 81 -58 59 -58 -4 0 -59 34 -122 75 -62 41 -114 75 -115 75 -6 0 -124 81 -124 85 0 10 26 3 52 -13z m596 1 c-2 -11 2 -17 11 -15 8 2 11 -3 8 -11 -3 -9 15 -34 45 -63 49 -48 120 -137 146 -183 l14 -24 -29 21 c-37 26 -61 54 -111 127 -23 33 -56 79 -73 102 -17 22 -28 46 -25 52 11 16 17 13 14 -6z m-738 -134 c14 -9 52 -34 85 -55 60 -39 95 -69 95 -81 0 -3 -9 2 -20 12 -12 11 -28 20 -37 21 -9 2 -19 8 -24 15 -4 7 -15 14 -24 15 -18 3 -55 31 -68 52 -5 7 -12 10 -17 7 -4 -3 -10 2 -14 10 -3 8 -12 15 -21 15 -8 0 -15 4 -15 10 0 11 26 3 60 -21z m330 -233 c0 4 12 -4 28 -18 35 -33 82 -63 82 -52 0 4 16 -7 35 -26 19 -19 35 -30 35 -26 0 4 14 -3 31 -16 32 -23 43 -31 117 -80 50 -34 68 -59 21 -31 -19 11 -61 35 -94 53 -33 17 -83 49 -112 71 -29 21 -56 39 -61 39 -5 0 -16 7 -23 16 -8 9 -31 27 -51 40 -21 14 -38 29 -38 35 0 8 5 7 15 -1 8 -7 15 -9 15 -4z m1507 -378 c54 -17 102 -31 107 -29 5 1 16 -5 25 -12 9 -8 36 -25 61 -37 25 -13 59 -33 76 -46 17 -13 36 -24 42 -24 22 0 150 -139 176 -191 38 -79 42 -132 16 -201 -12 -32 -23 -58 -25 -58 -14 0 -35 14 -35 25 0 6 -8 19 -18 28 -14 13 -21 14 -30 5 -14 -14 -10 -18 -47 55 -38 74 -110 147 -198 199 -42 26 -79 57 -97 83 -32 46 -90 102 -148 140 -34 22 -38 29 -34 60 3 21 10 35 18 35 8 0 58 -14 111 -32z m-105 -99 c47 -24 136 -111 119 -117 -6 -2 -17 0 -24 6 -7 5 -49 22 -95 37 -65 21 -81 30 -72 40 6 7 10 17 9 21 -7 39 6 42 63 13z m-3677 -9 c4 -6 1 -18 -6 -26 -10 -12 -14 -12 -20 -2 -5 7 -9 19 -9 26 0 15 26 16 35 2z m-690 -30 c0 -8 -8 -16 -17 -18 -13 -2 -18 3 -18 18 0 15 5 20 18 18 9 -2 17 -10 17 -18z m-3890 -12 c14 -6 25 -17 25 -25 0 -16 1 -16 -38 -2 -20 7 -29 15 -25 25 6 17 6 17 38 2z m-615 -28 c0 -19 -11 -26 -23 -14 -8 8 3 34 14 34 5 0 9 -9 9 -20z m4376 9 c10 -17 -13 -36 -27 -22 -12 12 -4 33 11 33 5 0 12 -5 16 -11z m-4413 -35 c-9 -23 -23 -16 -23 12 0 22 2 24 14 14 8 -6 12 -18 9 -26z m8907 -10 c36 -9 74 -22 85 -28 11 -6 22 -11 25 -11 43 -7 48 -15 45 -75 -4 -72 -35 -131 -95 -182 -59 -52 -137 -91 -164 -84 -18 4 -109 60 -135 83 -3 2 5 10 16 18 14 10 33 50 53 112 17 54 35 107 40 118 5 11 14 34 21 51 10 24 17 30 28 24 9 -5 45 -16 81 -26z m-8100 11 c0 -16 -45 -21 -54 -6 -8 12 4 21 31 21 14 0 23 -6 23 -15z m3925 -21 c9 -1 18 3 21 10 6 15 86 17 81 2 -3 -8 -60 -29 -111 -41 -10 -2 -24 -10 -32 -16 -8 -7 -17 -9 -21 -6 -3 4 -11 2 -18 -3 -6 -5 -32 -11 -58 -14 -26 -3 -51 -7 -56 -10 -5 -4 -12 -2 -15 3 -7 10 11 26 29 26 6 0 10 6 10 13 0 6 2 11 5 10 3 -1 16 4 29 11 31 17 81 31 78 23 -1 -4 3 -8 8 -9 6 -2 11 2 11 7 3 23 5 24 13 11 5 -8 17 -16 26 -17z m460 -25 c0 -7 -9 -15 -20 -18 -16 -3 -17 -1 -7 11 6 8 8 18 4 23 -4 4 0 6 8 3 8 -3 15 -11 15 -19z m3996 -88 c64 -50 141 -137 145 -164 1 -8 9 -30 19 -50 l17 -35 -41 -42 c-22 -23 -48 -58 -58 -78 -10 -20 -27 -39 -38 -41 -19 -3 -76 21 -107 47 -10 8 -46 14 -100 16 -72 1 -89 5 -127 30 l-44 28 53 30 c109 62 186 163 197 259 3 27 9 49 13 49 4 0 36 -22 71 -49z m-5258 -132 c43 -12 50 -39 15 -63 -30 -21 -71 -20 -99 3 l-23 18 22 12 c12 6 22 18 22 26 0 18 12 18 63 4z m759 -239 c-27 -16 -37 -20 -94 -36 -21 -6 -21 -4 6 24 17 19 41 32 60 34 50 5 60 -3 28 -22z m3668 -60 c0 -32 -20 -40 -50 -20 -13 9 -11 13 10 30 34 27 40 25 40 -10z m-3276 14 c9 -3 16 -13 16 -21 0 -10 -6 -13 -16 -9 -9 3 -22 6 -30 6 -8 0 -14 7 -14 15 0 16 17 19 44 9z m110 -30 c17 -7 22 -34 7 -34 -22 0 -39 13 -34 26 6 16 6 16 27 8z m4176 -38 c0 -18 -17 -29 -30 -21 -8 5 -7 11 1 21 15 18 29 18 29 0z m84 -47 c-3 -5 -22 -9 -42 -8 l-37 1 30 13 c30 13 59 10 49 -6z m-4964 -28 c0 -5 3 -17 7 -27 4 -12 2 -15 -8 -12 -15 5 -22 48 -8 48 5 0 9 -4 9 -9z m-33 -37 c0 -8 -10 -14 -22 -14 -18 0 -21 5 -18 24 4 21 8 23 22 14 10 -6 18 -17 18 -24z m-185 -26 c-9 -9 -12 -7 -12 12 0 19 3 21 12 12 9 -9 9 -15 0 -24z"
       id="path6" />
    <path
       d="M13605 6548 c-9 -24 -2 -93 10 -93 14 0 19 85 6 98 -7 7 -12 5 -16 -5z"
       id="path8" />
    <path
       d="M13307 6513 c-8 -16 -2 -83 8 -80 12 2 16 75 4 82 -4 3 -10 2 -12 -2z"
       id="path10" />
    <path
       d="M13066 6462 c-5 -8 7 -66 21 -102 3 -8 7 -24 8 -35 6 -40 37 -150 46 -161 5 -6 6 -14 3 -17 -8 -8 26 -146 37 -153 5 -3 7 -9 4 -14 -9 -15 15 -64 26 -53 6 6 6 19 -2 39 -6 16 -13 40 -15 54 -4 35 -26 123 -32 135 -3 5 -7 18 -8 30 -4 36 -35 150 -45 161 -5 6 -6 13 -3 16 7 7 -16 97 -27 103 -4 3 -10 1 -13 -3z"
       id="path12" />
    <path
       d="M13616 6431 c-8 -13 4 -155 14 -165 15 -15 23 21 16 72 -4 26 -7 57 -7 69 1 24 -14 39 -23 24z"
       id="path14" />
    <path
       d="M12815 6400 c-8 -13 54 -122 65 -115 11 7 3 31 -22 67 -10 14 -18 31 -18 36 0 16 -18 24 -25 12z"
       id="path16" />
    <path
       d="M12897 6254 c-3 -4 -2 -16 4 -26 8 -15 14 -17 22 -9 8 8 7 15 -4 26 -8 9 -18 13 -22 9z"
       id="path18" />
    <path
       d="M13634 6237 c-7 -20 -2 -47 11 -50 14 -3 19 43 6 56 -7 7 -12 6 -17 -6z"
       id="path20" />
    <path
       d="M13644 6126 c-8 -21 3 -49 16 -41 5 3 10 15 10 25 0 25 -18 36 -26 16z"
       id="path22" />
    <path
       d="M12977 6113 c-4 -6 0 -18 7 -28 8 -11 16 -14 19 -8 4 6 0 18 -7 28 -8 11 -16 14 -19 8z"
       id="path24" />
    <path
       d="M13654 6047 c-7 -20 -2 -47 11 -50 14 -3 19 43 6 56 -7 7 -12 6 -17 -6z"
       id="path26" />
    <path
       d="M12876 6002 c-3 -5 3 -17 13 -26 11 -10 22 -13 25 -8 3 5 -3 17 -13 26 -11 10 -22 13 -25 8z"
       id="path28" />
    <path
       d="M13665 5957 c-9 -22 -2 -62 10 -60 6 1 11 14 13 29 4 32 -14 56 -23 31z"
       id="path30" />
    <path
       d="M12926 5952 c-3 -5 5 -19 18 -31 13 -13 26 -18 30 -13 3 5 -5 19 -18 31 -13 13 -26 18 -30 13z"
       id="path32" />
    <path
       d="M13076 5932 c-3 -6 1 -15 8 -21 8 -7 17 -8 20 -3 3 6 -1 15 -8 21 -8 7 -17 8 -20 3z"
       id="path34" />
    <path
       d="M13205 5900 c-6 -9 4 -54 22 -100 4 -8 6 -18 5 -21 -3 -15 24 -87 33 -87 13 -1 10 35 -6 73 -7 17 -11 33 -11 38 3 13 -20 97 -29 102 -4 3 -10 1 -14 -5z"
       id="path36" />
    <path
       d="M12216 5882 c-3 -5 3 -17 13 -26 11 -10 22 -13 25 -8 3 5 -3 17 -13 26 -11 10 -22 13 -25 8z"
       id="path38" />
    <path
       d="M13016 5862 c-3 -5 5 -19 18 -31 13 -13 26 -18 30 -13 3 5 -5 19 -18 31 -13 13 -26 18 -30 13z"
       id="path40" />
    <path
       d="M13676 5863 c-8 -8 -8 -58 1 -66 3 -4 6 -28 7 -54 1 -27 6 -49 11 -51 12 -3 19 63 9 87 -4 9 -6 30 -5 47 2 31 -10 50 -23 37z"
       id="path42" />
    <path
       d="M12575 5819 c-9 -13 44 -71 57 -63 5 3 2 14 -8 25 -9 10 -21 16 -25 13 -5 -3 -6 1 -3 9 7 18 -12 32 -21 16z"
       id="path44" />
    <path
       d="M12336 5793 c-9 -9 35 -54 45 -47 5 3 9 9 9 13 0 12 -47 41 -54 34z"
       id="path46" />
    <path
       d="M12335 5560 c-7 -12 32 -33 45 -25 6 4 8 10 5 14 -7 13 -44 20 -50 11z"
       id="path48" />
    <path
       d="M12826 5431 c-8 -12 43 -53 56 -45 14 9 -13 36 -29 30 -8 -3 -11 -2 -8 3 3 5 1 12 -4 15 -5 4 -12 2 -15 -3z"
       id="path50" />
    <path
       d="M12065 5400 c-8 -13 7 -17 55 -16 25 1 52 -2 61 -8 20 -11 53 0 44 15 -4 5 -17 9 -28 8 -12 0 -24 0 -27 1 -15 7 -101 6 -105 0z"
       id="path52" />
    <path
       d="M12255 5380 c-3 -5 0 -13 9 -16 21 -8 71 -1 71 11 0 14 -72 19 -80 5z"
       id="path54" />
    <path
       d="M12385 5370 c-8 -12 20 -24 35 -15 6 3 8 11 5 16 -8 12 -32 12 -40 -1z"
       id="path56" />
    <path
       d="M12465 5360 c-8 -13 20 -24 41 -16 20 8 9 26 -16 26 -10 0 -22 -5 -25 -10z"
       id="path58" />
    <path
       d="M12555 5350 c-8 -13 20 -24 41 -16 20 8 9 26 -16 26 -10 0 -22 -5 -25 -10z"
       id="path60" />
    <path
       d="M12725 5331 c-8 -14 5 -19 50 -21 58 -3 62 -1 41 15 -22 17 -82 20 -91 6z"
       id="path62" />
    <path
       d="M12955 5210 c-4 -6 -3 -16 3 -22 6 -6 12 -6 17 2 4 6 3 16 -3 22 -6 6 -12 6 -17 -2z"
       id="path64" />
    <path
       d="M12035 5101 c-7 -12 12 -24 25 -16 11 7 4 25 -10 25 -5 0 -11 -4 -15 -9z"
       id="path66" />
    <path
       d="M12085 5090 c-7 -11 32 -29 62 -29 10 0 38 -5 62 -11 24 -6 46 -8 49 -5 3 2 11 0 18 -6 17 -14 48 -4 39 12 -4 6 -16 9 -26 6 -10 -3 -21 -2 -24 3 -5 7 -24 12 -105 25 -19 3 -42 8 -52 11 -9 3 -19 0 -23 -6z"
       id="path68" />
    <path
       d="M2001 6426 c-6 -7 -8 -15 -5 -18 3 -4 7 -44 9 -90 4 -100 3 -94 16 -81 12 12 18 82 8 88 -3 2 -4 26 -2 54 4 51 -6 71 -26 47z"
       id="path70" />
    <path
       d="M2284 6407 c-3 -9 -3 -20 0 -26 4 -5 3 -12 -1 -14 -13 -8 -15 -164 -3 -172 5 -3 12 0 15 7 9 24 12 123 5 143 -4 11 -2 28 4 37 8 13 7 21 -1 29 -10 10 -14 9 -19 -4z"
       id="path72" />
    <path
       d="M1777 6363 c-8 -13 12 -55 23 -48 5 3 10 12 10 19 0 17 -27 40 -33 29z"
       id="path74" />
    <path
       d="M2015 6160 c-4 -6 -3 -16 3 -22 6 -6 12 -6 17 2 4 6 3 16 -3 22 -6 6 -12 6 -17 -2z"
       id="path76" />
    <path
       d="M2017 5903 c-7 -11 12 -82 26 -101 19 -25 30 4 16 45 -15 44 -34 69 -42 56z"
       id="path78" />
    <path
       d="M1216 5762 c-3 -6 1 -15 8 -21 8 -7 17 -8 20 -3 3 6 -1 15 -8 21 -8 7 -17 8 -20 3z"
       id="path80" />
    <path
       d="M1547 5723 c-8 -13 27 -46 37 -36 4 4 4 0 1 -8 -7 -19 20 -45 30 -30 3 6 -9 27 -28 47 -19 21 -37 33 -40 27z"
       id="path82" />
    <path
       d="M1305 5511 c-7 -12 12 -24 25 -16 11 7 4 25 -10 25 -5 0 -11 -4 -15 -9z"
       id="path84" />
    <path
       d="M1335 5321 c-3 -6 3 -15 14 -21 12 -6 22 -6 26 -1 3 6 -3 15 -14 21 -12 6 -22 6 -26 1z"
       id="path86" />
    <path
       d="M1415 5300 c-7 -11 35 -31 49 -22 5 3 1 11 -9 19 -22 16 -32 16 -40 3z"
       id="path88" />
    <path
       d="M1495 5280 c-7 -11 22 -26 32 -16 3 3 12 1 19 -5 17 -14 48 -4 39 12 -4 6 -16 9 -26 6 -10 -3 -22 -1 -25 4 -7 12 -31 11 -39 -1z"
       id="path90" />
    <path
       d="M1605 5260 c-10 -16 2 -27 30 -26 23 2 36 15 18 17 -5 1 -16 5 -25 10 -10 6 -19 5 -23 -1z"
       id="path92" />
    <path
       d="M906 5101 c-4 -5 -2 -12 4 -16 5 -3 10 -3 10 1 0 3 6 1 14 -5 10 -8 16 -9 21 -1 3 5 4 11 1 11 -3 1 -9 2 -13 3 -5 1 -13 5 -20 9 -6 4 -14 3 -17 -2z"
       id="path94" />
    <path
       d="M1245 5010 c-3 -5 -4 -11 -1 -11 16 -4 26 -7 31 -9 3 -1 8 -3 13 -5 4 -1 15 -5 25 -10 10 -4 21 -5 24 -1 3 3 12 1 19 -5 8 -7 14 -7 19 1 3 5 4 11 1 11 -13 3 -22 6 -39 14 -10 4 -21 5 -24 1 -3 -3 -12 -1 -20 5 -7 6 -13 8 -13 4 0 -4 -6 -2 -14 4 -10 8 -16 9 -21 1z"
       id="path96" />
    <path
       d="M1395 4971 c-6 -11 1 -16 37 -25 36 -8 46 11 13 24 -33 12 -42 13 -50 1z"
       id="path98" />
    <path
       d="M725 4870 c-7 -12 5 -17 40 -16 17 1 29 5 28 11 -3 12 -61 16 -68 5z"
       id="path100" />
    <path
       d="M1055 4860 c-8 -13 20 -24 41 -16 20 8 9 26 -16 26 -10 0 -22 -5 -25 -10z"
       id="path102" />
    <path
       d="M1204 4849 c-7 -12 7 -16 53 -15 24 1 43 6 43 11 0 12 -89 15 -96 4z"
       id="path104" />
    <path
       d="M1525 4736 c-11 -8 -14 -16 -8 -19 6 -4 18 0 28 7 11 8 14 16 8 19 -6 4 -18 0 -28 -7z"
       id="path106" />
    <path
       d="M1475 4720 c-4 -6 -3 -16 3 -22 6 -6 12 -6 17 2 4 6 3 16 -3 22 -6 6 -12 6 -17 -2z"
       id="path108" />
    <path
       d="M1835 4330 c-4 -6 -3 -16 3 -22 6 -6 12 -6 17 2 4 6 3 16 -3 22 -6 6 -12 6 -17 -2z"
       id="path110" />
    <path
       d="M1761 4286 c-7 -8 -8 -17 -3 -20 6 -3 15 1 21 8 7 8 8 17 3 20 -6 3 -15 -1 -21 -8z"
       id="path112" />
    <path
       d="M2208 4063 c-7 -14 -3 -33 6 -33 12 -1 17 28 6 35 -5 3 -10 2 -12 -2z"
       id="path114" />
    <path
       d="M3046 4012 c-3 -5 5 -19 18 -31 13 -13 26 -18 30 -13 3 5 -5 19 -18 31 -13 13 -26 18 -30 13z"
       id="path116" />
    <path
       d="M2199 4006 c-1 -3 -2 -9 -3 -13 -1 -5 -5 -14 -9 -20 -5 -7 -5 -18 -2 -23 9 -14 28 -1 21 15 -2 7 0 17 6 23 6 6 6 12 -1 16 -6 4 -12 5 -12 2z"
       id="path118" />
    <path
       d="M2284 3996 c-8 -21 3 -49 16 -41 5 3 10 15 10 25 0 25 -18 36 -26 16z"
       id="path120" />
    <path
       d="M2754 3976 c-4 -9 -1 -29 6 -44 7 -15 14 -43 16 -64 2 -20 9 -49 16 -65 6 -15 12 -31 12 -35 1 -5 4 -8 9 -8 6 0 9 5 6 13 0 1 -2 11 -3 22 -5 40 -18 100 -24 109 -3 6 -7 24 -9 40 -4 38 -20 56 -29 32z"
       id="path122" />
    <path
       d="M3095 3951 c-3 -6 3 -15 14 -21 12 -6 22 -6 26 -1 3 6 -3 15 -14 21 -12 6 -22 6 -26 1z"
       id="path124" />
    <path
       d="M2425 3890 c-4 -6 -3 -16 3 -22 6 -6 12 -6 17 2 4 6 3 16 -3 22 -6 6 -12 6 -17 -2z"
       id="path126" />
    <path
       d="M2165 3860 c-4 -6 -3 -16 3 -22 6 -6 12 -6 17 2 4 6 3 16 -3 22 -6 6 -12 6 -17 -2z"
       id="path128" />
    <path
       d="M2987 3833 c-4 -6 0 -18 7 -28 8 -11 16 -14 19 -8 4 6 0 18 -7 28 -8 11 -16 14 -19 8z"
       id="path130" />
    <path
       d="M2304 3746 c-4 -10 -2 -22 4 -28 8 -8 13 -7 18 6 4 10 2 22 -4 28 -8 8 -13 7 -18 -6z"
       id="path132" />
    <path
       d="M2307 3693 c-8 -15 -2 -63 8 -63 12 0 16 58 5 65 -5 3 -10 2 -13 -2z"
       id="path134" />
    <path
       d="M3057 3694 c-9 -10 22 -66 33 -59 6 4 4 18 -5 36 -17 31 -18 32 -28 23z"
       id="path136" />
    <path
       d="M2487 3683 c-2 -4 0 -19 6 -33 12 -29 16 -45 22 -82 2 -15 10 -38 17 -50 6 -13 14 -34 16 -48 4 -29 21 -52 32 -45 10 6 1 45 -14 65 -7 8 -13 29 -15 45 -2 17 -8 36 -13 43 -6 6 -7 12 -4 12 4 0 1 10 -6 23 -6 12 -12 30 -13 40 -2 21 -21 42 -28 30z"
       id="path138" />
    <path
       d="M2315 3547 c-9 -22 -2 -62 10 -60 6 1 11 14 13 29 4 32 -14 56 -23 31z"
       id="path140" />
    <path
       d="M2328 3403 c-8 -17 -2 -78 7 -80 11 -3 15 76 4 83 -4 2 -9 1 -11 -3z"
       id="path142" />
    <path
       d="M14286 6241 c-10 -11 -13 -22 -8 -25 5 -3 17 3 26 13 10 11 13 22 8 25 -5 3 -17 -3 -26 -13z"
       id="path144" />
    <path
       d="M14141 6069 c-28 -34 -48 -65 -45 -71 4 -6 17 2 30 18 72 87 84 103 76 108 -5 3 -32 -22 -61 -55z"
       id="path146" />
    <path
       d="M13916 6069 c-10 -20 -13 -36 -7 -42 6 -6 16 3 26 23 11 21 13 36 7 42 -6 6 -15 -2 -26 -23z"
       id="path148" />
    <path
       d="M14493 6017 c-19 -24 -23 -36 -14 -41 5 -3 16 5 25 19 16 24 6 45 -11 22z"
       id="path150" />
    <path
       d="M14034 5937 c-48 -55 -55 -65 -46 -71 5 -3 26 14 46 38 36 45 36 75 0 33z"
       id="path152" />
    <path
       d="M14671 5856 c-13 -13 -18 -26 -13 -30 5 -3 19 5 31 18 13 13 18 26 13 30 -5 3 -19 -5 -31 -18z"
       id="path154" />
    <path
       d="M14599 5792 c-42 -38 -24 -49 20 -13 21 17 30 31 23 35 -6 4 -25 -6 -43 -22z"
       id="path156" />
    <path
       d="M14501 5706 c-18 -19 -29 -36 -23 -39 5 -4 23 9 41 27 18 19 29 36 23 39 -5 4 -23 -9 -41 -27z"
       id="path158" />
    <path
       d="M14376 5596 c-44 -40 -75 -76 -69 -79 6 -4 46 26 89 66 43 41 74 76 68 79 -5 3 -45 -27 -88 -66z"
       id="path160" />
    <path
       d="M3169 5987 c-29 -25 -50 -55 -41 -61 5 -3 23 10 40 29 31 32 31 58 1 32z"
       id="path162" />
    <path
       d="M2756 5982 c-5 -8 -8 -21 -22 -87 -4 -16 -13 -38 -21 -47 -8 -9 -12 -22 -8 -27 13 -21 36 -10 50 23 8 18 30 54 49 79 39 52 36 70 -5 31 l-28 -27 4 26 c5 25 -9 46 -19 29z"
       id="path164" />
    <path
       d="M3366 5811 c-15 -16 -23 -31 -18 -35 5 -3 21 8 36 23 15 16 23 31 18 35 -5 3 -21 -8 -36 -23z"
       id="path166" />
    <path
       d="M3665 5716 c-12 -8 -15 -18 -10 -27 7 -11 6 -12 -6 -2 -11 9 -24 3 -63 -31 -27 -24 -44 -46 -39 -49 10 -6 117 66 141 95 17 21 0 31 -23 14z"
       id="path168" />
    <path
       d="M2695 5700 c-4 -6 -3 -16 3 -22 6 -6 12 -6 17 2 4 6 3 16 -3 22 -6 6 -12 6 -17 -2z"
       id="path170" />
    <path
       d="M2689 5656 c-1 -3 -2 -9 -3 -13 -1 -5 -5 -13 -9 -19 -4 -7 0 -17 8 -24 8 -7 15 -11 16 -9 6 22 4 61 -3 65 -4 3 -9 3 -9 0z"
       id="path172" />
    <path
       d="M3126 5581 c-15 -16 -23 -31 -18 -35 5 -3 21 8 36 23 15 16 23 31 18 35 -5 3 -21 -8 -36 -23z"
       id="path174" />
    <path
       d="M2660 5545 c-11 -28 -8 -70 5 -70 4 0 9 7 11 15 1 8 5 27 9 41 9 36 -12 48 -25 14z"
       id="path176" />
    <path
       d="M3048 5511 c-23 -21 -30 -33 -22 -40 7 -8 20 -1 43 23 42 43 24 57 -21 17z"
       id="path178" />
    <path
       d="M3616 5461 c-4 -6 -12 -8 -20 -5 -18 7 -68 -14 -61 -26 6 -10 52 -3 70 11 6 4 13 8 18 8 8 1 11 11 4 17 -3 3 -8 1 -11 -5z"
       id="path180" />
    <path
       d="M2976 5441 c-10 -11 -13 -22 -8 -25 5 -3 17 3 26 13 10 11 13 22 8 25 -5 3 -17 -3 -26 -13z"
       id="path182" />
    <path
       d="M3065 5241 c-7 -12 12 -24 25 -16 11 7 4 25 -10 25 -5 0 -11 -4 -15 -9z"
       id="path184" />
    <path
       d="M14820 5423 c-8 -2 -22 -7 -30 -10 -8 -3 -22 -5 -32 -4 -9 1 -19 -3 -22 -8 -4 -6 -13 -8 -21 -5 -8 3 -19 2 -26 -2 -7 -4 -30 -9 -52 -11 -22 -2 -46 -8 -52 -13 -7 -5 -15 -7 -18 -4 -3 4 -14 3 -24 -1 -19 -8 -25 -9 -107 -19 -56 -7 -69 -13 -60 -28 4 -6 21 -7 43 -3 20 4 50 9 66 12 17 3 35 9 41 14 6 5 14 6 17 3 3 -4 14 -3 24 1 10 4 35 9 56 10 21 2 44 8 51 14 7 6 16 8 19 5 3 -4 14 -3 24 1 10 5 22 7 27 6 5 -1 16 1 25 5 9 3 31 8 49 10 39 4 54 12 47 25 -7 10 -21 11 -45 2z"
       id="path186" />
    <path
       d="M14225 4971 c-7 -12 12 -24 25 -16 11 7 4 25 -10 25 -5 0 -11 -4 -15 -9z"
       id="path188" />
    <path
       d="M14896 4893 c-4 -4 -48 -8 -99 -8 -54 0 -92 -4 -92 -10 0 -12 174 -15 181 -3 3 4 9 6 14 3 5 -3 11 -1 14 4 8 12 -8 23 -18 14z"
       id="path190" />
    <path
       d="M14435 4881 c-8 -14 23 -34 45 -28 11 3 22 2 24 -1 7 -11 162 2 156 13 -3 6 -43 11 -90 12 -47 1 -95 4 -107 7 -13 2 -25 1 -28 -3z"
       id="path192" />
    <path
       d="M14255 4860 c-3 -5 -2 -11 2 -13 16 -9 163 -2 166 8 3 12 -161 17 -168 5z"
       id="path194" />
    <path
       d="M13969 4688 c-7 -23 -5 -39 6 -48 19 -15 29 4 15 30 -9 18 -18 25 -21 18z"
       id="path196" />
    <path
       d="M14037 4543 c-4 -6 0 -18 7 -28 8 -11 16 -14 19 -8 4 6 0 18 -7 28 -8 11 -16 14 -19 8z"
       id="path198" />
    <path
       d="M13885 4360 c-4 -6 -3 -16 3 -22 6 -6 12 -6 17 2 4 6 3 16 -3 22 -6 6 -12 6 -17 -2z"
       id="path200" />
    <path
       d="M13905 4320 c-3 -5 1 -23 10 -40 8 -16 15 -32 15 -35 0 -3 7 -19 15 -35 8 -16 15 -31 14 -32 -6 -9 24 -48 32 -42 6 4 4 15 -6 30 -8 13 -13 24 -10 24 3 0 -2 15 -12 33 -9 17 -18 37 -19 42 -4 20 -24 65 -28 65 -3 0 -8 -4 -11 -10z"
       id="path202" />
    <path
       d="M14175 4251 c-7 -12 12 -24 25 -16 11 7 4 25 -10 25 -5 0 -11 -4 -15 -9z"
       id="path204" />
    <path
       d="M14205 4220 c-8 -13 3 -30 20 -30 23 0 27 18 6 30 -13 7 -22 7 -26 0z"
       id="path206" />
    <path
       d="M13746 4122 c-5 -9 20 -96 46 -159 6 -16 12 -31 12 -35 1 -5 4 -8 9 -8 6 0 9 5 6 13 0 1 -2 11 -3 22 -3 28 -47 158 -56 168 -4 5 -10 4 -14 -1z"
       id="path208" />
    <path
       d="M14008 4084 c-9 -14 11 -56 22 -49 13 8 13 18 -3 40 -8 10 -16 14 -19 9z"
       id="path210" />
    <path
       d="M14037 4004 c-9 -10 32 -86 43 -79 6 4 1 23 -10 46 -22 41 -23 43 -33 33z"
       id="path212" />
    <path
       d="M14106 3851 c-7 -11 28 -96 43 -106 6 -3 9 -10 6 -15 -8 -13 24 -72 35 -65 9 5 -1 42 -18 69 -3 6 -7 16 -8 21 -3 16 -45 105 -49 105 -2 0 -6 -4 -9 -9z"
       id="path214" />
    <path
       d="M8694 4515 c-9 -23 -1 -28 62 -29 64 -2 101 15 68 31 -10 5 -43 11 -72 12 -40 2 -53 -1 -58 -14z"
       id="path216" />
    <path
       d="M3506 4291 c-7 -11 64 -62 76 -55 5 3 3 12 -3 21 -18 21 -67 44 -73 34z"
       id="path218" />
    <path
       d="M3626 4211 c-3 -5 5 -16 19 -25 24 -16 45 -6 22 11 -24 19 -36 23 -41 14z"
       id="path220" />
    <path
       d="M5195 3301 c-7 -12 12 -24 25 -16 11 7 4 25 -10 25 -5 0 -11 -4 -15 -9z"
       id="path222" />
    <path
       d="M796 6901 c-4 -5 -2 -12 4 -16 5 -3 10 -3 10 1 0 3 6 1 14 -5 10 -8 16 -9 21 -1 3 5 4 11 1 11 -3 1 -9 2 -13 3 -5 1 -13 5 -20 9 -6 4 -14 3 -17 -2z"
       id="path224" />
    <path
       d="M15923 6080 c-12 -15 -25 -39 -28 -53 -6 -22 -3 -28 19 -38 14 -7 29 -10 32 -7 3 3 4 32 2 65 l-3 59 -22 -26z"
       id="path226" />
    <path
       d="M6691 2813 c-12 -9 -13 -15 -5 -23 14 -15 288 -19 291 -5 2 6 -10 10 -25 11 -15 0 -38 5 -53 11 -14 6 -37 9 -52 6 -15 -3 -35 -2 -44 2 -30 12 -95 11 -112 -2z"
       id="path228" />
    <path
       d="M7025 2800 c-9 -15 13 -40 35 -40 26 0 43 23 28 38 -15 15 -55 16 -63 2z"
       id="path230" />
    <path
       d="M7657 2772 c-14 -15 -15 -21 -5 -29 17 -12 252 -11 256 2 1 6 -1 10 -5 10 -5 0 -19 7 -33 16 -25 15 -113 19 -126 6 -11 -10 -49 -8 -60 3 -7 7 -16 4 -27 -8z"
       id="path232" />
    <path
       d="M4435 1839 c-7 -11 55 -50 67 -42 12 7 -18 40 -43 46 -10 3 -21 1 -24 -4z"
       id="path234" />
  </g>
  <g
     fill="#cfcfcf"
     stroke="none"
     id="g236">
    <path
       d="M14110 6820 c-8 -16 -6 -22 14 -35 13 -9 37 -17 52 -18 15 -1 36 -10 46 -19 23 -23 35 -23 47 1 14 25 -5 49 -44 55 -16 2 -31 5 -32 6 -2 2 -7 3 -12 4 -6 0 -16 7 -22 14 -19 18 -37 15 -49 -8z"
       id="path240" />
    <path
       d="M13535 6731 c-8 -14 13 -53 26 -46 13 9 11 31 -5 44 -10 8 -16 9 -21 2z"
       id="path244" />
    <path
       d="M13596 6711 c-17 -19 -17 -20 3 -30 22 -12 31 -4 27 22 -4 26 -12 28 -30 8z"
       id="path246" />
    <path
       d="M13652 6710 c-15 -38 -9 -41 97 -52 28 -2 35 1 42 20 7 19 4 25 -17 34 -21 10 -31 9 -52 -3 -25 -14 -28 -13 -44 6 -17 20 -17 20 -26 -5z"
       id="path248" />
    <path
       d="M14395 6703 c-17 -26 -17 -27 5 -45 25 -20 46 -23 55 -8 9 15 25 2 25 -19 0 -19 24 -39 97 -77 37 -20 43 -21 54 -8 25 30 17 55 -25 86 -23 16 -41 33 -41 38 0 18 -14 21 -37 9 -12 -6 -20 -8 -15 -4 10 12 -22 45 -38 39 -7 -3 -16 -1 -20 5 -12 20 -42 11 -60 -16z"
       id="path250" />
    <path
       d="M13176 6681 c-9 -15 23 -36 36 -23 5 5 7 15 4 21 -9 13 -33 14 -40 2z"
       id="path252" />
    <path
       d="M3185 6650 c-10 -17 22 -47 35 -34 7 7 4 16 -9 28 -14 12 -21 14 -26 6z"
       id="path254" />
    <path
       d="M13974 6648 c-17 -28 160 -103 204 -87 12 5 22 12 22 17 0 15 -24 32 -44 32 -11 0 -38 9 -60 19 -51 24 -113 33 -122 19z"
       id="path256" />
    <path
       d="M2675 6610 c-4 -6 -3 -16 3 -22 6 -6 12 -6 17 2 4 6 3 16 -3 22 -6 6 -12 6 -17 -2z"
       id="path258" />
    <path
       d="M2524 5988 c-13 -21 -13 -36 1 -48 21 -18 42 27 22 47 -12 12 -16 13 -23 1z"
       id="path262" />
    <path
       d="M3761 5876 c-13 -15 -5 -26 20 -26 26 0 32 17 10 29 -14 8 -22 7 -30 -3z"
       id="path264" />
    <path
       d="M10452 5868 c-20 -20 -14 -46 14 -64 24 -16 26 -16 45 3 20 19 20 19 -1 46 -23 29 -39 34 -58 15z"
       id="path266" />
    <path
       d="M3914 5829 c-10 -17 13 -36 27 -22 12 12 4 33 -11 33 -5 0 -12 -5 -16 -11z"
       id="path268" />
    <path
       d="M5788 5780 c-19 -15 -21 -22 -12 -37 16 -27 50 -28 68 -2 17 24 14 34 -14 49 -14 7 -24 5 -42 -10z"
       id="path270" />
    <path
       d="M4065 5780 c-10 -17 12 -37 25 -24 8 8 6 15 -4 23 -10 9 -16 9 -21 1z"
       id="path272" />
    <path
       d="M4215 5730 c-4 -6 -3 -16 3 -22 6 -6 12 -6 17 2 4 6 3 16 -3 22 -6 6 -12 6 -17 -2z"
       id="path274" />
    <path
       d="M4305 5691 c-7 -12 12 -24 25 -16 11 7 4 25 -10 25 -5 0 -11 -4 -15 -9z"
       id="path276" />
    <path
       d="M4354 5679 c-3 -6 -1 -16 4 -21 13 -13 45 8 36 23 -7 12 -31 11 -40 -2z"
       id="path278" />
    <path
       d="M2057 5573 c-10 -10 13 -33 33 -33 20 0 43 23 33 33 -3 4 -18 7 -33 7 -15 0 -30 -3 -33 -7z"
       id="path280" />
    <path
       d="M1905 5560 c-10 -16 16 -43 28 -31 11 11 2 41 -12 41 -5 0 -13 -5 -16 -10z"
       id="path282" />
    <path
       d="M1762 5508 c-18 -18 -15 -43 8 -63 31 -28 45 -7 26 39 -17 40 -17 41 -34 24z"
       id="path284" />
    <path
       d="M2031 5496 c-9 -10 -9 -16 -1 -21 17 -10 37 12 24 25 -8 8 -15 6 -23 -4z"
       id="path286" />
    <path
       d="M1986 5442 c-8 -14 20 -34 41 -30 28 5 22 33 -9 36 -14 2 -29 -1 -32 -6z"
       id="path288" />
    <path
       d="M2215 5440 c-11 -17 5 -32 21 -19 7 6 11 15 8 20 -7 12 -21 11 -29 -1z"
       id="path290" />
    <path
       d="M4980 5415 c-10 -12 -9 -16 3 -20 18 -7 94 -1 103 8 4 4 13 2 20 -4 17 -14 48 -4 39 12 -4 6 -16 9 -26 6 -10 -3 -22 -1 -25 4 -9 15 -100 11 -114 -6z"
       id="path292" />
    <path
       d="M4925 5401 c-7 -12 12 -24 25 -16 11 7 4 25 -10 25 -5 0 -11 -4 -15 -9z"
       id="path294" />
    <path
       d="M9913 5317 c-28 -29 -66 -64 -83 -79 -20 -17 -29 -32 -24 -40 4 -7 3 -10 -1 -5 -10 9 -45 -21 -45 -39 0 -7 4 -16 10 -19 12 -7 215 195 215 214 0 28 -21 19 -72 -32z"
       id="path296" />
    <path
       d="M2414 5326 c-4 -10 -2 -22 4 -28 8 -8 13 -7 18 6 4 10 2 22 -4 28 -8 8 -13 7 -18 -6z"
       id="path298" />
    <path
       d="M5265 5270 c-9 -10 -21 -18 -25 -17 -4 1 -19 -13 -35 -31 -20 -24 -25 -36 -17 -44 11 -11 58 29 100 84 19 24 -2 31 -23 8z"
       id="path300" />
    <path
       d="M4940 5252 l-22 -17 21 -19 c20 -18 22 -18 41 -1 25 23 25 32 1 45 -15 7 -24 5 -41 -8z"
       id="path302" />
    <path
       d="M5320 5255 c-19 -23 -1 -39 21 -19 10 9 16 21 13 25 -8 13 -20 11 -34 -6z"
       id="path304" />
    <path
       d="M2524 5236 c-9 -23 0 -51 16 -51 10 0 15 10 15 29 0 32 -21 47 -31 22z"
       id="path306" />
    <path
       d="M13343 5234 c-9 -23 23 -44 60 -41 44 3 44 24 1 42 -46 19 -53 19 -61 -1z"
       id="path308" />
    <path
       d="M2386 5221 c-4 -6 -13 -8 -20 -5 -8 3 -17 0 -21 -6 -10 -16 10 -34 27 -24 7 5 20 9 28 9 18 0 20 27 3 32 -6 2 -14 0 -17 -6z"
       id="path310" />
    <path
       d="M4876 5211 c-20 -22 -14 -41 13 -41 24 0 45 25 37 45 -8 21 -29 19 -50 -4z"
       id="path312" />
    <path
       d="M9440 5195 c-20 -24 4 -45 26 -24 13 14 13 17 1 27 -11 10 -17 9 -27 -3z"
       id="path314" />
    <path
       d="M4815 5156 c-19 -28 -13 -46 14 -46 27 0 47 28 35 48 -17 26 -32 25 -49 -2z"
       id="path316" />
    <path
       d="M5117 5129 c-21 -32 -23 -40 -11 -49 11 -10 17 -4 30 29 9 23 22 40 29 39 8 -2 13 1 12 7 -5 23 -38 8 -60 -26z"
       id="path318" />
    <path
       d="M9481 5116 c-41 -15 -49 -31 -24 -45 14 -7 29 -4 58 12 21 12 38 26 39 31 2 14 -36 15 -73 2z"
       id="path320" />
    <path
       d="M9671 5104 c-25 -32 -25 -34 -7 -59 12 -16 19 -18 43 -10 36 13 40 60 7 82 -20 13 -24 12 -43 -13z m44 -34 c-3 -5 -13 -10 -21 -10 -8 0 -14 5 -14 10 0 6 9 10 21 10 11 0 17 -4 14 -10z"
       id="path322" />
    <path
       d="M4783 5109 c-16 -16 -17 -41 -1 -57 17 -17 26 -15 38 7 14 26 -18 69 -37 50z"
       id="path324" />
    <path
       d="M4375 5100 c-4 -7 -3 -16 3 -22 14 -14 45 -2 40 15 -6 16 -34 21 -43 7z"
       id="path326" />
    <path
       d="M2471 5087 c-34 -42 3 -62 127 -68 29 -1 57 -8 63 -15 12 -14 197 -18 214 -4 17 14 82 15 98 1 10 -8 17 -9 22 -1 3 5 35 10 70 10 35 0 67 5 70 10 5 8 11 7 21 -1 8 -6 43 -13 79 -15 74 -3 91 8 75 50 l-10 26 -137 2 c-76 1 -172 2 -213 3 -41 1 -90 -1 -107 -6 -20 -4 -35 -3 -39 3 -4 6 -21 7 -43 3 -20 -4 -40 -7 -46 -7 -49 4 -149 13 -185 18 -35 5 -49 2 -59 -9z"
       id="path328" />
    <path
       d="M4215 5090 c-11 -17 5 -32 21 -19 7 6 11 15 8 20 -7 12 -21 11 -29 -1z"
       id="path330" />
    <path
       d="M9541 5086 c-16 -19 -25 -73 -12 -80 13 -9 2 -37 -21 -54 -22 -16 -23 -32 -4 -57 12 -16 16 -17 30 -6 9 7 13 18 9 24 -4 7 6 2 21 -11 40 -31 101 -46 136 -33 22 7 32 6 41 -5 26 -31 68 3 48 39 -6 11 -6 24 1 36 7 13 7 22 0 26 -16 10 -32 -5 -27 -24 5 -19 5 -19 -69 -27 -37 -4 -61 -1 -83 10 -53 28 -77 98 -50 148 11 21 -5 33 -20 14z"
       id="path332" />
    <path
       d="M2100 5063 c-38 -26 -46 -56 -17 -61 24 -5 70 26 63 43 -2 7 2 16 10 19 17 7 10 26 -9 25 -7 0 -28 -12 -47 -26z"
       id="path334" />
    <path
       d="M12927 5083 c-8 -13 -1 -83 8 -83 11 0 16 78 5 85 -5 3 -11 2 -13 -2z"
       id="path336" />
    <path
       d="M3646 5047 c-26 -19 -13 -52 32 -82 29 -19 56 -26 123 -31 63 -5 88 -3 94 5 11 18 -42 69 -79 76 -17 4 -41 13 -53 21 -34 21 -95 28 -117 11z"
       id="path338" />
    <path
       d="M5004 5046 c-28 -22 -7 -40 30 -26 23 9 26 13 16 25 -15 19 -21 19 -46 1z"
       id="path340" />
    <path
       d="M2150 5025 c-9 -11 -10 -19 -3 -26 7 -7 14 -5 23 6 9 11 10 19 3 26 -7 7 -14 5 -23 -6z"
       id="path342" />
    <path
       d="M13225 5030 c-4 -7 -3 -16 3 -22 14 -14 45 -2 40 15 -6 16 -34 21 -43 7z"
       id="path344" />
    <path
       d="M13634 4996 c-15 -11 -16 -17 -7 -27 9 -9 18 -8 38 5 25 17 26 36 1 36 -7 0 -21 -6 -32 -14z"
       id="path348" />
    <path
       d="M4056 4991 c-3 -5 1 -14 8 -20 16 -13 32 2 21 19 -8 12 -22 13 -29 1z"
       id="path350" />
    <path
       d="M9634 4988 c-3 -4 -3 -9 0 -9 15 -4 26 -7 31 -9 18 -8 50 -2 50 10 0 15 -73 22 -81 8z"
       id="path352" />
    <path
       d="M1814 4969 c-10 -17 13 -36 27 -22 12 12 4 33 -11 33 -5 0 -12 -5 -16 -11z"
       id="path354" />
    <path
       d="M2785 4946 c-3 -9 -7 -23 -10 -32 -8 -24 13 -44 47 -44 32 0 92 53 85 74 -2 6 -29 12 -60 14 -45 2 -58 0 -62 -12z"
       id="path356" />
    <path
       d="M3027 4942 c-8 -10 -8 -19 0 -30 8 -14 28 -17 109 -17 196 0 428 16 443 31 13 11 13 14 0 18 -8 3 -133 7 -277 8 -210 2 -266 0 -275 -10z"
       id="path358" />
    <path
       d="M13000 4940 c-17 -31 3 -51 27 -27 16 16 16 18 1 33 -15 15 -17 15 -28 -6z"
       id="path360" />
    <path
       d="M2985 4930 c-3 -6 -16 -8 -29 -4 -24 6 -52 -18 -41 -36 9 -15 31 -12 45 5 12 14 15 14 30 0 22 -20 31 -8 19 23 -9 24 -15 27 -24 12z"
       id="path362" />
    <path
       d="M5015 4920 c-4 -6 -3 -16 3 -22 6 -6 12 -6 17 2 4 6 3 16 -3 22 -6 6 -12 6 -17 -2z"
       id="path364" />
    <path
       d="M12982 4878 c-19 -24 -44 -98 -39 -118 3 -11 0 -18 -7 -17 -6 1 -10 -9 -8 -24 1 -17 -3 -29 -14 -33 -13 -5 -14 -9 -3 -22 10 -12 10 -15 -2 -12 -8 2 -14 -5 -14 -17 0 -11 7 -20 15 -20 8 0 14 6 12 13 -1 8 2 11 8 7 5 -3 13 2 16 12 3 10 10 26 15 36 7 13 6 23 -3 35 -7 9 -8 13 -2 9 7 -4 16 -1 21 6 16 21 45 127 39 142 -7 18 -20 19 -34 3z"
       id="path366" />
    <path
       d="M9353 4843 c-8 -21 5 -29 49 -28 36 1 43 4 43 20 0 17 -7 20 -44 20 -25 0 -46 -5 -48 -12z"
       id="path368" />
    <path
       d="M2054 4836 c-9 -24 12 -44 28 -28 10 10 8 16 -5 29 -15 15 -17 15 -23 -1z"
       id="path370" />
    <path
       d="M13063 4834 c-9 -23 11 -38 26 -20 13 16 7 36 -10 36 -5 0 -12 -7 -16 -16z"
       id="path372" />
    <path
       d="M4534 4797 c-8 -21 13 -64 33 -69 25 -7 63 8 63 24 0 8 -7 24 -16 36 -17 25 -71 31 -80 9z"
       id="path374" />
    <path
       d="M12786 4791 c-16 -17 -14 -20 24 -55 44 -40 75 -44 75 -10 0 11 6 28 12 36 11 12 10 18 -5 32 -21 18 -34 12 -25 -12 4 -10 -1 -8 -15 6 -27 27 -44 28 -66 3z"
       id="path376" />
    <path
       d="M9539 4793 c-1 -5 -1 -12 0 -17 1 -5 -5 -17 -14 -26 -15 -17 -14 -20 22 -44 37 -25 38 -26 56 -7 20 20 16 41 -8 41 -7 0 -16 7 -19 16 -3 9 -11 12 -18 8 -10 -6 -11 -5 -1 8 7 8 10 18 6 21 -9 9 -23 9 -24 0z"
       id="path380" />
    <path
       d="M2251 4776 c-8 -10 -8 -16 3 -25 10 -9 16 -8 26 3 12 15 6 36 -9 36 -5 0 -14 -6 -20 -14z"
       id="path382" />
    <path
       d="M9085 4770 c-3 -5 0 -13 7 -15 25 -10 258 0 258 10 0 14 -256 19 -265 5z"
       id="path384" />
    <path
       d="M5535 4750 c-8 -12 20 -24 35 -15 6 3 8 11 5 16 -8 12 -32 12 -40 -1z"
       id="path386" />
    <path
       d="M9464 4737 c-8 -22 11 -46 26 -31 7 7 5 17 -4 30 -14 18 -15 18 -22 1z"
       id="path388" />
    <path
       d="M9704 4736 c-15 -11 -16 -17 -7 -27 9 -9 18 -8 38 5 25 17 26 36 1 36 -7 0 -21 -6 -32 -14z"
       id="path390" />
    <path
       d="M2886 4731 c-9 -15 23 -36 36 -23 5 5 7 15 4 21 -9 13 -33 14 -40 2z"
       id="path392" />
    <path
       d="M2967 4733 c-7 -12 22 -75 32 -69 16 10 7 71 -11 74 -9 2 -18 -1 -21 -5z"
       id="path394" />
    <path
       d="M5645 4730 c-3 -5 -2 -11 2 -13 12 -7 47 -2 53 7 7 11 -48 17 -55 6z"
       id="path396" />
    <path
       d="M2789 4721 c-1 -3 -1 -10 0 -14 1 -5 -3 -6 -9 -2 -13 8 -52 -14 -45 -26 7 -10 108 -13 118 -2 4 3 3 11 -2 17 -5 6 -9 16 -8 21 2 10 -52 16 -54 6z"
       id="path398" />
    <path
       d="M5725 4721 c-7 -12 12 -24 25 -16 11 7 4 25 -10 25 -5 0 -11 -4 -15 -9z"
       id="path400" />
    <path
       d="M2665 4700 c-4 -6 -3 -16 3 -22 6 -6 12 -6 17 2 4 6 3 16 -3 22 -6 6 -12 6 -17 -2z"
       id="path402" />
    <path
       d="M4617 4699 c-27 -16 -20 -35 26 -74 56 -49 124 -82 139 -67 8 8 -6 28 -52 72 -75 73 -90 81 -113 69z"
       id="path404" />
    <path
       d="M9614 4685 c-8 -19 9 -40 24 -31 13 8 9 39 -6 44 -7 2 -15 -4 -18 -13z"
       id="path408" />
    <path
       d="M2084 4679 c-9 -16 12 -33 31 -25 14 5 15 9 5 21 -15 18 -26 19 -36 4z"
       id="path410" />
    <path
       d="M2186 4661 c-8 -12 29 -43 39 -34 4 5 5 2 1 -5 -12 -21 20 -25 49 -6 26 17 26 18 9 31 -11 8 -27 12 -36 9 -10 -2 -21 0 -24 5 -7 11 -31 12 -38 0z"
       id="path412" />
    <path
       d="M9643 4644 c-9 -23 11 -38 26 -20 13 16 7 36 -10 36 -5 0 -12 -7 -16 -16z"
       id="path414" />
    <path
       d="M2115 4641 c-7 -12 12 -24 25 -16 11 7 4 25 -10 25 -5 0 -11 -4 -15 -9z"
       id="path416" />
    <path
       d="M2695 4639 c-7 -10 5 -16 27 -15 10 1 18 6 18 11 0 12 -38 16 -45 4z"
       id="path418" />
    <path
       d="M2070 4604 c-9 -10 -10 -18 -2 -26 12 -12 32 -2 32 17 0 21 -16 26 -30 9z"
       id="path420" />
    <path
       d="M2344 4579 c-10 -17 13 -36 27 -22 12 12 4 33 -11 33 -5 0 -12 -5 -16 -11z"
       id="path422" />
    <path
       d="M4063 4574 c-21 -16 -21 -15 35 -19 23 -1 45 -5 49 -8 3 -4 14 -2 25 4 14 8 16 14 9 23 -15 17 -95 18 -118 0z"
       id="path424" />
    <path
       d="M4881 4576 c-14 -16 -7 -22 42 -38 48 -14 187 -20 202 -8 7 6 19 8 27 5 20 -8 45 22 30 37 -7 7 -20 7 -44 -1 -62 -20 -160 -15 -229 13 -9 4 -21 0 -28 -8z"
       id="path426" />
    <path
       d="M4226 4571 c-3 -5 0 -13 7 -18 16 -13 105 -15 112 -3 9 14 -28 30 -47 19 -11 -6 -19 -6 -23 1 -8 12 -42 13 -49 1z"
       id="path428" />
    <path
       d="M5305 4571 c-7 -12 12 -24 25 -16 11 7 4 25 -10 25 -5 0 -11 -4 -15 -9z"
       id="path430" />
    <path
       d="M5401 4536 c-19 -20 -21 -28 -11 -46 15 -29 55 -24 54 7 0 12 6 25 13 27 8 3 11 2 8 -3 -3 -5 -1 -12 4 -15 19 -12 20 12 1 29 -11 10 -20 15 -20 10 0 -4 -6 -2 -13 4 -11 8 -19 5 -36 -13z"
       id="path432" />
    <path
       d="M9370 4545 c-10 -13 -11 -18 -1 -28 10 -9 15 -8 26 7 23 31 -1 50 -25 21z"
       id="path434" />
    <path
       d="M2466 4502 c-3 -4 4 -23 15 -42 15 -25 23 -30 32 -21 9 9 7 18 -5 38 -18 30 -33 39 -42 25z"
       id="path436" />
    <path
       d="M2111 4481 c-16 -28 14 -51 36 -28 13 13 14 19 3 31 -17 21 -27 20 -39 -3z"
       id="path438" />
    <path
       d="M5274 4449 c-3 -6 -2 -15 4 -21 6 -6 8 -17 5 -24 -6 -17 24 -31 38 -17 6 6 3 21 -7 41 -16 33 -28 40 -40 21z"
       id="path444" />
    <path
       d="M2232 4418 c-17 -17 -15 -32 8 -53 27 -24 45 -9 31 27 -12 33 -25 40 -39 26z"
       id="path448" />
    <path
       d="M5020 4406 c-6 -16 -15 -24 -24 -20 -17 6 -31 -12 -16 -21 5 -3 16 -3 23 2 6 4 18 8 26 8 16 0 25 41 11 50 -6 3 -14 -5 -20 -19z"
       id="path450" />
    <path
       d="M4825 4391 c-7 -13 32 -34 50 -28 7 3 17 1 23 -5 6 -6 12 -6 16 0 3 6 2 13 -4 17 -5 3 -10 3 -10 0 0 -3 -10 1 -22 9 -26 18 -44 20 -53 7z"
       id="path452" />
    <path
       d="M4925 4336 c-3 -9 -7 -23 -10 -32 -3 -9 -2 -20 1 -25 9 -16 34 11 34 37 0 27 -18 42 -25 20z"
       id="path454" />
    <path
       d="M4719 4326 c-3 -13 -6 -22 -14 -39 -4 -11 -3 -23 3 -29 8 -8 13 -7 18 6 4 9 4 20 0 23 -3 3 -1 12 5 19 7 8 7 14 -1 19 -5 3 -11 4 -11 1z"
       id="path456" />
    <path
       d="M2450 4235 c-18 -22 -30 -84 -17 -92 16 -9 47 35 47 68 0 33 -13 44 -30 24z"
       id="path458" />
    <path
       d="M6476 4232 c-3 -6 -2 -13 4 -17 5 -3 10 -3 10 1 0 3 7 1 15 -6 9 -7 18 -10 22 -7 3 4 12 2 19 -3 6 -6 16 -10 20 -8 5 1 20 -4 34 -12 14 -8 95 -38 180 -67 320 -110 356 -122 411 -129 34 -4 247 -60 284 -74 49 -19 52 5 4 36 -24 15 -46 27 -49 27 -3 -1 -10 3 -16 8 -20 16 -307 115 -404 139 -112 27 -180 41 -221 45 -25 2 -79 13 -119 24 -40 11 -76 18 -81 16 -4 -3 -11 0 -14 6 -4 5 -13 8 -21 5 -7 -3 -16 -1 -20 5 -3 6 -12 8 -19 5 -7 -2 -17 0 -23 6 -6 6 -12 6 -16 0z"
       id="path460" />
    <path
       d="M4865 4210 c-4 -6 -3 -16 3 -22 6 -6 12 -6 17 2 4 6 3 16 -3 22 -6 6 -12 6 -17 -2z"
       id="path462" />
    <path
       d="M5194 4196 c-4 -10 -2 -22 4 -28 8 -8 13 -7 18 6 4 10 2 22 -4 28 -8 8 -13 7 -18 -6z"
       id="path464" />
    <path
       d="M4946 4169 c-6 -16 -3 -46 6 -55 4 -3 12 4 18 16 10 18 9 25 -4 38 -13 13 -16 13 -20 1z"
       id="path466" />
    <path
       d="M5176 4142 c-3 -6 1 -15 8 -21 8 -7 17 -8 20 -3 3 6 -1 15 -8 21 -8 7 -17 8 -20 3z"
       id="path468" />
    <path
       d="M8788 4139 c-36 -21 -16 -79 27 -79 43 0 59 44 27 73 -21 19 -30 20 -54 6z"
       id="path470" />
    <path
       d="M5145 3870 c-4 -6 -3 -16 3 -22 6 -6 12 -6 17 2 4 6 3 16 -3 22 -6 6 -12 6 -17 -2z"
       id="path474" />
    <path
       d="M5140 3774 c-6 -14 -10 -40 -10 -59 0 -19 -4 -36 -9 -39 -12 -8 -24 -82 -16 -96 11 -19 45 20 45 51 0 16 9 44 19 62 22 39 29 76 18 95 -13 20 -37 14 -47 -14z"
       id="path476" />
    <path
       d="M12625 3670 c-4 -6 -3 -16 3 -22 6 -6 12 -6 17 2 4 6 3 16 -3 22 -6 6 -12 6 -17 -2z"
       id="path478" />
    <path
       d="M4697 3663 c-8 -13 -5 -63 3 -68 4 -3 13 2 20 10 7 8 9 15 5 15 -4 0 -2 6 4 14 10 12 8 17 -8 25 -11 6 -22 8 -24 4z"
       id="path480" />
    <path
       d="M3764 3649 c-10 -17 13 -36 27 -22 12 12 4 33 -11 33 -5 0 -12 -5 -16 -11z"
       id="path482" />
    <path
       d="M4565 3510 c-15 -16 -16 -23 -6 -33 10 -9 16 -7 32 12 31 38 7 57 -26 21z"
       id="path484" />
    <path
       d="M9036 3481 c-8 -12 55 -41 90 -41 29 0 38 14 19 30 -20 17 -101 25 -109 11z"
       id="path486" />
    <path
       d="M4843 3454 c-6 -16 27 -69 43 -69 16 0 16 36 0 60 -19 29 -34 32 -43 9z"
       id="path490" />
    <path
       d="M5071 3456 c-14 -16 -9 -46 7 -46 5 0 15 7 22 16 11 12 11 18 -2 30 -13 13 -16 13 -27 0z"
       id="path492" />
    <path
       d="M4295 3346 c-19 -15 -19 -17 8 -20 6 0 12 -10 12 -21 0 -13 7 -20 20 -20 16 0 20 7 20 35 0 27 -4 36 -20 38 -11 1 -29 -4 -40 -12z"
       id="path498" />
    <path
       d="M4524 3346 c-8 -21 3 -49 16 -41 5 3 10 15 10 25 0 25 -18 36 -26 16z"
       id="path500" />
    <path
       d="M4695 3230 c-8 -13 20 -24 41 -16 20 8 9 26 -16 26 -10 0 -22 -5 -25 -10z"
       id="path504" />
    <path
       d="M9585 3160 c-4 -6 -3 -16 3 -22 6 -6 12 -6 17 2 4 6 3 16 -3 22 -6 6 -12 6 -17 -2z"
       id="path506" />
    <path
       d="M2564 2998 c-6 -9 -4 -10 26 -11 11 -1 19 3 18 8 -4 12 -37 14 -44 3z"
       id="path508" />
    <path
       d="M8180 2995 c-10 -12 -9 -16 5 -21 23 -9 40 10 22 25 -11 9 -17 8 -27 -4z"
       id="path510" />
    <path
       d="M9486 2932 c-9 -16 44 -46 57 -33 7 7 7 14 2 20 -16 15 -53 22 -59 13z"
       id="path512" />
    <path
       d="M9955 2921 c-7 -12 12 -24 25 -16 11 7 4 25 -10 25 -5 0 -11 -4 -15 -9z"
       id="path516" />
    <path
       d="M12951 2862 c-13 -25 2 -38 19 -16 9 10 10 18 3 25 -8 8 -14 5 -22 -9z"
       id="path518" />
    <path
       d="M10264 2753 c-5 -19 13 -19 -362 -12 -98 1 -147 -2 -154 -9 -7 -7 -10 -12 -7 -13 18 -2 87 -8 159 -14 47 -3 89 -10 94 -15 5 -5 19 -4 33 1 14 5 30 6 36 2 7 -4 23 -9 37 -10 14 -2 46 -8 73 -14 26 -6 54 -9 62 -5 8 3 17 1 20 -3 3 -5 20 -5 39 -1 22 5 38 4 45 -3 6 -6 11 -7 11 -3 0 5 6 3 14 -3 8 -7 17 -8 20 -3 9 16 -1 45 -17 48 -9 1 -30 18 -47 38 -36 40 -50 45 -56 19z"
       id="path522" />
    <path
       d="M4456 2741 c-3 -5 0 -14 8 -20 10 -8 16 -8 25 2 6 8 8 17 4 20 -9 10 -31 9 -37 -2z"
       id="path524" />
    <path
       d="M8877 2743 c-4 -3 -2 -12 4 -19 7 -8 7 -14 -1 -19 -8 -5 -8 -10 0 -20 9 -11 15 -11 37 0 22 12 29 11 49 -1 20 -14 25 -14 48 1 21 14 24 21 15 36 -5 11 -14 17 -20 14 -5 -4 -7 -11 -4 -16 4 -5 -6 -4 -22 2 -15 5 -37 8 -50 4 -31 -7 -38 -7 -38 4 0 14 -11 22 -18 14z"
       id="path526" />
    <path
       d="M10455 2631 c-7 -12 12 -24 25 -16 11 7 4 25 -10 25 -5 0 -11 -4 -15 -9z"
       id="path528" />
    <path
       d="M10486 2612 c-5 -9 60 -61 131 -106 23 -14 47 -35 53 -47 7 -11 14 -18 17 -16 5 6 63 -34 383 -263 119 -85 207 -144 250 -168 102 -56 213 -120 254 -147 30 -20 45 -3 19 20 -44 39 -350 255 -362 255 -4 0 -18 11 -31 25 -12 13 -27 22 -33 18 -5 -3 -20 7 -32 23 -13 16 -27 29 -32 29 -4 0 -24 12 -43 26 -51 39 -145 103 -225 155 -38 25 -81 54 -95 63 -14 10 -33 20 -43 24 -9 4 -43 24 -75 45 -54 37 -115 72 -126 72 -3 0 -7 -4 -10 -8z"
       id="path530" />
    <path
       d="M4389 2568 c-1 -5 -2 -11 -3 -15 -1 -5 -5 -13 -9 -20 -4 -6 -4 -18 -1 -27 3 -8 -1 -25 -9 -37 -9 -12 -13 -27 -10 -34 2 -8 0 -23 -6 -34 -8 -14 -8 -22 0 -27 12 -7 29 7 32 27 2 8 6 20 11 27 4 7 5 16 2 19 -3 3 -2 11 3 17 18 23 22 71 7 91 -9 11 -16 17 -17 13z"
       id="path532" />
    <path
       d="M8835 2410 c-6 -10 34 -30 60 -30 26 0 26 20 0 30 -33 13 -52 13 -60 0z"
       id="path534" />
    <path
       d="M4331 2348 c-5 -13 -6 -29 -3 -36 2 -7 -4 -19 -14 -27 -15 -11 -17 -16 -6 -26 18 -19 42 9 49 58 6 46 -12 68 -26 31z"
       id="path536" />
    <path
       d="M4289 2228 c-6 -28 -6 -79 0 -83 20 -12 43 48 28 73 -7 10 -26 17 -28 10z"
       id="path538" />
    <path
       d="M11595 2111 c-6 -10 54 -60 102 -85 18 -9 53 -30 78 -47 34 -23 50 -28 58 -20 8 8 6 16 -6 29 -12 13 -14 21 -6 29 8 8 5 14 -10 23 -24 12 -45 5 -34 -13 3 -6 -9 -1 -28 11 -72 45 -148 81 -154 73z"
       id="path540" />
    <path
       d="M12036 2091 c-8 -12 41 -54 54 -46 8 5 5 15 -11 31 -24 25 -35 29 -43 15z"
       id="path542" />
    <path
       d="M12364 2006 c-18 -14 -18 -15 -1 -21 19 -8 50 12 41 26 -7 13 -17 11 -40 -5z"
       id="path544" />
    <path
       d="M8681 1956 c-11 -27 -5 -74 11 -93 13 -16 29 -7 21 12 -3 9 1 15 10 15 25 0 31 21 8 27 -14 3 -21 13 -21 29 0 33 -18 40 -29 10z"
       id="path546" />
    <path
       d="M12205 1939 c-8 -13 40 -33 60 -25 9 3 15 11 13 18 -5 14 -65 20 -73 7z"
       id="path548" />
    <path
       d="M12147 1782 c-27 -28 -27 -42 -1 -42 19 0 49 49 37 61 -6 6 -19 -1 -36 -19z"
       id="path550" />
    <path
       d="M4161 1708 c-13 -34 2 -45 94 -74 91 -28 128 -28 133 -1 6 29 -18 49 -55 45 -21 -3 -34 1 -38 10 -2 7 -10 12 -17 11 -7 -2 -30 5 -52 14 -50 22 -55 21 -65 -5z"
       id="path552" />
    <path
       d="M8367 1724 c-3 -3 -13 -7 -24 -8 -11 -2 -17 -10 -15 -20 3 -15 0 -16 -18 -6 -23 12 -44 5 -33 -13 4 -7 0 -6 -10 2 -15 12 -21 9 -19 -11 1 -3 -5 -9 -13 -12 -8 -3 -14 -2 -14 2 3 19 -2 23 -16 12 -8 -7 -15 -10 -15 -6 0 4 -15 -1 -32 -11 -18 -9 -40 -17 -48 -17 -8 -1 -14 -7 -12 -15 3 -12 0 -12 -12 -1 -9 7 -16 11 -17 9 -17 -70 -1 -112 39 -104 91 16 135 26 145 32 7 4 17 9 22 10 32 8 132 46 142 55 7 5 17 7 22 4 11 -7 84 28 101 49 18 22 1 39 -19 21 -10 -9 -20 -14 -23 -11 -3 3 -18 -1 -34 -10 -41 -21 -50 -19 -64 15 -13 32 -24 43 -33 34z"
       id="path554" />
    <path
       d="M12041 1576 c-7 -8 -8 -17 -3 -20 6 -3 15 1 21 8 7 8 8 17 3 20 -6 3 -15 -1 -21 -8z"
       id="path556" />
    <path
       d="M3986 1572 c-3 -6 1 -15 8 -21 8 -7 17 -8 20 -3 3 6 -1 15 -8 21 -8 7 -17 8 -20 3z"
       id="path558" />
    <path
       d="M12095 1570 c-3 -5 -3 -10 1 -10 4 0 0 -6 -11 -13 -12 -9 -14 -16 -7 -21 14 -8 55 31 47 44 -8 13 -22 13 -30 0z"
       id="path560" />
    <path
       d="M4145 1550 c-7 -12 22 -32 40 -28 9 2 16 8 15 13 -1 13 -48 26 -55 15z"
       id="path562" />
    <path
       d="M3635 1531 c-7 -12 12 -24 25 -16 11 7 4 25 -10 25 -5 0 -11 -4 -15 -9z"
       id="path564" />
    <path
       d="M4795 1521 c-7 -12 12 -24 25 -16 11 7 4 25 -10 25 -5 0 -11 -4 -15 -9z"
       id="path566" />
    <path
       d="M3685 1500 c-11 -17 5 -32 21 -19 7 6 11 15 8 20 -7 12 -21 11 -29 -1z"
       id="path568" />
    <path
       d="M4005 1480 c-3 -5 0 -13 9 -16 21 -8 61 -1 61 11 0 14 -62 19 -70 5z"
       id="path570" />
    <path
       d="M7425 1460 c-11 -19 16 -40 51 -40 40 0 54 18 29 37 -22 16 -71 17 -80 3z"
       id="path572" />
    <path
       d="M12155 1420 c-8 -13 3 -30 20 -30 23 0 27 18 6 30 -13 7 -22 7 -26 0z"
       id="path574" />
    <path
       d="M7402 1371 l-32 -39 31 -26 c39 -33 79 -33 118 0 57 48 40 82 -51 99 -30 6 -37 3 -66 -34z"
       id="path576" />
    <path
       d="M12104 1388 c-6 -9 -4 -10 26 -11 11 -1 19 3 18 8 -4 12 -37 14 -44 3z"
       id="path578" />
    <path
       d="M8384 1266 c-4 -10 0 -24 8 -32 13 -13 16 -13 26 -1 9 11 8 18 -8 32 -18 17 -20 17 -26 1z"
       id="path580" />
    <path
       d="M8485 1190 c-8 -12 20 -24 35 -15 6 3 8 11 5 16 -8 12 -32 12 -40 -1z"
       id="path582" />
    <path
       d="M12249 1177 c-1 -4 -2 -11 -3 -16 0 -5 -4 -13 -8 -17 -16 -16 -5 -24 90 -70 53 -26 109 -56 124 -66 31 -21 48 -17 43 10 -1 9 2 22 7 29 5 7 5 14 -2 18 -5 3 -10 3 -10 -1 0 -4 -8 0 -17 8 -22 19 -110 58 -116 51 -6 -6 -66 24 -89 45 -10 8 -19 12 -19 9z"
       id="path584" />
    <path
       d="M11917 1134 c-3 -3 -12 -7 -21 -8 -21 -3 -59 -54 -53 -70 8 -20 64 -31 82 -16 8 7 15 28 15 46 0 35 8 42 27 23 6 -6 17 -8 23 -4 7 5 8 11 2 17 -10 10 -67 19 -75 12z"
       id="path586" />
    <path
       d="M8583 1104 c-11 -30 12 -47 95 -71 94 -28 115 -25 110 14 -3 25 -10 29 -83 50 -96 27 -114 28 -122 7z"
       id="path588" />
    <path
       d="M12055 1100 c-3 -6 1 -12 9 -15 9 -3 23 -7 31 -10 23 -7 28 13 6 24 -25 14 -38 14 -46 1z"
       id="path590" />
    <path
       d="M12855 1080 c-9 -10 -14 -24 -10 -30 9 -15 27 -1 21 17 -3 8 -2 11 3 8 5 -3 12 -1 15 4 12 19 -12 20 -29 1z"
       id="path592" />
    <path
       d="M12226 1071 c-4 -5 4 -18 17 -28 13 -10 26 -26 30 -35 9 -24 30 -23 52 2 18 19 17 20 -21 36 -21 9 -47 20 -56 25 -10 5 -19 5 -22 0z"
       id="path594" />
    <path
       d="M12891 1036 l-22 -23 36 -32 c42 -37 92 -42 119 -12 16 18 16 20 -5 34 -16 11 -28 13 -46 6 -32 -12 -33 -12 -27 6 6 15 -11 45 -25 45 -4 0 -17 -11 -30 -24z"
       id="path596" />
    <path
       d="M12824 1036 c-4 -10 -2 -22 4 -28 8 -8 13 -7 18 6 4 10 2 22 -4 28 -8 8 -13 7 -18 -6z"
       id="path598" />
    <path
       d="M13136 1011 c-3 -5 0 -14 8 -20 10 -8 16 -8 25 2 6 8 8 17 4 20 -9 10 -31 9 -37 -2z"
       id="path600" />
    <path
       d="M8505 999 c-7 -10 5 -16 27 -15 10 1 18 6 18 11 0 12 -38 16 -45 4z"
       id="path602" />
    <path
       d="M11925 990 c-10 -17 22 -47 35 -34 7 7 4 16 -9 28 -14 12 -21 14 -26 6z"
       id="path604" />
    <path
       d="M11873 974 c-8 -21 26 -49 41 -34 7 7 7 16 0 27 -15 24 -33 27 -41 7z"
       id="path606" />
    <path
       d="M12416 982 c-3 -6 1 -15 8 -21 8 -7 17 -8 20 -3 3 6 -1 15 -8 21 -8 7 -17 8 -20 3z"
       id="path608" />
    <path
       d="M8575 931 c-7 -12 12 -24 25 -16 11 7 4 25 -10 25 -5 0 -11 -4 -15 -9z"
       id="path610" />
    <path
       d="M8805 911 c-7 -13 17 -24 40 -19 9 1 16 8 16 13 0 14 -48 19 -56 6z"
       id="path612" />
    <path
       d="M9004 909 c-7 -11 7 -16 48 -15 21 1 38 6 38 11 0 12 -79 16 -86 4z"
       id="path614" />
  </g>
</svg>
