<?xml version="1.0" encoding="UTF-8" standalone="no"?>
<!-- Created with Inkscape (http://www.inkscape.org/) -->

<svg
   xmlns:dc="http://purl.org/dc/elements/1.1/"
   xmlns:cc="http://creativecommons.org/ns#"
   xmlns:rdf="http://www.w3.org/1999/02/22-rdf-syntax-ns#"
   xmlns:svg="http://www.w3.org/2000/svg"
   xmlns="http://www.w3.org/2000/svg"
   xmlns:sodipodi="http://sodipodi.sourceforge.net/DTD/sodipodi-0.dtd"
   xmlns:inkscape="http://www.inkscape.org/namespaces/inkscape"
   id="svg2"
   version="1.1"
   inkscape:version="0.91 r13725"
   xml:space="preserve"
   width="1000"
   height="1000"
   viewBox="0 0 1000 1000"
   sodipodi:docname="soorta-logo.svg"><metadata
     id="metadata8"><rdf:RDF><cc:Work
         rdf:about=""><dc:format>image/svg+xml</dc:format><dc:type
           rdf:resource="http://purl.org/dc/dcmitype/StillImage" /><dc:title></dc:title></cc:Work></rdf:RDF></metadata><defs
     id="defs6"><clipPath
       clipPathUnits="userSpaceOnUse"
       id="clipPath18"><path
         d="M 0,800 800,800 800,0 0,0 0,800 Z"
         id="path20"
         inkscape:connector-curvature="0" /></clipPath><clipPath
       clipPathUnits="userSpaceOnUse"
       id="clipPath158"><path
         d="M 0,800 800,800 800,0 0,0 0,800 Z"
         id="path160"
         inkscape:connector-curvature="0" /></clipPath><clipPath
       clipPathUnits="userSpaceOnUse"
       id="clipPath194"><path
         d="M 0,800 800,800 800,0 0,0 0,800 Z"
         id="path196"
         inkscape:connector-curvature="0" /></clipPath><clipPath
       clipPathUnits="userSpaceOnUse"
       id="clipPath216"><path
         d="M 0,800 800,800 800,0 0,0 0,800 Z"
         id="path218"
         inkscape:connector-curvature="0" /></clipPath><clipPath
       clipPathUnits="userSpaceOnUse"
       id="clipPath236"><path
         d="M 0,800 800,800 800,0 0,0 0,800 Z"
         id="path238"
         inkscape:connector-curvature="0" /></clipPath><clipPath
       clipPathUnits="userSpaceOnUse"
       id="clipPath300"><path
         d="M 0,800 800,800 800,0 0,0 0,800 Z"
         id="path302"
         inkscape:connector-curvature="0" /></clipPath><clipPath
       clipPathUnits="userSpaceOnUse"
       id="clipPath348"><path
         d="M 0,800 800,800 800,0 0,0 0,800 Z"
         id="path350"
         inkscape:connector-curvature="0" /></clipPath><clipPath
       clipPathUnits="userSpaceOnUse"
       id="clipPath388"><path
         d="M 0,800 800,800 800,0 0,0 0,800 Z"
         id="path390"
         inkscape:connector-curvature="0" /></clipPath><clipPath
       clipPathUnits="userSpaceOnUse"
       id="clipPath468"><path
         d="M 0,800 800,800 800,0 0,0 0,800 Z"
         id="path470"
         inkscape:connector-curvature="0" /></clipPath><clipPath
       clipPathUnits="userSpaceOnUse"
       id="clipPath508"><path
         d="M 0,800 800,800 800,0 0,0 0,800 Z"
         id="path510"
         inkscape:connector-curvature="0" /></clipPath><clipPath
       clipPathUnits="userSpaceOnUse"
       id="clipPath548"><path
         d="M 0,800 800,800 800,0 0,0 0,800 Z"
         id="path550"
         inkscape:connector-curvature="0" /></clipPath></defs><sodipodi:namedview
     pagecolor="#ffffff"
     bordercolor="#666666"
     borderopacity="1"
     objecttolerance="10"
     gridtolerance="10"
     guidetolerance="10"
     inkscape:pageopacity="0"
     inkscape:pageshadow="2"
     inkscape:window-width="1276"
     inkscape:window-height="755"
     id="namedview4"
     showgrid="false"
     inkscape:zoom="0.70710678"
     inkscape:cx="261.76001"
     inkscape:cy="549.75361"
     inkscape:window-x="4"
     inkscape:window-y="1"
     inkscape:window-maximized="1"
     inkscape:current-layer="g10" /><g
     id="g10"
     inkscape:groupmode="layer"
     inkscape:label="43039-O3RG7H"
     transform="matrix(1.25,0,0,-1.25,0,1000)"><text
       transform="matrix(1,0,0,-1,609.231,357.2939)"
       style="font-variant:normal;font-weight:300;font-stretch:normal;font-size:25.25390053px;font-family:'Open Sans Light';-inkscape-font-specification:OpenSans-Light;writing-mode:lr-tb;fill:#f2f2f2;fill-opacity:1;fill-rule:nonzero;stroke:none"
       id="text186"><tspan
         x="0 12.955251 32.249229 50.507801"
         y="0"
         sodipodi:role="line"
         id="tspan188">LOGO</tspan></text>
<g
       id="g232"><g
         id="g234"
         clip-path="url(#clipPath236)"><g
           id="g264"
           transform="translate(177.9775,322.2539)"
           style="fill:#1ba62e;fill-opacity:1"><path
             d="m 0,0 c -12.214,-12.214 -32.017,-12.214 -44.231,0.001 l -63.768,63.768 c -12.214,12.213 -12.215,32.017 -0.001,44.232 l 63.769,63.768 c 12.213,12.213 32.017,12.213 44.232,0 l 63.768,-63.768 c 12.213,-12.215 12.213,-32.019 0,-44.232 L 0,0 Z"
             style="fill:#1ba62e;fill-opacity:1;fill-rule:nonzero;stroke:none"
             id="path266"
             inkscape:connector-curvature="0" /></g><g
           id="g268"
           transform="translate(155.8618,495.1826)"><path
             d="m 0,0 c -6.218,0 -12.063,-2.421 -16.459,-6.817 l -63.769,-63.768 c -9.075,-9.075 -9.074,-23.842 10e-4,-32.919 l 63.768,-63.767 c 4.396,-4.397 10.242,-6.818 16.46,-6.818 6.217,0 12.062,2.421 16.458,6.817 l 63.769,63.768 c 9.075,9.076 9.075,23.844 0,32.919 L 16.46,-6.817 C 12.063,-2.421 6.217,0 0,0 m 0.001,-178.089 c -7.286,0 -14.136,2.837 -19.288,7.989 l -63.768,63.768 c -5.144,5.144 -7.977,11.995 -7.978,19.288 0,7.294 2.833,14.144 7.977,19.287 l 63.769,63.768 C -14.136,1.163 -7.286,4 0,4 7.286,4 14.136,1.163 19.288,-3.989 l 63.768,-63.768 c 10.635,-10.635 10.635,-27.939 0,-38.575 l -63.769,-63.769 c -5.152,-5.151 -12.001,-7.988 -19.286,-7.988"
             style="fill:#f2f2f2;fill-opacity:1;fill-rule:nonzero;stroke:none"
             id="path270"
             inkscape:connector-curvature="0" /></g><g
           id="g272"
           transform="translate(209.7979,436.0654)"><path
             d="m 0,0 c -1.292,1.494 -2.625,2.947 -3.942,4.417 l -4.019,4.342 -4.076,4.284 -4.134,4.228 c -1.38,1.407 -2.791,2.784 -4.185,4.177 -1.387,1.399 -2.818,2.756 -4.232,4.129 -1.409,1.379 -2.856,2.72 -4.29,4.073 l -0.6,0.565 -0.551,-0.553 c -1.226,-1.227 -2.434,-2.474 -3.645,-3.718 -1.209,-1.245 -2.427,-2.481 -3.624,-3.74 -0.014,-0.015 -0.027,-0.029 -0.04,-0.042 -1.266,1.674 -2.537,3.347 -3.829,5 -1.379,1.797 -2.8,3.56 -4.197,5.341 -1.399,1.781 -2.833,3.533 -4.247,5.299 -1.413,1.769 -2.847,3.52 -4.284,5.268 l -0.823,1.002 -0.891,-1.013 c -2.004,-2.284 -4.023,-4.555 -5.996,-6.864 l -5.944,-6.907 -5.879,-6.961 c -1.614,-1.893 -3.197,-3.814 -4.784,-5.732 l -3.163,3.269 -4.358,4.424 -1.043,1.059 -0.95,-1.092 -3.071,-3.53 -3.043,-3.556 c -2.026,-2.374 -4.056,-4.743 -6.05,-7.147 -2.01,-2.387 -3.996,-4.796 -5.971,-7.215 -1.976,-2.418 -3.927,-4.86 -5.853,-7.323 2.24,2.181 4.456,4.384 6.647,6.611 2.192,2.223 4.372,4.459 6.528,6.716 2.174,2.24 4.31,4.514 6.452,6.785 l 3.207,3.41 2.169,2.345 3.246,-3.489 4.27,-4.507 1.134,-1.195 1.071,1.269 c 1.956,2.323 3.93,4.632 5.857,6.98 l 5.809,7.019 5.746,7.072 c 1.65,2.018 3.268,4.063 4.89,6.105 1.215,-1.344 2.43,-2.69 3.662,-4.02 1.539,-1.661 3.057,-3.339 4.61,-4.986 1.555,-1.648 3.086,-3.314 4.659,-4.946 1.444,-1.525 2.91,-3.03 4.38,-4.533 -2.378,-2.477 -4.742,-4.97 -7.064,-7.504 2.645,2.255 5.249,4.555 7.837,6.869 1.301,1.151 2.581,2.324 3.868,3.488 1.079,0.978 2.156,1.96 3.228,2.947 1.161,-1.257 2.317,-2.517 3.502,-3.748 1.361,-1.426 2.706,-2.868 4.093,-4.269 1.382,-1.405 2.747,-2.826 4.142,-4.219 L -13.58,11.515 -9.331,7.4 -5.023,3.346 c 1.458,-1.33 2.9,-2.675 4.383,-3.981 1.467,-1.32 2.966,-2.609 4.483,-3.881 C 2.584,-2.987 1.309,-1.479 0,0"
             style="fill:#f2f2f2;fill-opacity:1;fill-rule:nonzero;stroke:none"
             id="path274"
             inkscape:connector-curvature="0" /></g><g
           id="g276"
           transform="translate(180.4336,460.1924)"><path
             d="m 0,0 -8.398,-8.016 3.341,0 -0.954,-1.908 1.24,0 -2.958,-12.119 7.729,8.97 4.007,-4.007 -0.762,4.676 2.29,-1.146 c 0,0 -7.062,7.443 -5.535,13.55"
             style="fill:#f2f2f2;fill-opacity:1;fill-rule:nonzero;stroke:none"
             id="path278"
             inkscape:connector-curvature="0" /></g><g
           id="g280"
           transform="translate(134.7261,448.7422)"><path
             d="m 0,0 3.817,-1.527 -0.764,-5.63 7.825,7.586 1.336,-3.101 3.34,2.576 3.244,-8.301 c 0,0 3.816,11.164 5.058,12.023 1.241,0.858 5.926,-2.171 5.926,-2.171 0,0 -6.022,6.274 -9.839,22.973 L 0,0 Z"
             style="fill:#f2f2f2;fill-opacity:1;fill-rule:nonzero;stroke:none"
             id="path282"
             inkscape:connector-curvature="0" /></g><g
           id="g284"
           transform="translate(119.1719,441.584)"><path
             d="M 0,0 3.436,2.768 4.294,0 l 1.909,4.008 1.43,-2.29 2.993,3.485 c 0,0 -4.314,5.11 -6.332,7.202 C 4.294,12.405 2.482,4.199 0,0"
             style="fill:#f2f2f2;fill-opacity:1;fill-rule:nonzero;stroke:none"
             id="path286"
             inkscape:connector-curvature="0" /></g></g></g><text
       transform="scale(1.0700555,-0.93453095)"
       style="font-variant:normal;font-weight:normal;font-stretch:normal;font-size:58.14896011px;font-family:'Bebas Neue Regular';-inkscape-font-specification:BebasNeueRegular;writing-mode:lr-tb;fill:#f2f2f2;fill-opacity:1;fill-rule:nonzero;stroke:none"
       id="text288"
       x="78.895111"
       y="-418.2536"><tspan
         sodipodi:role="line"
         id="tspan290"
         x="78.895111"
         y="-418.2536">soorta</tspan></text>
<text
       transform="scale(1,-1)"
       style="font-style:normal;font-variant:normal;font-weight:normal;font-stretch:normal;font-size:31.53899956px;line-height:125%;font-family:'Bebas Neue Regular';-inkscape-font-specification:'Bebas Neue Regular, Normal';text-align:start;writing-mode:lr-tb;text-anchor:start;fill:#f2f2f2;fill-opacity:1;fill-rule:nonzero;stroke:none"
       id="text292"
       sodipodi:linespacing="125%"
       x="122.4658"
       y="-345.84839"><tspan
         sodipodi:role="line"
         id="tspan4805"
         x="122.4658"
         y="-345.84839">路 2016 路</tspan></text>
<text
       transform="matrix(1,0,0,-1,615.7808,129.3789)"
       style="font-variant:normal;font-weight:bold;font-stretch:normal;font-size:25.7465992px;font-family:'Bebas Neue Bold';-inkscape-font-specification:BebasNeueBold;writing-mode:lr-tb;fill:#f2f2f2;fill-opacity:1;fill-rule:nonzero;stroke:none"
       id="text340"><tspan
         x="0 4.7888675 8.7795906 17.507689 27.703342 37.744514 47.94017 51.930893"
         y="0"
         sodipodi:role="line"
         id="tspan342">路 LOGO 路</tspan></text>
<g
       id="g344"><g
         id="g346"
         clip-path="url(#clipPath348)"><g
           id="g352"
           transform="translate(705.416,188.292)"><path
             d="m 0,0 -122.551,0 c -0.553,0 -1,0.447 -1,1 0,0.553 0.447,1 1,1 L 0,2 C 0.553,2 1,1.553 1,1 1,0.447 0.553,0 0,0"
             style="fill:#ffffff;fill-opacity:1;fill-rule:nonzero;stroke:none"
             id="path354"
             inkscape:connector-curvature="0" /></g><g
           id="g356"
           transform="translate(705.416,120.3896)"><path
             d="m 0,0 -122.551,0 c -0.553,0 -1,0.447 -1,1 0,0.553 0.447,1 1,1 L 0,2 C 0.553,2 1,1.553 1,1 1,0.447 0.553,0 0,0"
             style="fill:#ffffff;fill-opacity:1;fill-rule:nonzero;stroke:none"
             id="path358"
             inkscape:connector-curvature="0" /></g><g
           id="g360"
           transform="translate(646.9355,210.6104)"><path
             d="M 0,0 -0.757,0.686 -2.229,2.207 3.1,7.715 5.496,5.318 0,0 Z M 11.414,-11.457 C 11.411,-11.465 11.097,-12.072 9.897,-13.271 8.706,-14.463 8.099,-14.779 8.1,-14.779 L 8.072,-14.791 -2.314,-3.328 c -0.089,0.066 -0.16,0.15 -0.219,0.242 l -0.922,1.018 -0.018,0.019 -0.019,0.02 -7.594,7.347 2.397,2.397 7.347,-7.596 0.02,-0.019 0.019,-0.018 12.723,-11.527 -0.006,-0.012 z m -25.076,-3.334 -0.014,0.006 c -0.007,0.002 -0.614,0.316 -1.812,1.514 -1.192,1.193 -1.508,1.8 -1.509,1.8 l -0.013,0.028 11.402,10.328 1.549,-1.5 0.715,-0.787 -10.318,-11.389 z m -2.146,24.678 2.55,2.549 0.412,-0.426 -2.535,-2.535 -0.427,0.412 z M 7.668,12.436 10.217,9.887 9.791,9.475 7.256,12.01 7.668,12.436 Z M 9.784,-4.01 c 0.002,-0.019 0.005,-0.039 0.007,-0.058 0.015,-0.116 0.028,-0.227 0.04,-0.33 0.001,-0.006 0.002,-0.014 0.003,-0.02 0.025,-0.227 0.044,-0.426 0.058,-0.592 L 9.895,-5.045 C 9.908,-5.203 9.917,-5.332 9.922,-5.42 9.923,-5.426 9.923,-5.43 9.923,-5.436 9.925,-5.473 9.927,-5.502 9.928,-5.523 l 0,-0.012 c 10e-4,-0.016 0.002,-0.029 0.002,-0.029 0,0 1.389,0.166 4.948,3.724 3.558,3.559 3.725,4.949 3.725,4.949 C 18.448,3.145 18.294,3.186 18.14,3.23 18.078,3.25 18.018,3.27 17.957,3.289 17.87,3.316 17.783,3.346 17.696,3.377 17.616,3.404 17.537,3.434 17.457,3.465 17.398,3.488 17.341,3.512 17.282,3.535 17.187,3.574 17.094,3.611 17,3.654 14.891,4.59 13.045,6.24 11.914,7.352 11.878,7.385 11.847,7.418 11.813,7.451 11.809,7.453 11.808,7.457 11.805,7.461 l -1.438,1.437 0.6,0.581 c 0.222,0.224 0.222,0.585 0,0.808 l -2.898,2.899 c -0.111,0.111 -0.257,0.166 -0.403,0.166 -0.146,0 -0.293,-0.055 -0.405,-0.166 L 6.681,12.584 6.274,12.99 c -0.223,0.223 -0.585,0.223 -0.808,0 L 2.049,9.574 C 1.825,9.35 1.825,8.988 2.049,8.766 L 2.524,8.289 -2.795,2.793 -8.114,8.289 -7.64,8.766 c 0.224,0.222 0.224,0.584 0,0.808 l -3.417,3.416 c -0.222,0.223 -0.585,0.223 -0.808,0 l -0.406,-0.406 -0.58,0.602 c -0.111,0.111 -0.258,0.166 -0.405,0.166 -0.145,0 -0.292,-0.055 -0.403,-0.166 l -2.898,-2.899 c -0.222,-0.223 -0.222,-0.584 0,-0.808 l 0.6,-0.581 -1.438,-1.437 C -17.397,7.457 -17.399,7.453 -17.402,7.451 -17.436,7.418 -17.469,7.385 -17.505,7.352 -18.635,6.24 -20.48,4.59 -22.59,3.654 -22.687,3.611 -22.782,3.572 -22.88,3.533 -22.935,3.51 -22.99,3.488 -23.045,3.467 c -0.08,-0.033 -0.161,-0.063 -0.242,-0.09 -0.086,-0.031 -0.173,-0.061 -0.26,-0.088 -0.06,-0.019 -0.121,-0.039 -0.182,-0.059 -0.154,-0.044 -0.308,-0.085 -0.463,-0.121 0,0 0.167,-1.39 3.723,-4.949 3.559,-3.558 4.949,-3.724 4.949,-3.724 0,0 10e-4,0.013 10e-4,0.029 10e-4,0.004 10e-4,0.01 10e-4,0.015 0.001,0.018 0.002,0.045 0.005,0.077 0,0.007 0,0.017 10e-4,0.027 0.003,0.043 0.006,0.096 0.011,0.158 0,0.004 10e-4,0.01 10e-4,0.014 0.004,0.057 0.008,0.121 0.015,0.191 10e-4,0.018 0.003,0.033 0.004,0.053 0.006,0.07 0.013,0.146 0.02,0.229 0.002,0.011 0.003,0.023 0.004,0.035 0.009,0.095 0.02,0.199 0.032,0.306 0.002,0.02 0.005,0.039 0.007,0.059 0.01,0.09 0.022,0.184 0.033,0.279 0.004,0.033 0.009,0.067 0.013,0.102 0.015,0.109 0.03,0.22 0.048,0.338 0.321,2.232 1.163,5.894 3.322,8.054 l 0.341,0.34 5.466,-5.289 -11.541,-10.457 c -0.223,-0.223 -0.223,-0.586 0,-0.809 0,0 0.311,-0.671 1.672,-2.033 1.362,-1.361 2.034,-1.672 2.034,-1.672 0.111,-0.113 0.258,-0.168 0.403,-0.168 0.147,0 0.293,0.055 0.405,0.168 L -2.795,-4.01 7.632,-15.518 c 0.111,-0.113 0.258,-0.168 0.404,-0.168 0.147,0 0.293,0.055 0.404,0.168 0,0 0.672,0.311 2.034,1.672 1.361,1.362 1.672,2.033 1.672,2.033 0.223,0.223 0.223,0.586 0,0.809 L 0.605,-0.547 6.071,4.742 6.412,4.402 C 8.56,2.254 9.404,-1.381 9.73,-3.617 9.75,-3.754 9.768,-3.883 9.784,-4.01"
             style="fill:#ffffff;fill-opacity:1;fill-rule:nonzero;stroke:none"
             id="path362"
             inkscape:connector-curvature="0" /></g><g
           id="g364"
           transform="translate(613.3281,201.4443)"><path
             d="m 0,0 c 0,-1.01 -0.82,-1.83 -1.83,-1.83 -1.01,0 -1.828,0.82 -1.828,1.83 0,1.01 0.818,1.828 1.828,1.828 C -0.82,1.828 0,1.01 0,0"
             style="fill:#ffffff;fill-opacity:1;fill-rule:nonzero;stroke:none"
             id="path366"
             inkscape:connector-curvature="0" /></g><g
           id="g368"
           transform="translate(678.6113,201.4443)"><path
             d="m 0,0 c 0,-1.01 -0.818,-1.83 -1.828,-1.83 -1.01,0 -1.83,0.82 -1.83,1.83 0,1.01 0.82,1.828 1.83,1.828 C -0.818,1.828 0,1.01 0,0"
             style="fill:#ffffff;fill-opacity:1;fill-rule:nonzero;stroke:none"
             id="path370"
             inkscape:connector-curvature="0" /></g><g
           id="g372"
           transform="translate(641.2793,115.1689)"><path
             d="m 0,0 c 0,0 1.81,-7.43 -2.477,-10.859 -6.001,-4.383 -8.175,-12.733 -1.809,-17.336 0,0 -1.619,4.761 1.334,8.476 0,0 0.285,-1.904 1.333,-2.093 1.048,-0.192 0.952,-2.192 0.952,-2.192 0,0 1.144,2.096 0.191,4.096 -0.953,2 -0.001,6.095 2.666,8.383 0,0 -0.952,-7.049 3.334,-9.526 4.288,-2.478 2.096,-7.945 1.429,-8.689 0,0 5.716,2.592 6.764,7.451 1.048,4.857 -4.001,11.334 -4.001,11.334 0,0 0.381,-2.686 -1.238,-3.44 -1.62,-0.751 -1.715,-3.132 -1.715,-3.132 0,0 -1.144,2 0.572,5.334 C 9.05,-8.859 0,0 0,0"
             style="fill:#ffffff;fill-opacity:1;fill-rule:nonzero;stroke:none"
             id="path374"
             inkscape:connector-curvature="0" /></g></g></g><text
       transform="matrix(0.67590001,0.73699334,0.73699334,-0.67590001,110.1196,691.6919)"
       style="font-variant:normal;font-weight:normal;font-stretch:normal;font-size:30px;font-family:LeckerliOne;-inkscape-font-specification:LeckerliOne;writing-mode:lr-tb;fill:#ffffff;fill-opacity:1;fill-rule:nonzero;stroke:none"
       id="text476"><tspan
         x="0"
         y="0"
         id="tspan478" /></text>
<text
       transform="matrix(0.85499822,0.51863094,0.51863094,-0.85499822,120.1729,703.0396)"
       style="font-variant:normal;font-weight:normal;font-stretch:normal;font-size:29.99994659px;font-family:LeckerliOne;-inkscape-font-specification:LeckerliOne;writing-mode:lr-tb;fill:#ffffff;fill-opacity:1;fill-rule:nonzero;stroke:none"
       id="text480"><tspan
         x="0"
         y="0"
         id="tspan482">S</tspan></text>
<text
       transform="matrix(0.97922296,0.20278659,0.20278659,-0.97922296,133.459,711.9639)"
       style="font-variant:normal;font-weight:normal;font-stretch:normal;font-size:30.00001144px;font-family:LeckerliOne;-inkscape-font-specification:LeckerliOne;writing-mode:lr-tb;fill:#ffffff;fill-opacity:1;fill-rule:nonzero;stroke:none"
       id="text484"><tspan
         x="0"
         y="0"
         id="tspan486">O</tspan></text>
<text
       transform="matrix(0.99221416,-0.12454344,-0.12454344,-0.99221416,154.5337,716.0366)"
       style="font-variant:normal;font-weight:normal;font-stretch:normal;font-size:29.9999752px;font-family:LeckerliOne;-inkscape-font-specification:LeckerliOne;writing-mode:lr-tb;fill:#ffffff;fill-opacity:1;fill-rule:nonzero;stroke:none"
       id="text488"><tspan
         x="0"
         y="0"
         id="tspan490">O</tspan></text>
<text
       transform="matrix(0.94371161,-0.3307694,-0.3307694,-0.94371161,169.7759,713.8257)"
       style="font-variant:normal;font-weight:normal;font-stretch:normal;font-size:30.00005531px;font-family:LeckerliOne;-inkscape-font-specification:LeckerliOne;writing-mode:lr-tb;fill:#ffffff;fill-opacity:1;fill-rule:nonzero;stroke:none"
       id="text492"><tspan
         x="0"
         y="0"
         id="tspan494">T</tspan></text>
<text
       transform="matrix(0.85460246,-0.5192828,-0.5192828,-0.85460246,177.2388,711.7285)"
       style="font-variant:normal;font-weight:normal;font-stretch:normal;font-size:30.00003052px;font-family:LeckerliOne;-inkscape-font-specification:LeckerliOne;writing-mode:lr-tb;fill:#ffffff;fill-opacity:1;fill-rule:nonzero;stroke:none"
       id="text496"><tspan
         x="0"
         y="0"
         id="tspan498">fA</tspan></text>
<text
       xml:space="preserve"
       style="font-style:normal;font-variant:normal;font-weight:normal;font-stretch:normal;font-size:12px;line-height:125%;font-family:LeckerliOne;-inkscape-font-specification:'LeckerliOne, Normal';text-align:start;letter-spacing:0px;word-spacing:0px;writing-mode:lr-tb;text-anchor:start;fill:#ffffff;fill-opacity:1;stroke:none;stroke-width:1px;stroke-linecap:butt;stroke-linejoin:miter;stroke-opacity:1"
       x="145.60001"
       y="-378.40002"
       id="text4834"
       sodipodi:linespacing="125%"
       transform="scale(1,-1)"><tspan
         sodipodi:role="line"
         id="tspan4838"
         x="145.60001"
         y="-378.40002">est.</tspan></text>
<rect
       style="opacity:0.07000002;fill:#ffffff;fill-opacity:1;stroke:none;stroke-width:0;stroke-linecap:round;stroke-linejoin:miter;stroke-miterlimit:4;stroke-dasharray:none;stroke-opacity:0.98769232"
       id="rect4840"
       width="201.60001"
       height="202.39984"
       x="52.799999"
       y="-508.80005"
       transform="scale(1,-1)"
       inkscape:export-xdpi="924.21997"
       inkscape:export-ydpi="924.21997" /></g></svg>