<?xml version="1.0" encoding="utf-8"?>
<!-- Generator: Adobe Illustrator 20.0.0, SVG Export Plug-In . SVG Version: 6.00 Build 0)  -->
<svg version="1.1" id="Layer_1" xmlns="http://www.w3.org/2000/svg" xmlns:xlink="http://www.w3.org/1999/xlink" x="0px" y="0px"
	 viewBox="0 0 800 600" style="enable-background:new 0 0 800 600;" xml:space="preserve">
<style type="text/css">
	.st0{stroke:#000000;}
	.st1{font-family:'Hauser-BoldItalic';}
	.st2{font-size:48px;}
	.st3{stroke:#020202;}
	.st4{fill:#050505;}
	.st5{fill:#FFFFFF;}
	.st6{fill:#FFFFFF;stroke:#000000;stroke-width:0.5;stroke-miterlimit:10;}
	.st7{font-size:10px;}
</style>
<rect x="308" y="326.2" width="191.8" height="2.9"/>
<text transform="matrix(1 0 0 1 370.2285 320.3867)" class="st0 st1 st2">OORTA</text>
<g>
	<polygon points="469.8,321.3 503.1,321.3 505.3,311 472.4,311 469.8,321.3 	"/>
</g>
<text transform="matrix(1 0 0 1 342.5514 320.293)" class="st3 st1 st2">S</text>
<polygon class="st4" points="473,308.9 506.3,308.9 508.5,298.5 475.6,298.5 473,308.9 "/>
<polygon points="475.7,296.7 509,296.7 511.2,286.3 478.3,286.3 475.7,296.7 "/>
<polygon points="312.6,296.7 345.9,296.7 348.1,286.3 315.2,286.3 312.6,296.7 "/>
<polygon class="st4" points="310.1,309 343.3,309 345.5,298.6 312.6,298.6 310.1,309 "/>
<rect x="415.2" y="286.6" width="9.3" height="12.3"/>
<g>
	<polygon points="307.1,321.6 340.4,321.6 342.6,311.3 309.7,311.3 307.1,321.6 	"/>
</g>
<polygon class="st5" points="379.8,289.3 388,289.9 380,293.9 380.3,302.7 373.5,296.2 362.4,300.8 369.8,292.9 365,288.3 
	373.6,288.9 379.5,282.9 379.8,289.3 "/>
<text transform="matrix(1.0438 0 0 1 305.4844 330.3672)" class="st6 st1 st7">tallahassee mountain bike association</text>
</svg>
