<?xml version="1.0" encoding="UTF-8" standalone="no"?>
<!-- Created with Inkscape (http://www.inkscape.org/) -->

<svg
   xmlns:dc="http://purl.org/dc/elements/1.1/"
   xmlns:cc="http://creativecommons.org/ns#"
   xmlns:rdf="http://www.w3.org/1999/02/22-rdf-syntax-ns#"
   xmlns:svg="http://www.w3.org/2000/svg"
   xmlns="http://www.w3.org/2000/svg"
   xmlns:xlink="http://www.w3.org/1999/xlink"
   xmlns:sodipodi="http://sodipodi.sourceforge.net/DTD/sodipodi-0.dtd"
   xmlns:inkscape="http://www.inkscape.org/namespaces/inkscape"
   width="210mm"
   height="297mm"
   viewBox="0 0 744.09448819 1052.3622047"
   id="svg14185"
   version="1.1"
   inkscape:version="0.91 r13725"
   sodipodi:docname="urban_gorilla2.svg">
  <defs
     id="defs14187" />
  <sodipodi:namedview
     id="base"
     pagecolor="#ffffff"
     bordercolor="#666666"
     borderopacity="1.0"
     inkscape:pageopacity="0.0"
     inkscape:pageshadow="2"
     inkscape:zoom="1.5683962"
     inkscape:cx="390"
     inkscape:cy="472"
     inkscape:document-units="px"
     inkscape:current-layer="layer1"
     showgrid="false"
     inkscape:window-width="1276"
     inkscape:window-height="755"
     inkscape:window-x="4"
     inkscape:window-y="1"
     inkscape:window-maximized="1" />
  <metadata
     id="metadata14190">
    <rdf:RDF>
      <cc:Work
         rdf:about="">
        <dc:format>image/svg+xml</dc:format>
        <dc:type
           rdf:resource="http://purl.org/dc/dcmitype/StillImage" />
        <dc:title></dc:title>
      </cc:Work>
    </rdf:RDF>
  </metadata>
  <g
     inkscape:label="Layer 1"
     inkscape:groupmode="layer"
     id="layer1">
    <path
       id="path14844"
       d="m 426.8331,514.27183 0,-4.57387 33.3734,0 0,4.57387 -33.3734,0 z m 18.84448,-12.36642 0,-3.38806 c 0,-0.33883 -0.28773,-0.67761 -0.57544,-0.67761 l -0.57539,0 0,-3.55747 c 4.02782,2.37164 5.32248,-1.69402 10.64494,0.67762 l 0,-9.31716 c -5.32246,-2.54102 -6.47325,1.69404 -10.64494,-0.6776 l 0,-0.67762 c 0,-0.6776 -0.5754,-1.3552 -1.15079,-1.3552 -0.57542,0 -1.15082,0.6776 -1.15082,1.3552 l 0,13.55223 -0.57542,0 c -0.28769,0 -0.5754,0.33878 -0.5754,0.67761 l 0,3.38806 -11.93965,0 0,5.08209 28.77022,0 0,-5.08209 -12.22731,0 z m -29.63333,106.89313 c -3.02084,-7.4537 -9.49418,-12.70518 -16.97441,-12.70518 -7.48026,0 -13.95355,5.25148 -16.97444,12.70518 l -3.45241,0 0,27.44327 6.76101,0 0,-20.66717 4.60323,0 0,20.49776 6.76099,0 0,-20.49776 4.60326,0 0,20.49776 6.76095,0 0,-20.49776 4.60325,0 0,20.49776 6.761,0 0,-27.27386 -3.45243,0 z m 88.32451,0 c -3.02087,-7.4537 -9.49416,-12.70518 -16.97439,-12.70518 -7.48026,0 -13.95359,5.25148 -16.97443,12.70518 l -3.30861,0 0,27.44327 6.76104,0 0,-20.66717 4.60321,0 0,20.49776 6.76101,0 0,-20.49776 4.60323,0 0,20.49776 6.47327,0 0,-20.49776 4.60326,0 0,20.49776 6.76097,0 0,-27.27386 -3.30856,0 z m -39.70286,-10.16416 0,37.43802 -42.86759,0 0,-37.43802 21.43378,-5.92911 21.43381,5.92911 z m -30.35257,23.547 -4.60324,0 0,8.13131 4.60324,0 0,-8.13131 z m 0,-15.58505 -4.60324,0 0,8.13135 4.60324,0 0,-8.13135 z m 11.22037,0 -4.60322,0 0,8.13135 4.60322,0 0,-8.13135 z m 0,15.75442 -4.60322,0 0,8.13135 4.60322,0 0,-8.13135 z m 11.07653,-0.16933 -4.60324,0 0,8.13132 4.60324,0 0,-8.13132 z m 0,-15.58505 -4.60324,0 0,8.13133 4.60324,0 0,-8.13133 z m -22.8723,-14.22983 0,-64.20366 2.15776,0 0,63.69547 6.61717,-1.86345 0,-61.83202 2.01389,0 0,62.00141 7.19255,2.03286 0,-64.03427 2.0139,0 0,64.54244 6.4733,1.86348 0,-76.06189 -33.3734,0 0,75.72305 6.90483,-1.86342 z"
       inkscape:connector-curvature="0" />
    <g
       id="g18949"
       transform="matrix(2.4028818,0,0,2.3562097,286.23681,410.4111)">
      <path
         id="path18937"
         d="m 125.91069,64.952846 c 0,0.138583 -0.004,0.277167 -0.004,0.417083 -0.18522,0.463723 -0.5157,0.803519 -0.74622,0.864816 -0.31715,0.08794 -4.36406,-0.07729 -4.69719,4.065567 -0.33047,4.140189 3.5712,4.514632 3.82704,4.605245 0.43041,0.155906 0.573,0.659604 0.62496,1.011395 -0.0733,0.403757 -0.15057,0.806183 -0.23186,1.20328 -0.27317,0.435738 -0.67559,0.714239 -0.91945,0.732894 -0.32647,0.02265 -4.26278,-0.927445 -5.3981,3.06883 -1.13532,3.99894 2.6211,5.124933 2.85295,5.26485 0.39577,0.235859 0.43308,0.763543 0.41576,1.120663 -0.15058,0.375775 -0.30249,0.752882 -0.45973,1.12466 -0.35445,0.374443 -0.80485,0.574323 -1.04737,0.541009 -0.3278,-0.04131 -4.00294,-1.744289 -5.89381,1.956164 -1.89353,3.699119 1.56973,5.538019 1.77094,5.721909 0.33447,0.303818 0.27851,0.811515 0.19455,1.156641 -0.22919,0.353122 -0.46105,0.703579 -0.69424,1.051371 -0.41576,0.286495 -0.88348,0.387768 -1.11401,0.309148 -0.30915,-0.102605 -3.58452,-2.487844 -6.16165,0.772871 -2.57711,3.258058 0.46107,5.735238 0.6223,5.955108 0.26384,0.35578 0.11993,0.83416 -0.0266,1.15663 -0.30249,0.30782 -0.60497,0.61563 -0.91278,0.91812 -0.4584,0.19456 -0.93011,0.20121 -1.13666,0.0826 -0.28516,-0.16124 -3.03152,-3.13812 -6.19629,-0.44506 -3.163442,2.69304 -0.667602,5.71524 -0.55034,5.96043 0.19189,0.40642 -0.05197,0.85548 -0.259844,1.14065 -0.346459,0.23852 -0.695583,0.47438 -1.046041,0.70757 -0.495703,0.10661 -0.968753,0.02 -1.147313,-0.13858 -0.249184,-0.21454 -2.359921,-3.6698 -5.989749,-1.64435 -3.629827,2.02279 -1.769608,5.47406 -1.702981,5.74057 0.111933,0.44906 -0.242521,0.85549 -0.507696,1.09001 -0.366447,0.15991 -0.73556,0.31315 -1.104672,0.46506 -0.51969,0.016 -0.979414,-0.16124 -1.129991,-0.35845 -0.201212,-0.25719 -1.600376,-4.06024 -5.552677,-2.78367 -3.956299,1.2779 -2.804989,5.02499 -2.794328,5.29949 0.02532,0.45973 -0.395763,0.7862 -0.700914,0.96876 -0.395763,0.0826 -0.794191,0.16523 -1.193952,0.23985 -0.505031,-0.0839 -0.916785,-0.35046 -1.027385,-0.56766 -0.146579,-0.29583 -0.776869,-4.29476 -4.905065,-3.81372 -4.126864,0.48238 -3.729768,4.38138 -3.769744,4.65189 -0.06662,0.44107 -0.511694,0.67692 -0.844828,0.80219 -0.287828,0.003 -0.576988,0.005 -0.863484,0.005 -0.138584,0 -0.277167,-0.003 -0.417083,-0.003 -0.463722,-0.18656 -0.803519,-0.51836 -0.864816,-0.74622 -0.08794,-0.31848 0.07729,-4.36539 -4.065567,-4.69719 -4.14019,-0.33181 -4.514633,3.56985 -4.605245,3.82704 -0.154574,0.42908 -0.658273,0.57032 -1.011394,0.62363 -0.402427,-0.0746 -0.804852,-0.15058 -1.204613,-0.2332 -0.434407,-0.27317 -0.712907,-0.67427 -0.730229,-0.91811 -0.02399,-0.32648 0.926112,-4.26412 -3.070163,-5.3981 -3.996276,-1.13667 -5.124934,2.61976 -5.26485,2.85295 -0.234527,0.39577 -0.762211,0.43308 -1.117997,0.41575 -0.378441,-0.14924 -0.751551,-0.30115 -1.125993,-0.45972 -0.374443,-0.35313 -0.571659,-0.80219 -0.539678,-1.04605 0.04131,-0.32646 1.741625,-4.0016 -1.958828,-5.8938 -3.699119,-1.8922 -5.534021,1.5684 -5.719244,1.77227 -0.302485,0.3318 -0.811514,0.27584 -1.159306,0.19455 -0.353123,-0.22786 -0.702247,-0.46239 -1.050038,-0.69691 -0.289161,-0.41442 -0.3891,-0.88347 -0.313146,-1.11267 0.103937,-0.30915 2.489177,-3.58452 -0.770206,-6.16165 -3.258051,-2.57712 -5.736568,0.45973 -5.955104,0.62096 -0.357119,0.26518 -0.832835,0.1226 -1.15664,-0.0266 -0.307817,-0.30115 -0.615632,-0.6023 -0.918118,-0.91145 -0.195883,-0.45973 -0.201213,-0.92877 -0.08262,-1.13665 0.162569,-0.28649 3.140788,-3.03285 0.445067,-6.1963 -2.691723,-3.163436 -5.715246,-0.668929 -5.963098,-0.551666 -0.403759,0.194551 -0.851491,-0.05064 -1.137986,-0.259845 -0.238524,-0.345126 -0.477048,-0.694251 -0.708909,-1.044707 -0.107936,-0.497037 -0.02132,-0.970087 0.13725,-1.148647 0.214539,-0.250517 3.669805,-2.361253 1.645683,-5.989748 C 14.781116,87.420081 11.332513,89.277636 11.066006,89.344263 10.61568,89.458181 10.211921,89.102395 9.9747299,88.83722 9.8148256,88.472105 9.6602515,88.10166 9.5096748,87.73388 9.4910194,87.212859 9.6722443,86.754466 9.8667946,86.602557 10.126639,86.401344 13.928364,85.002182 12.650462,81.051212 11.37256,77.096246 7.6254691,78.246224 7.3536317,78.258217 6.8939068,78.283535 6.568768,77.859788 6.3848781,77.558635 6.3022608,77.160208 6.2183111,76.761779 6.1423565,76.362019 6.2289714,75.855655 6.494146,75.445233 6.7126819,75.334633 7.0045073,75.189386 11.007445,74.559097 10.526399,70.432234 10.044022,66.30537 6.1450216,66.701132 5.8745168,66.661156 5.4334474,66.594529 5.1962559,66.14813 5.0736627,65.816329 5.0696651,65.529834 5.067,65.242005 5.067,64.954178 c 0,-0.138584 0.00134,-0.2785 0.00266,-0.417084 0.186555,-0.465055 0.5170239,-0.804852 0.7462201,-0.864816 0.3171436,-0.08928 4.3640549,0.07595 4.6971889,-4.0669 C 10.844876,55.46519 6.9432106,55.092079 6.6860312,55.001466 6.2569546,54.84556 6.1143733,54.341862 6.0624043,53.988739 6.1370264,53.586314 6.2129809,53.183888 6.2942656,52.784127 6.568768,52.34972 6.9685289,52.07122 7.2137154,52.053897 c 0.3251388,-0.02265 4.2627826,0.927446 5.3981036,-3.06883 1.133987,-3.997608 -2.6197661,-5.1236 -2.8542924,-5.264849 -0.3944307,-0.237192 -0.4330742,-0.763543 -0.4144187,-1.119331 0.1505765,-0.377108 0.3024857,-0.754215 0.4597249,-1.125993 0.3531222,-0.375775 0.8048522,-0.571657 1.0473732,-0.541009 0.325139,0.04131 4.000273,1.740292 5.892474,-1.958828 1.892201,-3.69912 -1.568395,-5.536687 -1.77094,-5.719245 -0.333134,-0.302485 -0.277168,-0.811513 -0.193218,-1.159306 0.227864,-0.351789 0.459725,-0.702246 0.695584,-1.050038 0.414418,-0.287827 0.883471,-0.387768 1.111335,-0.311813 0.310481,0.103938 3.584521,2.489176 6.162979,-0.770207 2.577124,-3.258049 -0.458393,-5.736566 -0.622295,-5.955102 -0.26251,-0.355788 -0.119928,-0.832835 0.02798,-1.155309 0.301153,-0.310481 0.604972,-0.615631 0.912787,-0.91945 0.457061,-0.194551 0.927446,-0.199881 1.136654,-0.08262 0.28383,0.161238 3.030186,3.139456 6.19496,0.4464 3.16344,-2.694387 0.667599,-5.716579 0.551669,-5.961766 -0.191885,-0.406423 0.05196,-0.852822 0.259845,-1.14065 0.34646,-0.237191 0.695584,-0.474383 1.048705,-0.707577 0.493039,-0.107936 0.964757,-0.02132 1.147314,0.135919 0.247851,0.215871 2.359922,3.671137 5.988416,1.647015 3.629829,-2.024123 1.770941,-5.474058 1.704314,-5.739233 -0.111933,-0.450397 0.242522,-0.8554881 0.506364,-1.0926795 0.36778,-0.1585719 0.734227,-0.313146 1.104672,-0.4637226 0.51969,-0.018656 0.980747,0.1625694 1.131323,0.3584523 0.19988,0.2585118 1.59771,4.0602368 5.552678,2.7823348 3.953634,-1.277902 2.804987,-5.0249929 2.791662,-5.2968302 -0.02399,-0.4610575 0.397096,-0.7861963 0.703579,-0.9687536 0.397096,-0.08395 0.794192,-0.1665671 1.193953,-0.2411891 0.505031,0.085282 0.918117,0.350457 1.027385,0.5689929 0.146579,0.2944904 0.775536,4.294763 4.9024,3.8137179 4.128196,-0.4823781 3.7311,-4.3813782 3.771076,-4.651883 0.06529,-0.4410695 0.513027,-0.6782609 0.844829,-0.8008542 0.287827,-0.004 0.574322,-0.00667 0.86215,-0.00667 0.139916,0 0.279832,0.00134 0.418416,0.00266 0.463723,0.1852225 0.803519,0.5170239 0.863484,0.7462201 0.08662,0.3171436 -0.07595,4.3640553 4.065567,4.6971893 4.142854,0.3304679 4.514631,-3.5698639 4.606577,-3.8270433 0.153241,-0.4304092 0.659604,-0.5716579 1.012727,-0.6236269 0.403758,0.074622 0.804851,0.1505766 1.20328,0.2318613 0.435739,0.2745024 0.714239,0.6742632 0.728897,0.9181172 0.02665,0.3264714 -0.923447,4.2654476 3.072828,5.3994356 3.996275,1.133988 5.124934,-2.6197655 5.262184,-2.8542919 0.238525,-0.3944306 0.764876,-0.4330741 1.120663,-0.4144186 0.377108,0.1505765 0.752883,0.3024856 1.127325,0.4583923 0.374443,0.3544546 0.571658,0.8048512 0.539677,1.0487062 -0.03998,0.325138 -1.741624,4.001605 1.958829,5.893807 3.697787,1.890868 5.535354,-1.569728 5.719244,-1.770942 0.303818,-0.334466 0.812847,-0.277167 1.157974,-0.19455 0.353121,0.227864 0.703579,0.461058 1.050038,0.695585 0.287827,0.414418 0.387768,0.88347 0.310481,1.111334 -0.101275,0.310482 -2.486512,3.585855 0.772869,6.16298 3.25672,2.578456 5.73524,-0.459726 5.95377,-0.622295 0.35579,-0.263842 0.8355,-0.119928 1.15531,0.02799 0.30915,0.302486 0.6143,0.604972 0.91812,0.912787 0.19454,0.45706 0.20121,0.928778 0.0826,1.135321 -0.16257,0.285163 -3.13945,3.030187 -0.44639,6.194959 2.69304,3.163441 5.71524,0.667601 5.96309,0.553003 0.40509,-0.191885 0.85416,0.05196 1.13799,0.259845 0.23852,0.346459 0.47571,0.694251 0.70757,1.04604 0.10927,0.494371 0.0227,0.967422 -0.13725,1.147313 -0.21453,0.250517 -3.67113,2.361254 -1.64434,5.98975 2.02411,3.629828 5.47272,1.773605 5.73923,1.705645 0.4504,-0.113265 0.85681,0.242523 1.09268,0.507697 0.15856,0.365115 0.3118,0.734228 0.46372,1.104672 0.0174,0.519689 -0.16257,0.978081 -0.35712,1.12999 -0.25985,0.201214 -4.06157,1.600376 -2.78234,5.552678 1.27524,3.953635 5.02366,2.804988 5.2955,2.791663 0.46105,-0.02399 0.7862,0.395763 0.96742,0.702246 0.0853,0.397096 0.1679,0.794192 0.24385,1.193952 -0.0866,0.506365 -0.35046,0.916786 -0.56899,1.026054 -0.29448,0.146579 -4.29743,0.776868 -3.81238,4.902399 0.48104,4.126864 4.38005,3.732434 4.64922,3.771077 0.44239,0.06662 0.67826,0.514358 0.80218,0.84616 0.001,0.283831 0.005,0.571658 0.005,0.859486 z m -20.02135,5.283504 c 0,-0.886136 0.14791,-10.043323 0,-10.781548 -0.096,-0.487708 1.01938,-2.567796 1.79492,-4.186828 -3.70578,-16.218295 -16.524777,-28.966666 -32.783048,-32.571176 -1.720305,0.864816 -3.601845,1.856222 -4.128197,1.856222 -0.886136,0 -10.044655,-0.147912 -10.782881,0 -0.486375,0.09595 -2.563798,-1.018057 -4.184162,-1.79226 -16.218295,3.707114 -28.966667,16.52611 -32.569844,32.785714 0.864816,1.718972 1.853557,3.597847 1.853557,4.124199 0,0.887468 -0.149244,10.044655 0,10.782881 0.09727,0.485043 -1.01939,2.566464 -1.793593,4.188161 3.707115,16.219627 16.524778,28.965335 32.78305,32.569845 1.718971,-0.86482 3.601844,-1.85622 4.128196,-1.85622 0.887469,0 10.043323,0.14525 10.781548,0 0.485043,-0.0973 2.567798,1.01672 4.186829,1.79225 16.218295,-3.70445 28.965335,-16.522107 32.571175,-32.783043 -0.86748,-1.721637 -1.85755,-3.600513 -1.85755,-4.128197 z M 17.999262,60.556809 c -2.446537,0 -4.432016,1.981481 -4.432016,4.430682 0,2.447869 1.985479,4.429349 4.432016,4.429349 2.446536,0 4.430682,-1.98148 4.430682,-4.429349 0,-2.449201 -1.984146,-4.430682 -4.430682,-4.430682 z M 61.12812,112.54969 c 0,2.44654 1.982814,4.43202 4.433348,4.43202 2.445203,0 4.429349,-1.98548 4.429349,-4.43202 0,-2.44653 -1.984146,-4.43201 -4.429349,-4.43201 -2.450534,0 -4.433348,1.98548 -4.433348,4.43201 z m 51.99155,-43.13285 c 2.44921,0 4.43202,-1.98148 4.43202,-4.429349 0,-2.447869 -1.98281,-4.430682 -4.43202,-4.430682 -2.44653,0 -4.42801,1.981481 -4.42801,4.430682 0,2.446537 1.98148,4.429349 4.42801,4.429349 z M 69.990817,17.423952 c 0,-2.445203 -1.984146,-4.429349 -4.429349,-4.429349 -2.449202,0 -4.433348,1.984146 -4.433348,4.429349 0,2.44787 1.982814,4.433348 4.433348,4.433348 2.445203,0 4.429349,-1.985478 4.429349,-4.433348 z"
         inkscape:connector-curvature="0"
         style="fill:#000000" />
      <text
         xml:space="preserve"
         style="font-style:normal;font-weight:normal;font-size:18.35373306px;line-height:125%;font-family:sans-serif;letter-spacing:0px;word-spacing:0px;fill:#000000;fill-opacity:1;stroke:none;stroke-width:1px;stroke-linecap:butt;stroke-linejoin:miter;stroke-opacity:1"
         id="text21500"
         sodipodi:linespacing="125%"
         transform="translate(6.7930854e-6,-5.1886686e-6)"
         x="352.9595"
         y="455.27963"><tspan
   id="tspan21502">URBAN</tspan></text>
      <text
         xml:space="preserve"
         style="font-style:normal;font-weight:normal;font-size:18.35373306px;line-height:125%;font-family:sans-serif;letter-spacing:0px;word-spacing:0px;fill:#000000;fill-opacity:1;stroke:none;stroke-width:1px;stroke-linecap:butt;stroke-linejoin:miter;stroke-opacity:1"
         id="text21516"
         sodipodi:linespacing="125%"
         transform="translate(-1.0378043e-6,-2.0681977e-6)"
         x="343.83667"
         y="641.35461"><tspan
   id="tspan21518">GORILLA</tspan></text>
    </g>
    <circle
       style="opacity:0.92000002;fill:none;fill-opacity:1;stroke:#000000;stroke-width:0;stroke-linecap:round;stroke-linejoin:miter;stroke-miterlimit:4;stroke-dasharray:none;stroke-opacity:0.89783283"
       id="path21561"
       cx="-581.00739"
       cy="-421.5629"
       r="106.00304"
       transform="matrix(-0.96160484,-0.27443786,0.27443786,-0.96160484,0,0)" />
    <text
       xml:space="preserve"
       style="font-style:normal;font-variant:normal;font-weight:normal;font-stretch:normal;font-size:30px;line-height:125%;font-family:sans-serif;-inkscape-font-specification:'sans-serif, Normal';text-align:start;letter-spacing:0px;word-spacing:0px;writing-mode:lr-tb;text-anchor:start;fill:#f9f9f9;fill-opacity:1;stroke:none;stroke-width:1px;stroke-linecap:butt;stroke-linejoin:miter;stroke-opacity:1"
       id="text21563"
       sodipodi:linespacing="125%"><textPath
         xlink:href="#path21561"
         id="textPath21567"><tspan
   id="tspan21565"
   style="font-style:normal;font-variant:normal;font-weight:normal;font-stretch:normal;font-size:30px;line-height:125%;font-family:sans-serif;-inkscape-font-specification:'sans-serif, Normal';text-align:start;writing-mode:lr-tb;text-anchor:start;fill:#f9f9f9">URBAN</tspan></textPath></text>
    <circle
       style="opacity:0.92000002;fill:none;fill-opacity:1;stroke:#000000;stroke-width:0;stroke-linecap:round;stroke-linejoin:miter;stroke-miterlimit:4;stroke-dasharray:none;stroke-opacity:0.89783283"
       id="path21570"
       cx="-463.59702"
       cy="545.4682"
       r="105.42551"
       transform="matrix(0.19594627,-0.98061463,0.98061463,0.19594627,0,0)" />
    <text
       xml:space="preserve"
       style="font-style:normal;font-variant:normal;font-weight:normal;font-stretch:normal;font-size:30px;line-height:125%;font-family:sans-serif;-inkscape-font-specification:'sans-serif, Normal';text-align:start;letter-spacing:0px;word-spacing:0px;writing-mode:lr-tb;text-anchor:start;fill:#ffffff;fill-opacity:1;stroke:none;stroke-width:1px;stroke-linecap:butt;stroke-linejoin:miter;stroke-opacity:1"
       id="text21572"
       sodipodi:linespacing="125%"
       y="2"
       transform="translate(0,2)"><textPath
         xlink:href="#path21570"
         id="textPath21576">GORILLA </textPath></text>
    <ellipse
       style="opacity:0.92000002;fill:none;fill-opacity:1;stroke:#000000;stroke-width:0;stroke-linecap:round;stroke-linejoin:miter;stroke-miterlimit:4;stroke-dasharray:none;stroke-opacity:0.89783283"
       id="path21583"
       cx="359.31323"
       cy="511.08167"
       rx="129.97665"
       ry="66.43251" />
    <ellipse
       style="opacity:0.92000002;fill:none;fill-opacity:1;stroke:#000000;stroke-width:0;stroke-linecap:round;stroke-linejoin:miter;stroke-miterlimit:4;stroke-dasharray:none;stroke-opacity:0.89783283"
       id="path21585"
       cx="364.5123"
       cy="507.61563"
       rx="104.55899"
       ry="60.078094" />
    <ellipse
       style="opacity:0.92000002;fill:none;fill-opacity:1;stroke:#000000;stroke-width:0;stroke-linecap:round;stroke-linejoin:miter;stroke-miterlimit:4;stroke-dasharray:none;stroke-opacity:0.89783283"
       id="path21587"
       cx="684.20978"
       cy="211.1212"
       rx="105.31709"
       ry="110.0469"
       transform="matrix(0.82578762,0.56398121,-0.56398121,0.82578762,0,0)" />
    <text
       xml:space="preserve"
       style="font-style:normal;font-weight:normal;font-size:40px;line-height:125%;font-family:sans-serif;letter-spacing:0px;word-spacing:0px;fill:#ffffff;fill-opacity:1;stroke:none;stroke-width:1px;stroke-linecap:butt;stroke-linejoin:miter;stroke-opacity:1;"
       id="text21589"
       sodipodi:linespacing="125%"><textPath
         xlink:href="#path21587"
         id="textPath21593"><tspan
   style="-inkscape-font-specification:'sans-serif, Normal';font-family:sans-serif;font-weight:normal;font-style:normal;font-stretch:normal;font-variant:normal;font-size:30px;text-anchor:start;text-align:start;writing-mode:lr;line-height:125%;fill:#ffffff;"
   id="tspan21591">850</tspan></textPath></text>
    <ellipse
       style="opacity:0.92000002;fill:none;fill-opacity:1;stroke:#000000;stroke-width:0;stroke-linecap:round;stroke-linejoin:miter;stroke-miterlimit:4;stroke-dasharray:none;stroke-opacity:0.89783283"
       id="path21596"
       cx="320.2034"
       cy="-636.29303"
       rx="104.48375"
       ry="107.15852"
       transform="matrix(-0.42254089,0.90634386,-0.90634386,-0.42254089,0,0)" />
    <text
       xml:space="preserve"
       style="font-style:normal;font-weight:normal;font-size:40px;line-height:125%;font-family:sans-serif;letter-spacing:0px;word-spacing:0px;fill:#000000;fill-opacity:1;stroke:none;stroke-width:1px;stroke-linecap:butt;stroke-linejoin:miter;stroke-opacity:1"
       x="336.78394"
       y="619.68439"
       id="text21598"
       sodipodi:linespacing="125%"><tspan
         sodipodi:role="line"
         id="tspan21600"
         x="336.78394"
         y="619.68439"></tspan></text>
    <text
       xml:space="preserve"
       style="font-style:normal;font-variant:normal;font-weight:normal;font-stretch:normal;font-size:30px;line-height:125%;font-family:sans-serif;-inkscape-font-specification:'sans-serif, Normal';text-align:start;letter-spacing:0px;word-spacing:0px;writing-mode:lr-tb;text-anchor:start;fill:#ffffff;fill-opacity:1;stroke:none;stroke-width:1px;stroke-linecap:butt;stroke-linejoin:miter;stroke-opacity:1"
       id="text22312"
       sodipodi:linespacing="125%"
       transform="translate(-2,2)"><textPath
         xlink:href="#path21596"
         id="textPath22319"><tspan
   id="tspan22314"
   style="font-style:normal;font-variant:normal;font-weight:normal;font-stretch:normal;font-size:30px;line-height:125%;font-family:sans-serif;-inkscape-font-specification:'sans-serif, Normal';text-align:start;writing-mode:lr-tb;text-anchor:start;fill:#ffffff">2017</tspan></textPath></text>
  </g>
</svg>
